<?xml version="1.0" encoding="UTF-8" standalone="no"?>
<!-- Created with Inkscape (http://www.inkscape.org/) -->

<svg
   version="1.1"
   id="svg1"
   width="590.47736"
   height="237.81866"
   viewBox="0 0 590.47736 237.81866"
   xmlns="http://www.w3.org/2000/svg"
   xmlns:svg="http://www.w3.org/2000/svg">
  <defs
     id="defs1" />
  <g
     id="g1">
    <path
       id="path1"
       d="m 46.92589,16.29913 h -93.85178 c -1.65068,0 -2.98878,-1.3381 -2.98878,-2.9888 v -26.62066 c 0,-1.6507 1.3381,-2.9888 2.98878,-2.9888 h 93.85178 c 1.65068,0 2.98878,1.3381 2.98878,2.9888 v 26.62066 c 0,1.6507 -1.3381,2.9888 -2.98878,2.9888 z"
       style="fill:#ebf5fb;fill-opacity:1;fill-rule:nonzero;stroke:#0085ca;stroke-width:0.39851;stroke-linecap:butt;stroke-linejoin:miter;stroke-miterlimit:10;stroke-dasharray:none;stroke-opacity:1"
       transform="matrix(1.3333333,0,0,-1.3333333,102.24133,115.09067)" />
    <g
       id="g2"
       aria-label="matrizA&#10;qualquer"
       transform="matrix(1.3333333,0,0,1.3333333,78.166667,110.70667)">
      <path
         id="path2"
         d="m 1.6650391,-2.3200391 c 0,-0.9726562 0.703125,-1.4179687 1.2421875,-1.4179687 0.4921875,0 0.65625,0.3515625 0.65625,0.9726562 v 2.07421879 c 0,0.41015625 -0.1054688,0.41015625 -0.6914063,0.41015625 V 2.734375e-4 C 3.2939453,-0.02316406 3.4580078,-0.02316406 3.8916016,-0.02316406 c 0.4335937,0 0.5507812,0 1.0195312,0.0234374975 V -0.28097656 c -0.5859375,0 -0.6914062,0 -0.6914062,-0.41015625 V -2.3200391 c 0,-0.9726562 0.703125,-1.4179687 1.2421875,-1.4179687 0.4921875,0 0.65625,0.3515625 0.65625,0.9726562 v 2.07421879 c 0,0.41015625 -0.1054688,0.41015625 -0.6914063,0.41015625 V 2.734375e-4 C 5.8486328,-0.02316406 6.0126953,-0.02316406 6.4462891,-0.02316406 c 0.4335937,0 0.5507812,0 1.0195312,0.0234374975 V -0.28097656 c -0.4570312,0 -0.6796875,0 -0.6914062,-0.26953125 V -2.2731641 c 0,-0.7851562 0,-1.03125 -0.2929688,-1.3710937 -0.1875,-0.2109375 -0.5507812,-0.3164063 -0.9609375,-0.3164063 -0.6445312,0 -1.078125,0.375 -1.3359375,0.8554688 -0.1054687,-0.5390625 -0.46875,-0.8554688 -1.21875,-0.8554688 -0.7148437,0 -1.1484375,0.46875 -1.3476562,0.8789063 v -0.8789063 l -1.30078129,0.09375 v 0.28125 c 0.609375,0 0.69140629,0.058594 0.69140629,0.5039063 v 2.39062499 c 0,0.41015625 -0.10546879,0.41015625 -0.69140629,0.41015625 V 2.734375e-4 C 0.73925781,-0.02316406 0.90332031,-0.02316406 1.3369141,-0.02316406 c 0.4335937,0 0.5507812,0 1.0195312,0.0234374975 V -0.28097656 c -0.5859375,0 -0.6914062,0 -0.6914062,-0.41015625 z M 10.75,-0.64425781 c 0.03516,0.375 0.304687,0.703125 0.691406,0.703125 0.222656,0 0.785156,-0.140625 0.785156,-0.85546875 V -1.3005078 H 11.96875 v 0.49218749 c 0,0.10546875 0,0.55078125 -0.316406,0.55078125 -0.328125,0 -0.328125,-0.43359375 -0.328125,-0.57421875 V -2.4020703 c 0,-0.515625 0,-0.8203125 -0.398438,-1.1835938 -0.328125,-0.2929687 -0.761719,-0.4335937 -1.207031,-0.4335937 -0.7617188,0 -1.3828125,0.375 -1.3828125,0.9492187 0,0.28125 0.1875,0.4335938 0.421875,0.4335938 0.234375,0 0.4101562,-0.1757813 0.4101562,-0.4101563 0,-0.3867187 -0.3984375,-0.4335937 -0.3984375,-0.4335937 0.234375,-0.234375 0.6679688,-0.3164063 0.9257813,-0.3164063 0.4570315,0 0.9726565,0.3398438 0.9726565,1.1367188 v 0.2929687 c -0.492188,0.023437 -1.1601565,0.058594 -1.7578128,0.3515625 -0.6445312,0.3164063 -0.84375,0.7734375 -0.84375,1.13671879 0,0.73828125 0.8671875,0.97265625 1.4648438,0.97265625 0.75,0 1.089844,-0.4921875 1.21875,-0.73828125 z M 10.66797,-1.2653516 c 0,0.86718754 -0.6796878,1.13671879 -1.0664065,1.13671879 -0.421875,0 -0.8203125,-0.3046875 -0.8203125,-0.75 0,-0.58593749 0.515625,-1.21874999 1.886719,-1.27734379 z m 4.538086,-2.3203125 v -0.28125 h -1.300782 v -1.640625 h -0.257812 c 0,0.75 -0.316406,1.6757813 -1.183594,1.6992188 v 0.2226562 h 0.773438 v 2.4726563 c 0,1.00781249 0.726562,1.20703124 1.207031,1.20703124 0.597656,0 0.914062,-0.57421875 0.914062,-1.20703124 v -0.5039063 h -0.257812 v 0.4804688 c 0,0.65624999 -0.28125,0.98437499 -0.597656,0.98437499 -0.597657,0 -0.597657,-0.78515625 -0.597657,-0.94921879 v -2.484375 z m 2.258789,1.5351563 c 0,-0.375 0.105468,-1.6875 1.125,-1.6875 v 0.011719 c -0.02344,0.011719 -0.164063,0.1171875 -0.164063,0.328125 0,0.2460938 0.1875,0.3984375 0.398438,0.3984375 0.1875,0 0.386718,-0.140625 0.386718,-0.4101562 0,-0.28125 -0.269531,-0.5507813 -0.667968,-0.5507813 -0.539063,0 -0.914063,0.375 -1.125,0.9257813 v -0.9257813 l -1.277344,0.09375 v 0.28125 c 0.609375,0 0.691406,0.058594 0.691406,0.5039063 v 2.39062499 c 0,0.41015625 -0.105469,0.41015625 -0.691406,0.41015625 V 2.734375e-4 c 0.46875,-0.0234374975 0.585937,-0.0234374975 1.042969,-0.0234374975 0.363281,0 0.574218,0 1.148437,0.0234374975 V -0.28097656 h -0.1875 c -0.65625,0 -0.679687,-0.09375 -0.679687,-0.421875 z m 3.662109,-1.9101563 -1.289062,0.09375 v 0.28125 c 0.574218,0 0.644531,0.058594 0.644531,0.4921875 v 2.40234379 c 0,0.41015625 -0.09375,0.41015625 -0.679688,0.41015625 V 2.734375e-4 C 20.201172,-0.02316406 20.388672,-0.02316406 20.787109,-0.02316406 c 0.140625,0 0.515625,0 0.960938,0.0234374975 V -0.28097656 c -0.585938,0 -0.621094,-0.046875 -0.621094,-0.38671875 z m 0.02344,-1.5585937 c 0,-0.2695313 -0.210938,-0.4921875 -0.480469,-0.4921875 -0.28125,0 -0.492188,0.234375 -0.492188,0.4921875 0,0.2578125 0.210938,0.4804687 0.492188,0.4804687 0.269531,0 0.480469,-0.2109375 0.480469,-0.4804687 z m 4.482421,1.9453125 c 0.08203,-0.1054688 0.08203,-0.1171875 0.08203,-0.1523438 0,-0.140625 -0.09375,-0.140625 -0.246094,-0.140625 h -2.953125 l -0.09375,1.4765625 h 0.246094 c 0.05859,-0.9140625 0.222656,-1.2539062 1.230468,-1.2539062 H 24.90625 L 22.375,-0.30441406 c -0.08203,0.09375 -0.08203,0.1171875 -0.08203,0.1640625 0,0.1406249975 0.08203,0.1406249975 0.246093,0.1406249975 h 3.046875 L 25.738281,-1.6989453 h -0.246094 c -0.09375,0.99609374 -0.210937,1.45312499 -1.335937,1.45312499 h -1.042969 z m 0,0"
         style="fill:#000000;fill-opacity:1;fill-rule:nonzero;stroke:none" />
      <path
         id="path3"
         d="m 30.827148,-1.0544141 c -0.433593,0.72656254 -0.832031,0.75000004 -1.195312,0.77343754 -0.05859,0.0117188 -0.105469,0.0820313 -0.105469,0.1640625 0,0.05859375 0.03516,0.1171874975 0.128906,0.1171874975 0.175782,0 0.597657,-0.0234374975 0.761719,-0.0234374975 0.199219,0 0.679688,0.0234374975 0.878906,0.0234374975 0.05859,0 0.175782,0 0.175782,-0.1640624975 0,-0.10546875 -0.117188,-0.1171875 -0.140625,-0.1171875 -0.08203,0 -0.421875,-0.0234375 -0.421875,-0.29296875 0,-0.12890625 0.105468,-0.29296875 0.128906,-0.33984375 l 0.703125,-1.16015624 h 2.34375 c 0.02344,0.2109375 0.05859,0.515625 0.08203,0.7382812 0.03516,0.35156254 0.08203,0.75000004 0.08203,0.77343754 0,0.12890625 -0.117187,0.28125 -0.644531,0.28125 -0.08203,0 -0.199219,0 -0.199219,0.1640625 0,0.09375 0.07031,0.1171874975 0.128907,0.1171874975 0.175781,0 0.386718,-0.0234374975 0.5625,-0.0234374975 0.1875,0 0.398437,0 0.539062,0 0.304688,0 0.316406,0 0.527344,0 0.152344,0.01171875 0.351562,0.0234374975 0.503906,0.0234374975 0.04687,0 0.164063,0 0.164063,-0.1640624975 0,-0.1171875 -0.09375,-0.1171875 -0.199219,-0.1171875 -0.539063,0 -0.550781,-0.0585938 -0.574219,-0.31640625 l -0.63281,-5.57812499 c -0.02344,-0.1992188 -0.02344,-0.2460938 -0.175782,-0.2460938 -0.128906,0 -0.1875,0.070312 -0.257812,0.1875 z m 1.089844,-1.2890625 1.804688,-2.9648437 0.339843,2.9648437 z m 0,0"
         style="fill:#000000;fill-opacity:1;fill-rule:nonzero;stroke:none" />
      <path
         id="path4"
         d="m 4.2226562,7.7844531 c -0.421875,-0.703125 -0.9375,-0.7851562 -1.2421875,-0.7851562 -1.0664062,0 -2.03906245,0.8554687 -2.03906245,2.0390625 0,1.1367186 0.91406245,2.0156246 1.96874995,2.0156246 0.375,0 0.8320313,-0.128906 1.21875,-0.621093 v 1.582031 c 0,0.410156 -0.1054687,0.410156 -0.6914062,0.410156 v 0.269531 c 0.421875,-0.01172 0.5859375,-0.02344 1.0195312,-0.02344 0.4335938,0 0.5507813,0.01172 1.0195313,0.02344 v -0.269531 c -0.5859375,0 -0.6914063,0 -0.6914063,-0.410156 V 6.9992969 H 4.5625 Z m -0.070312,1.9335938 c 0,0.1640625 0,0.1992187 -0.140625,0.4453121 -0.2226562,0.386719 -0.5976562,0.667969 -1.0664062,0.667969 -0.6679688,0 -1.2304688,-0.785156 -1.2304688,-1.7929686 0,-1.0429688 0.6328125,-1.7929688 1.3242188,-1.7929688 0.703125,0 1.1132812,0.75 1.1132812,1.2421875 z m 4.898437,-0.2578125 c 0,0.7968746 -0.4453125,1.3710936 -1.0898437,1.3710936 -0.75,0 -0.796875,-0.386719 -0.796875,-0.8671874 V 6.9992969 l -1.3476563,0.09375 v 0.28125 c 0.6914063,0 0.6914063,0.023437 0.6914063,0.8203125 v 1.3476562 c 0,0.5859374 0,0.9609374 0.4101562,1.2773434 0.2578125,0.175782 0.6210938,0.234375 0.984375,0.234375 0.46875,0 0.9023438,-0.199218 1.1601563,-0.738281 h 0.011719 v 0.738281 l 1.324218,-0.09375 v -0.28125 c -0.6093742,0 -0.6796867,-0.05859 -0.6796867,-0.503906 V 6.9992969 l -1.359375,0.09375 v 0.28125 c 0.609375,0 0.6914062,0.058594 0.6914062,0.5039062 z m 4.6406248,0.8554686 c 0.03516,0.375 0.304688,0.703125 0.691406,0.703125 0.222657,0 0.785157,-0.140625 0.785157,-0.855469 V 9.6594531 h -0.257813 v 0.4921879 c 0,0.105468 0,0.550781 -0.316406,0.550781 -0.328125,0 -0.328125,-0.433594 -0.328125,-0.574219 V 8.5578906 c 0,-0.515625 0,-0.8203125 -0.398438,-1.1835937 -0.328125,-0.2929688 -0.761718,-0.4335938 -1.207031,-0.4335938 -0.761719,0 -1.382812,0.375 -1.382812,0.9492188 0,0.28125 0.1875,0.4335937 0.421875,0.4335937 0.234375,0 0.410156,-0.1757812 0.410156,-0.4101562 0,-0.3867188 -0.398438,-0.4335938 -0.398438,-0.4335938 0.234375,-0.234375 0.667969,-0.3164062 0.925782,-0.3164062 0.457031,0 0.972656,0.3398437 0.972656,1.1367187 v 0.2929688 c -0.492188,0.023437 -1.160156,0.058594 -1.757813,0.3515625 -0.644531,0.3164062 -0.84375,0.7734375 -0.84375,1.1367186 0,0.738281 0.867188,0.972656 1.464844,0.972656 0.75,0 1.089844,-0.492187 1.21875,-0.738281 z m -0.08203,-0.6210936 c 0,0.8671876 -0.679688,1.1367186 -1.066406,1.1367186 -0.421875,0 -0.820313,-0.304687 -0.820313,-0.75 0,-0.5859374 0.515625,-1.2187499 1.886719,-1.2773436 z m 3.269531,-4.9570313 -1.324219,0.1054688 v 0.2695312 c 0.609375,0 0.679688,0.070312 0.679688,0.5039063 v 4.6523436 c 0,0.410156 -0.09375,0.410156 -0.679688,0.410156 v 0.28125 c 0.410157,-0.02344 0.585938,-0.02344 0.996094,-0.02344 0.421875,0 0.574219,0 1.019531,0.02344 v -0.28125 c -0.597656,0 -0.691406,0 -0.691406,-0.410156 z m 4.494141,3.046875 c -0.421875,-0.703125 -0.9375,-0.7851562 -1.242188,-0.7851562 -1.066406,0 -2.039062,0.8554687 -2.039062,2.0390625 0,1.1367186 0.914062,2.0156246 1.96875,2.0156246 0.375,0 0.832031,-0.128906 1.21875,-0.621093 v 1.582031 c 0,0.410156 -0.105469,0.410156 -0.691406,0.410156 v 0.269531 c 0.421875,-0.01172 0.585937,-0.02344 1.019531,-0.02344 0.433594,0 0.550781,0.01172 1.019531,0.02344 v -0.269531 c -0.585937,0 -0.691406,0 -0.691406,-0.410156 V 6.9992969 h -0.222656 z m -0.07031,1.9335938 c 0,0.1640625 0,0.1992187 -0.140625,0.4453121 -0.222656,0.386719 -0.597656,0.667969 -1.066406,0.667969 -0.667969,0 -1.230469,-0.785156 -1.230469,-1.7929686 0,-1.0429688 0.632813,-1.7929688 1.324219,-1.7929688 0.703125,0 1.113281,0.75 1.113281,1.2421875 z m 4.898438,-0.2578125 c 0,0.7968746 -0.445313,1.3710936 -1.089844,1.3710936 -0.75,0 -0.796875,-0.386719 -0.796875,-0.8671874 V 6.9992969 l -1.347656,0.09375 v 0.28125 c 0.691406,0 0.691406,0.023437 0.691406,0.8203125 v 1.3476562 c 0,0.5859374 0,0.9609374 0.410156,1.2773434 0.257813,0.175782 0.621094,0.234375 0.984375,0.234375 0.46875,0 0.902344,-0.199218 1.160157,-0.738281 h 0.01172 v 0.738281 l 1.324219,-0.09375 v -0.28125 c -0.609375,0 -0.679687,-0.05859 -0.679687,-0.503906 V 6.9992969 l -1.359375,0.09375 v 0.28125 c 0.609375,0 0.691406,0.058594 0.691406,0.5039062 z m 5.15625,-0.5507813 c 0.199219,0 0.246094,0 0.246094,-0.1875 0,-0.9257812 -0.503907,-1.78125 -1.652344,-1.78125 -1.078125,0 -1.921875,0.9375 -1.921875,2.0507813 0,1.1718746 0.949219,2.0624996 2.039062,2.0624996 1.089844,0 1.535157,-0.949218 1.535157,-1.1601559 0,-0.058594 -0.04687,-0.1171875 -0.128907,-0.1171875 -0.09375,0 -0.117187,0.058594 -0.128906,0.09375 -0.304687,0.9140624 -1.101562,0.9375004 -1.230469,0.9375004 -0.433593,0 -0.796875,-0.246094 -1.007812,-0.550782 C 28.814453,9.8235156 28.802734,9.2844531 28.802734,8.9094531 Z M 28.814453,8.6867969 c 0.08203,-1.3710938 0.878906,-1.5234375 1.136719,-1.5234375 0.492187,0 1.03125,0.3867187 1.042969,1.5234375 z m 4.649414,0.2226562 c 0,-0.375 0.105469,-1.6875 1.125,-1.6875 v 0.011719 c -0.02344,0.011719 -0.164062,0.1171875 -0.164062,0.328125 0,0.2460937 0.1875,0.3984375 0.398437,0.3984375 0.1875,0 0.386719,-0.140625 0.386719,-0.4101563 0,-0.28125 -0.269531,-0.5507812 -0.667969,-0.5507812 -0.539062,0 -0.914062,0.375 -1.125,0.9257812 V 6.9992969 l -1.277344,0.09375 v 0.28125 c 0.609375,0 0.691407,0.058594 0.691407,0.5039062 v 2.3906249 c 0,0.410156 -0.105469,0.410156 -0.691407,0.410156 v 0.28125 c 0.46875,-0.02344 0.585938,-0.02344 1.042969,-0.02344 0.363281,0 0.574219,0 1.148438,0.02344 v -0.28125 h -0.1875 c -0.65625,0 -0.679688,-0.09375 -0.679688,-0.421875 z m 0,0"
         style="fill:#000000;fill-opacity:1;fill-rule:nonzero;stroke:none" />
    </g>
    <path
       id="path5"
       d="M 203.88548,0 144.56705,28.20325 85.24861,0 144.56705,-28.20325 Z"
       style="fill:#ffefe6;fill-opacity:1;fill-rule:nonzero;stroke:#ff5e00;stroke-width:0.39851;stroke-linecap:butt;stroke-linejoin:miter;stroke-miterlimit:10;stroke-dasharray:none;stroke-opacity:1"
       transform="matrix(1.3333333,0,0,-1.3333333,102.24133,115.09067)" />
    <path
       id="path6"
       d="m 3.5867656,-3.1746562 c -0.421875,-0.703125 -0.9375,-0.7851563 -1.2421875,-0.7851563 -1.0664062,0 -2.03906248,0.8554688 -2.03906248,2.0390625 0,1.13671875 0.91406248,2.015625 1.96874998,2.015625 0.375,0 0.8320313,-0.12890625 1.21875,-0.62109375 V 1.0558125 c 0,0.4101563 -0.1054687,0.4101563 -0.6914062,0.4101563 V 1.7355 c 0.421875,-0.011719 0.5859375,-0.023437 1.0195312,-0.023437 0.4335938,0 0.5507813,0.011719 1.0195313,0.023437 V 1.4659688 c -0.5859375,0 -0.6914063,0 -0.6914063,-0.4101563 v -5.015625 H 3.9266094 Z m -0.070312,1.9335937 c 0,0.1640625 0,0.1992188 -0.140625,0.4453125 -0.2226562,0.38671875 -0.5976562,0.66796875 -1.0664062,0.66796875 -0.6679688,0 -1.2304688,-0.78515625 -1.2304688,-1.79296875 0,-1.0429687 0.6328125,-1.7929687 1.3242188,-1.7929687 0.703125,0 1.1132812,0.75 1.1132812,1.2421875 z m 4.898437,-0.2578125 c 0,0.796875 -0.4453125,1.37109375 -1.0898437,1.37109375 -0.75,0 -0.796875,-0.38671875 -0.796875,-0.8671875 V -3.9598125 l -1.3476563,0.09375 v 0.28125 c 0.6914063,0 0.6914063,0.023437 0.6914063,0.8203125 v 1.3476563 c 0,0.58593745 0,0.96093745 0.4101562,1.2773437 0.2578125,0.17578125 0.6210938,0.234375 0.984375,0.234375 0.46875,0 0.9023438,-0.19921875 1.1601563,-0.73828125 h 0.011719 V 0.094875 l 1.3242188,-0.09375 v -0.28125 c -0.609375,0 -0.6796875,-0.0585938 -0.6796875,-0.50390625 V -3.9598125 l -1.359375,0.09375 v 0.28125 c 0.609375,0 0.6914062,0.058594 0.6914062,0.5039063 z m 4.6376954,0.85546875 c 0.03516,0.375 0.304687,0.703125 0.691406,0.703125 0.222656,0 0.785156,-0.140625 0.785156,-0.85546875 v -0.5039062 h -0.257812 v 0.49218745 c 0,0.10546875 0,0.55078125 -0.316406,0.55078125 -0.328125,0 -0.328125,-0.43359375 -0.328125,-0.57421875 V -2.4012187 c 0,-0.515625 0,-0.8203125 -0.398438,-1.1835938 -0.328125,-0.2929687 -0.761719,-0.4335937 -1.207031,-0.4335937 -0.761719,0 -1.382813,0.375 -1.382813,0.9492187 0,0.28125 0.1875,0.4335938 0.421875,0.4335938 0.234375,0 0.410157,-0.1757813 0.410157,-0.4101563 0,-0.3867187 -0.398438,-0.4335937 -0.398438,-0.4335937 0.234375,-0.234375 0.667969,-0.3164063 0.925781,-0.3164063 0.457032,0 0.972657,0.3398438 0.972657,1.1367188 v 0.2929687 c -0.492188,0.023437 -1.160157,0.058594 -1.757813,0.3515625 -0.644531,0.3164063 -0.84375,0.7734375 -0.84375,1.13671875 0,0.73828125 0.867188,0.97265625 1.464844,0.97265625 0.75,0 1.089844,-0.4921875 1.21875,-0.73828125 z M 12.970555,-1.2645 c 0,0.8671875 -0.679688,1.13671875 -1.066407,1.13671875 -0.421875,0 -0.820312,-0.3046875 -0.820312,-0.75 0,-0.58593745 0.515625,-1.21874995 1.886719,-1.27734375 z m 5.112304,0.1875 c 0,0.1640625 0,0.1875 -0.140625,0.375 -0.28125,0.41015625 -0.691406,0.57421875 -1.042968,0.57421875 -0.386719,0 -0.75,-0.2109375 -0.984375,-0.5859375 C 15.680516,-1.1004375 15.668797,-1.6277812 15.668797,-1.92075 c 0,-0.421875 0.04687,-0.890625 0.28125,-1.2539062 0.199219,-0.28125 0.5625,-0.5625 1.042969,-0.5625 0.375,0 0.738281,0.1875 0.972656,0.5273437 0.117187,0.140625 0.117187,0.1523438 0.117187,0.328125 z m 0.02344,-2.3554687 c -0.04687,-0.058594 -0.445313,-0.5273438 -1.148438,-0.5273438 -1.101562,0 -2.0625,0.8789063 -2.0625,2.0390625 0,1.11328125 0.902344,2.015625 1.96875,2.015625 0.644532,0 1.054688,-0.375 1.21875,-0.57421875 V 0.094875 l 1.347657,-0.09375 v -0.28125 c -0.609375,0 -0.691407,-0.0585938 -0.691407,-0.50390625 V -6.2215312 l -1.324218,0.1054687 v 0.2695313 c 0.609375,0 0.691406,0.070312 0.691406,0.5039062 z m 3.199219,1.3828125 c 0,-0.375 0.105468,-1.6875 1.125,-1.6875 v 0.011719 c -0.02344,0.011719 -0.164063,0.1171875 -0.164063,0.328125 0,0.2460938 0.1875,0.3984375 0.398438,0.3984375 0.1875,0 0.386718,-0.140625 0.386718,-0.4101562 0,-0.28125 -0.269531,-0.5507813 -0.667968,-0.5507813 -0.539063,0 -0.914063,0.375 -1.125,0.9257813 v -0.9257813 l -1.277344,0.09375 v 0.28125 c 0.609375,0 0.691406,0.058594 0.691406,0.5039063 v 2.39062495 c 0,0.41015625 -0.105469,0.41015625 -0.691406,0.41015625 v 0.28125 c 0.46875,-0.0234375 0.585937,-0.0234375 1.042969,-0.0234375 0.363281,0 0.574218,0 1.148437,0.0234375 v -0.28125 h -0.1875 c -0.65625,0 -0.679687,-0.09375 -0.679687,-0.421875 z m 5.080078,1.40624995 c 0.03516,0.375 0.304687,0.703125 0.691406,0.703125 0.222656,0 0.785156,-0.140625 0.785156,-0.85546875 v -0.5039062 h -0.257812 v 0.49218745 c 0,0.10546875 0,0.55078125 -0.316407,0.55078125 -0.328125,0 -0.328125,-0.43359375 -0.328125,-0.57421875 V -2.4012187 c 0,-0.515625 0,-0.8203125 -0.398437,-1.1835938 -0.328125,-0.2929687 -0.761719,-0.4335937 -1.207031,-0.4335937 -0.761719,0 -1.382813,0.375 -1.382813,0.9492187 0,0.28125 0.1875,0.4335938 0.421875,0.4335938 0.234375,0 0.410156,-0.1757813 0.410156,-0.4101563 0,-0.3867187 -0.398437,-0.4335937 -0.398437,-0.4335937 0.234375,-0.234375 0.667969,-0.3164063 0.925781,-0.3164063 0.457031,0 0.972656,0.3398438 0.972656,1.1367188 v 0.2929687 c -0.492187,0.023437 -1.160156,0.058594 -1.757812,0.3515625 -0.644531,0.3164063 -0.84375,0.7734375 -0.84375,1.13671875 0,0.73828125 0.867187,0.97265625 1.464844,0.97265625 0.75,0 1.089843,-0.4921875 1.21875,-0.73828125 z M 26.303562,-1.2645 c 0,0.8671875 -0.679687,1.13671875 -1.066406,1.13671875 -0.421875,0 -0.820312,-0.3046875 -0.820312,-0.75 0,-0.58593745 0.515625,-1.21874995 1.886718,-1.27734375 z m 5.112305,0.1875 c 0,0.1640625 0,0.1875 -0.140625,0.375 -0.28125,0.41015625 -0.691406,0.57421875 -1.042969,0.57421875 -0.386718,0 -0.75,-0.2109375 -0.984375,-0.5859375 C 29.013523,-1.1004375 29.001805,-1.6277812 29.001805,-1.92075 c 0,-0.421875 0.04687,-0.890625 0.28125,-1.2539062 0.199218,-0.28125 0.5625,-0.5625 1.042968,-0.5625 0.375,0 0.738282,0.1875 0.972657,0.5273437 0.117187,0.140625 0.117187,0.1523438 0.117187,0.328125 z m 0.02344,-2.3554687 c -0.04687,-0.058594 -0.445313,-0.5273438 -1.148438,-0.5273438 -1.101562,0 -2.0625,0.8789063 -2.0625,2.0390625 0,1.11328125 0.902344,2.015625 1.96875,2.015625 0.644531,0 1.054688,-0.375 1.21875,-0.57421875 V 0.094875 l 1.347656,-0.09375 v -0.28125 c -0.609375,0 -0.691406,-0.0585938 -0.691406,-0.50390625 V -6.2215312 L 30.7479,-6.1160625 v 0.2695313 c 0.609375,0 0.691407,0.070312 0.691407,0.5039062 z m 4.672851,2.78906245 c 0.03516,0.375 0.304688,0.703125 0.691406,0.703125 0.222657,0 0.785157,-0.140625 0.785157,-0.85546875 v -0.5039062 h -0.257813 v 0.49218745 c 0,0.10546875 0,0.55078125 -0.316406,0.55078125 -0.328125,0 -0.328125,-0.43359375 -0.328125,-0.57421875 V -2.4012187 c 0,-0.515625 0,-0.8203125 -0.398438,-1.1835938 -0.328125,-0.2929687 -0.761718,-0.4335937 -1.207031,-0.4335937 -0.761719,0 -1.382812,0.375 -1.382812,0.9492187 0,0.28125 0.1875,0.4335938 0.421875,0.4335938 0.234375,0 0.410156,-0.1757813 0.410156,-0.4101563 0,-0.3867187 -0.398438,-0.4335937 -0.398438,-0.4335937 0.234375,-0.234375 0.667969,-0.3164063 0.925782,-0.3164063 0.457031,0 0.972656,0.3398438 0.972656,1.1367188 v 0.2929687 c -0.492188,0.023437 -1.160156,0.058594 -1.757813,0.3515625 -0.644531,0.3164063 -0.84375,0.7734375 -0.84375,1.13671875 0,0.73828125 0.867188,0.97265625 1.464844,0.97265625 0.75,0 1.089844,-0.4921875 1.21875,-0.73828125 z M 36.030125,-1.2645 c 0,0.8671875 -0.679688,1.13671875 -1.066406,1.13671875 -0.421875,0 -0.820313,-0.3046875 -0.820313,-0.75 0,-0.58593745 0.515625,-1.21874995 1.886719,-1.27734375 z M -1.563625,8.907375 c 0.1992187,0 0.2460937,0 0.2460937,-0.1875 0,-0.9257812 -0.5039062,-1.78125 -1.6523437,-1.78125 -1.078125,0 -1.921875,0.9375 -1.921875,2.0507813 0,1.1718747 0.9492187,2.0624997 2.0390625,2.0624997 1.0898437,0 1.5351562,-0.949218 1.5351562,-1.160156 0,-0.058594 -0.046875,-0.1171875 -0.1289062,-0.1171875 -0.09375,0 -0.1171875,0.058594 -0.1289063,0.09375 -0.3046875,0.9140625 -1.1015625,0.9375005 -1.2304687,0.9375005 -0.4335938,0 -0.796875,-0.246094 -1.0078125,-0.550782 C -4.1065938,9.8214375 -4.1183125,9.282375 -4.1183125,8.907375 Z M -4.1065938,8.6847188 c 0.082031,-1.3710938 0.8789063,-1.5234375 1.1367188,-1.5234375 0.4921875,0 1.03125,0.3867187 1.0429687,1.5234375 z M 5.1072734,7.173 c 0,-0.1523437 0,-0.234375 -0.1054687,-0.234375 -0.046875,0 -0.058594,0 -0.1757813,0.1054688 -0.023437,0.023437 -0.1054687,0.1054687 -0.1523437,0.1523437 -0.28125,-0.1992187 -0.5625,-0.2578125 -0.8671875,-0.2578125 -1.1835938,0 -1.4765625,0.65625 -1.4765625,1.1132813 0,0.2929687 0.1289062,0.5273437 0.328125,0.7148437 0.3046875,0.28125 0.6445312,0.3398438 1.1015625,0.421875 0.4570312,0.09375 0.609375,0.1171875 0.8085937,0.2695313 0.09375,0.070312 0.3164063,0.2460937 0.3164063,0.5859377 0,0.785156 -0.9023438,0.785156 -1.03125,0.785156 -0.9140625,0 -1.1484375,-0.761719 -1.2539063,-1.2421875 -0.023437,-0.09375 -0.035156,-0.140625 -0.140625,-0.140625 -0.1289062,0 -0.1289062,0.070312 -0.1289062,0.234375 V 10.82925 c 0,0.152344 0,0.222656 0.1054687,0.222656 0.058594,0 0.070312,0 0.2226563,-0.175781 0.035156,-0.04687 0.140625,-0.164062 0.1875,-0.210937 0.375,0.363281 0.7851562,0.386718 1.0078125,0.386718 1.1015625,0 1.4882812,-0.644531 1.4882812,-1.2421872 0,-0.3984375 -0.1757812,-0.6445313 -0.375,-0.8554688 C 4.6619609,8.6612813 4.3338359,8.6026875 3.6775859,8.4737813 3.4432109,8.4269063 2.7869609,8.3097188 2.7869609,7.8058125 c 0,-0.2929687 0.2109375,-0.6679687 1.0195313,-0.6679687 0.9726562,0 1.03125,0.75 1.0546875,0.9726562 0.011719,0.1054688 0.011719,0.1640625 0.1171875,0.1640625 0.1289062,0 0.1289062,-0.070312 0.1289062,-0.234375 z m 2.2060547,-0.1757812 -1.2890625,0.09375 v 0.28125 c 0.5742188,0 0.6445313,0.058594 0.6445313,0.4921875 V 10.26675 c 0,0.410156 -0.09375,0.410156 -0.6796875,0.410156 v 0.28125 c 0.3984375,-0.02344 0.5859375,-0.02344 0.984375,-0.02344 0.140625,0 0.515625,0 0.9609375,0.02344 v -0.28125 c -0.5859375,0 -0.6210938,-0.04687 -0.6210938,-0.386718 z M 7.3367656,5.438625 c 0,-0.2695312 -0.2109375,-0.4921875 -0.4804687,-0.4921875 -0.28125,0 -0.4921875,0.234375 -0.4921875,0.4921875 0,0.2578125 0.2109375,0.4804688 0.4921875,0.4804688 0.2695312,0 0.4804687,-0.2109375 0.4804687,-0.4804688 z m 2.5488281,3.1992188 c 0,-0.9726563 0.7031253,-1.4179688 1.2421873,-1.4179688 0.492188,0 0.65625,0.3515625 0.65625,0.9726563 V 10.26675 c 0,0.410156 -0.105469,0.410156 -0.691406,0.410156 v 0.28125 c 0.421875,-0.02344 0.585937,-0.02344 1.019531,-0.02344 0.433594,0 0.550781,0 1.019531,0.02344 v -0.28125 c -0.585937,0 -0.691406,0 -0.691406,-0.410156 V 8.6378438 c 0,-0.9726563 0.703125,-1.4179688 1.242188,-1.4179688 0.492187,0 0.65625,0.3515625 0.65625,0.9726563 V 10.26675 c 0,0.410156 -0.105469,0.410156 -0.691407,0.410156 v 0.28125 c 0.421875,-0.02344 0.585938,-0.02344 1.019532,-0.02344 0.433593,0 0.550781,0 1.019531,0.02344 v -0.28125 c -0.457031,0 -0.679688,0 -0.691406,-0.269531 V 8.6847188 c 0,-0.7851563 0,-1.03125 -0.292969,-1.3710938 -0.1875,-0.2109375 -0.550781,-0.3164062 -0.960938,-0.3164062 -0.644531,0 -1.078125,0.375 -1.335937,0.8554687 -0.105469,-0.5390625 -0.46875,-0.8554687 -1.21875,-0.8554687 -0.714844,0 -1.148438,0.46875 -1.3476563,0.8789062 V 6.9972188 l -1.3007812,0.09375 v 0.28125 c 0.609375,0 0.6914062,0.058594 0.6914062,0.5039062 v 2.390625 c 0,0.410156 -0.1054687,0.410156 -0.6914062,0.410156 v 0.28125 c 0.421875,-0.02344 0.5859375,-0.02344 1.0195312,-0.02344 0.4335938,0 0.5507813,0 1.0195313,0.02344 v -0.28125 c -0.5859375,0 -0.6914063,0 -0.6914063,-0.410156 z M 19.061375,5.344875 c 0.117187,-0.09375 0.1875,-0.1640625 0.1875,-0.2929687 0,-0.2109375 -0.175781,-0.3515625 -0.339844,-0.3515625 -0.152344,0 -0.199219,0.058594 -0.269531,0.1640625 l -1.101563,1.3476562 0.175782,0.1875 z m 0.424805,3.5625 c 0.199218,0 0.246093,0 0.246093,-0.1875 0,-0.9257812 -0.503906,-1.78125 -1.652343,-1.78125 -1.078125,0 -1.921875,0.9375 -1.921875,2.0507813 0,1.1718747 0.949218,2.0624997 2.039062,2.0624997 1.089844,0 1.535156,-0.949218 1.535156,-1.160156 0,-0.058594 -0.04687,-0.1171875 -0.128906,-0.1171875 -0.09375,0 -0.117187,0.058594 -0.128906,0.09375 -0.304688,0.9140625 -1.101563,0.9375005 -1.230469,0.9375005 -0.433594,0 -0.796875,-0.246094 -1.007812,-0.550782 C 16.943211,9.8214375 16.931492,9.282375 16.931492,8.907375 Z M 16.943211,8.6847188 c 0.08203,-1.3710938 0.878906,-1.5234375 1.136719,-1.5234375 0.492187,0 1.03125,0.3867187 1.042968,1.5234375 z m 5.973633,-1.3125 v -0.28125 H 21.616062 V 5.4503438 H 21.35825 c 0,0.75 -0.316406,1.6757812 -1.183594,1.6992187 v 0.2226563 h 0.773438 V 9.844875 c 0,1.007813 0.726562,1.207031 1.207031,1.207031 0.597656,0 0.914062,-0.574218 0.914062,-1.207031 V 9.3409688 h -0.257812 v 0.4804687 c 0,0.6562505 -0.28125,0.9843755 -0.597656,0.9843755 -0.597657,0 -0.597657,-0.785157 -0.597657,-0.9492192 v -2.484375 z m 2.258789,1.5351562 c 0,-0.375 0.105469,-1.6875 1.125,-1.6875 v 0.011719 c -0.02344,0.011719 -0.164063,0.1171875 -0.164063,0.328125 0,0.2460937 0.1875,0.3984375 0.398438,0.3984375 0.1875,0 0.386719,-0.140625 0.386719,-0.4101563 0,-0.28125 -0.269532,-0.5507812 -0.667969,-0.5507812 -0.539063,0 -0.914063,0.375 -1.125,0.9257812 V 6.9972188 l -1.277344,0.09375 v 0.28125 c 0.609375,0 0.691406,0.058594 0.691406,0.5039062 v 2.390625 c 0,0.410156 -0.105468,0.410156 -0.691406,0.410156 v 0.28125 c 0.46875,-0.02344 0.585938,-0.02344 1.042969,-0.02344 0.363281,0 0.574219,0 1.148437,0.02344 v -0.28125 h -0.1875 c -0.65625,0 -0.679687,-0.09375 -0.679687,-0.421875 z m 3.665039,-1.9101562 -1.289063,0.09375 v 0.28125 c 0.574219,0 0.644532,0.058594 0.644532,0.4921875 V 10.26675 c 0,0.410156 -0.09375,0.410156 -0.679688,0.410156 v 0.28125 c 0.398438,-0.02344 0.585938,-0.02344 0.984375,-0.02344 0.140625,0 0.515625,0 0.960938,0.02344 v -0.28125 c -0.585938,0 -0.621094,-0.04687 -0.621094,-0.386718 z m 0.02344,-1.5585938 c 0,-0.2695312 -0.210937,-0.4921875 -0.480468,-0.4921875 -0.28125,0 -0.492188,0.234375 -0.492188,0.4921875 0,0.2578125 0.210938,0.4804688 0.492188,0.4804688 0.269531,0 0.480468,-0.2109375 0.480468,-0.4804688 z m 4.139649,1.9921875 c -0.1875,0.035156 -0.363281,0.1640625 -0.363281,0.421875 0,0.234375 0.175781,0.421875 0.410156,0.421875 0.234375,0 0.421875,-0.1640625 0.421875,-0.4335937 0,-0.5625 -0.621094,-0.9023438 -1.417969,-0.9023438 -1.148437,0 -2.003906,0.9609375 -2.003906,2.0859375 0,1.1484375 0.9375,2.0273435 1.992187,2.0273435 1.242188,0 1.535157,-1.0781247 1.535157,-1.160156 0,-0.1054687 -0.105469,-0.1054687 -0.128907,-0.1054687 -0.09375,0 -0.09375,0.011719 -0.152343,0.1640625 -0.210938,0.6210942 -0.703125,0.8554692 -1.171875,0.8554692 -0.5625,0 -1.300782,-0.46875 -1.300782,-1.7929692 0,-1.3945313 0.714844,-1.8164063 1.253907,-1.8164063 0.117187,0 0.597656,0.011719 0.925781,0.234375 z m 3.911133,2.8828125 c 0.03516,0.375 0.304687,0.703125 0.691406,0.703125 0.222656,0 0.785156,-0.140625 0.785156,-0.855469 V 9.657375 h -0.257812 v 0.492188 c 0,0.105468 0,0.550781 -0.316407,0.550781 -0.328125,0 -0.328125,-0.433594 -0.328125,-0.574219 V 8.5558125 c 0,-0.515625 0,-0.8203125 -0.398437,-1.1835937 C 36.762547,7.07925 36.328953,6.938625 35.883641,6.938625 c -0.761719,0 -1.382813,0.375 -1.382813,0.9492188 0,0.28125 0.1875,0.4335937 0.421875,0.4335937 0.234375,0 0.410156,-0.1757812 0.410156,-0.4101562 0,-0.3867188 -0.398437,-0.4335938 -0.398437,-0.4335938 0.234375,-0.234375 0.667969,-0.3164062 0.925781,-0.3164062 0.457031,0 0.972656,0.3398437 0.972656,1.1367187 v 0.2929688 c -0.492187,0.023437 -1.160156,0.058594 -1.757812,0.3515625 -0.644531,0.3164062 -0.84375,0.7734375 -0.84375,1.1367187 0,0.738281 0.867187,0.972656 1.464844,0.972656 0.75,0 1.089843,-0.492187 1.21875,-0.738281 z m -0.08203,-0.6210937 c 0,0.8671877 -0.679687,1.1367187 -1.066406,1.1367187 -0.421875,0 -0.820312,-0.304687 -0.820312,-0.75 0,-0.5859375 0.515625,-1.21875 1.886718,-1.2773437 z m 3.539063,-0.5742188 c 0,0.070312 0,0.140625 0.117187,0.140625 0.128907,0 0.128907,-0.058594 0.128907,-0.2226562 V 8.76675 c 0,-0.8554687 0.46875,-1.5117187 1.136718,-1.9804687 0.28125,-0.1992188 0.527344,-0.46875 0.527344,-0.9257813 0,-0.5507812 -0.386719,-1.21875 -1.757812,-1.21875 -0.984375,0 -1.558594,0.5976563 -1.558594,1.1835938 0,0.3164062 0.210937,0.4453125 0.421875,0.4453125 0.222656,0 0.410156,-0.1757813 0.410156,-0.4101563 0,-0.1523437 -0.07031,-0.421875 -0.46875,-0.421875 0.304688,-0.515625 0.914063,-0.5742187 1.183594,-0.5742187 0.984375,0 0.996094,0.5859375 0.996094,0.9492187 0,0.5039063 -0.164063,0.6796875 -0.316407,0.8320313 -0.820312,0.84375 -0.820312,1.8515625 -0.820312,2.2265625 z m 0.609375,1.3593755 c 0,-0.269532 -0.222656,-0.492188 -0.492188,-0.492188 -0.269531,0 -0.480468,0.222656 -0.480468,0.492188 0,0.269531 0.210937,0.480468 0.480468,0.480468 0.269532,0 0.492188,-0.210937 0.492188,-0.480468 z m 0,0"
       style="fill:#000000;fill-opacity:1;fill-rule:nonzero;stroke:none"
       aria-label="quadrada&#10;esim´etrica?"
       transform="matrix(1.3333333,0,0,1.3333333,269.89733,111.936)" />
    <path
       id="path7"
       d="M 362.98856,86.11845 H 260.63322 c -1.65068,0 -2.98878,-1.3381 -2.98878,-2.98878 V 47.26416 c 0,-1.65068 1.3381,-2.9888 2.98878,-2.9888 h 102.35534 c 1.65069,0 2.9888,1.33812 2.9888,2.9888 v 35.86551 c 0,1.65068 -1.33811,2.98878 -2.9888,2.98878 z"
       style="fill:#fdefef;fill-opacity:1;fill-rule:nonzero;stroke:#e03c31;stroke-width:0.39851;stroke-linecap:butt;stroke-linejoin:miter;stroke-miterlimit:10;stroke-dasharray:none;stroke-opacity:1"
       transform="matrix(1.3333333,0,0,-1.3333333,102.24133,115.09067)" />
    <g
       id="g7"
       aria-label="TeoremaEspectral&#10;(Aula4):&#10;A=QΛQ&#10;T"
       transform="matrix(1.3333333,0,0,1.3333333,467.66267,16.538667)">
      <path
         id="path8"
         d="M 6.1299531,-6.0700156 H 0.51667187 l -0.1875,2.015625 h 0.2578125 c 0.1171875,-1.4765625 0.3046875,-1.734375 1.64062503,-1.734375 0.1757812,0 0.4335937,0 0.5273437,0.011719 0.1640625,0.035156 0.1640625,0.1289063 0.1640625,0.3515625 v 4.71093753 c 0,0.3046875 0,0.43359375 -0.9375,0.43359375 H 1.6299531 V 2.96875e-4 c 0.328125,-0.023437495 1.3125,-0.023437495 1.6992188,-0.023437495 0.3867187,0 1.3710937,0 1.6875,0.023437495 V -0.28095312 H 4.6768281 c -0.9492187,0 -0.9492187,-0.12890625 -0.9492187,-0.43359375 V -5.4254844 c 0,-0.234375 0.011719,-0.3164062 0.1875,-0.3515625 0.09375,-0.011719 0.3398437,-0.011719 0.4921875,-0.011719 1.3476562,0 1.5234375,0.2578125 1.6523437,1.734375 h 0.2578125 z m 3.3398438,4.0195312 c 0.1992187,0 0.2460937,0 0.2460937,-0.1875 0,-0.9257812 -0.5039062,-1.78125 -1.6523437,-1.78125 -1.078125,0 -1.921875,0.9375 -1.921875,2.0507813 0,1.17187498 0.9492187,2.06249998 2.0390625,2.06249998 1.0898437,0 1.5351562,-0.94921875 1.5351562,-1.16015628 0,-0.058594 -0.046875,-0.1171875 -0.1289062,-0.1171875 -0.09375,0 -0.1171875,0.058594 -0.1289063,0.09375 -0.3046875,0.91406253 -1.1015625,0.93750003 -1.2304687,0.93750003 -0.4335938,0 -0.796875,-0.24609375 -1.0078125,-0.55078125 C 6.9268281,-1.1364219 6.9151094,-1.6754844 6.9151094,-2.0504844 Z M 6.9268281,-2.2731406 c 0.082031,-1.3710938 0.8789063,-1.5234375 1.1367188,-1.5234375 0.4921875,0 1.03125,0.3867187 1.0429687,1.5234375 z m 7.3945309,0.3632812 c 0,-1.171875 -0.925781,-2.109375 -2.027343,-2.109375 -1.148438,0 -2.050782,0.9609375 -2.050782,2.109375 0,1.12500003 0.9375,2.00390628 2.039063,2.00390628 1.136719,0 2.039062,-0.90234375 2.039062,-2.00390628 z m -2.027343,1.75781253 c -0.457032,0 -0.832032,-0.22265625 -1.03125,-0.57421875 -0.234375,-0.37499998 -0.246094,-0.85546878 -0.246094,-1.26562498 0,-0.328125 0,-0.84375 0.222656,-1.2070313 0.269531,-0.4570312 0.714844,-0.5976562 1.042969,-0.5976562 0.503906,0 0.878906,0.2929687 1.054687,0.5976562 0.210938,0.375 0.210938,0.8320313 0.210938,1.2070313 0,0.328125 0,0.8554687 -0.222656,1.25390623 -0.246094,0.41015625 -0.65625,0.5859375 -1.03125,0.5859375 z m 3.890625,-1.89843753 c 0,-0.375 0.105468,-1.6875 1.125,-1.6875 v 0.011719 c -0.02344,0.011719 -0.164063,0.1171875 -0.164063,0.328125 0,0.2460937 0.1875,0.3984375 0.398438,0.3984375 0.1875,0 0.386718,-0.140625 0.386718,-0.4101563 0,-0.28125 -0.269531,-0.5507812 -0.667968,-0.5507812 -0.539063,0 -0.914063,0.375 -1.125,0.9257812 v -0.9257812 l -1.277344,0.09375 v 0.28125 c 0.609375,0 0.691406,0.058594 0.691406,0.5039062 v 2.39062503 c 0,0.41015625 -0.105469,0.41015625 -0.691406,0.41015625 V 2.96875e-4 c 0.46875,-0.023437495 0.585937,-0.023437495 1.042969,-0.023437495 0.363281,0 0.574218,0 1.148437,0.023437495 V -0.28095312 h -0.1875 c -0.65625,0 -0.679687,-0.09375 -0.679687,-0.421875 z m 5.598632,0 c 0.199219,0 0.246094,0 0.246094,-0.1875 0,-0.9257812 -0.503906,-1.78125 -1.652344,-1.78125 -1.078125,0 -1.921875,0.9375 -1.921875,2.0507813 0,1.17187498 0.949219,2.06249998 2.039063,2.06249998 1.089844,0 1.535156,-0.94921875 1.535156,-1.16015628 0,-0.058594 -0.04687,-0.1171875 -0.128906,-0.1171875 -0.09375,0 -0.117188,0.058594 -0.128906,0.09375 -0.304688,0.91406253 -1.101563,0.93750003 -1.230469,0.93750003 -0.433594,0 -0.796875,-0.24609375 -1.007813,-0.55078125 C 19.240305,-1.1364219 19.228586,-1.6754844 19.228586,-2.0504844 Z m -2.542968,-0.2226562 c 0.08203,-1.3710938 0.878906,-1.5234375 1.136718,-1.5234375 0.492188,0 1.03125,0.3867187 1.042969,1.5234375 z m 4.719726,-0.046875 c 0,-0.9726563 0.703125,-1.4179688 1.242188,-1.4179688 0.492187,0 0.65625,0.3515625 0.65625,0.9726563 v 2.07421873 c 0,0.41015625 -0.105469,0.41015625 -0.691407,0.41015625 V 2.96875e-4 C 25.588937,-0.02314062 25.753,-0.02314062 26.186594,-0.02314062 c 0.433593,0 0.550781,0 1.019531,0.023437495 V -0.28095312 c -0.585938,0 -0.691406,0 -0.691406,-0.41015625 V -2.3200156 c 0,-0.9726563 0.703125,-1.4179688 1.242187,-1.4179688 0.492188,0 0.65625,0.3515625 0.65625,0.9726563 v 2.07421873 c 0,0.41015625 -0.105469,0.41015625 -0.691406,0.41015625 V 2.96875e-4 c 0.421875,-0.023437495 0.585937,-0.023437495 1.019531,-0.023437495 0.433594,0 0.550781,0 1.019531,0.023437495 V -0.28095312 c -0.457031,0 -0.679687,0 -0.691406,-0.26953125 V -2.2731406 c 0,-0.7851563 0,-1.03125 -0.292969,-1.3710938 -0.1875,-0.2109375 -0.550781,-0.3164062 -0.960937,-0.3164062 -0.644531,0 -1.078125,0.375 -1.335938,0.8554687 -0.105468,-0.5390625 -0.46875,-0.8554687 -1.21875,-0.8554687 -0.714843,0 -1.148437,0.46875 -1.347656,0.8789062 v -0.8789062 l -1.300781,0.09375 v 0.28125 c 0.609375,0 0.691406,0.058594 0.691406,0.5039062 v 2.39062503 c 0,0.41015625 -0.105469,0.41015625 -0.691406,0.41015625 V 2.96875e-4 c 0.421875,-0.023437495 0.585937,-0.023437495 1.019531,-0.023437495 0.433594,0 0.550781,0 1.019531,0.023437495 V -0.28095312 c -0.585937,0 -0.691406,0 -0.691406,-0.41015625 z m 9.084961,1.67578123 c 0.03516,0.375 0.304688,0.703125 0.691406,0.703125 0.222657,0 0.785157,-0.140625 0.785157,-0.85546875 V -1.3004844 h -0.257813 v 0.49218753 c 0,0.10546875 0,0.55078125 -0.316406,0.55078125 -0.328125,0 -0.328125,-0.43359375 -0.328125,-0.57421875 V -2.4020469 c 0,-0.515625 0,-0.8203125 -0.398438,-1.1835937 -0.328125,-0.2929688 -0.761718,-0.4335938 -1.207031,-0.4335938 -0.761719,0 -1.382812,0.375 -1.382812,0.9492188 0,0.28125 0.1875,0.4335937 0.421875,0.4335937 0.234375,0 0.410156,-0.1757812 0.410156,-0.4101562 0,-0.3867188 -0.398438,-0.4335938 -0.398438,-0.4335938 0.234375,-0.234375 0.667969,-0.3164062 0.925782,-0.3164062 0.457031,0 0.972656,0.3398437 0.972656,1.1367187 v 0.2929688 c -0.492188,0.023437 -1.160156,0.058594 -1.757813,0.3515625 -0.644531,0.3164062 -0.84375,0.7734375 -0.84375,1.13671873 0,0.73828125 0.867188,0.97265625 1.464844,0.97265625 0.75,0 1.089844,-0.4921875 1.21875,-0.73828125 z m -0.08203,-0.62109373 c 0,0.86718748 -0.679688,1.13671873 -1.066406,1.13671873 -0.421875,0 -0.820313,-0.3046875 -0.820313,-0.75 0,-0.58593753 0.515625,-1.21875003 1.886719,-1.27734373 z m 10.192383,-4.828125 h -5.15625 v 0.28125 h 0.210937 c 0.691406,0 0.703125,0.09375 0.703125,0.421875 v 4.68749998 c 0,0.328125 -0.01172,0.421875 -0.703125,0.421875 H 37.999094 V 2.96875e-4 h 5.273437 L 43.65925,-2.3082969 h -0.257813 c -0.222656,1.38281253 -0.457031,2.02734378 -1.980468,2.02734378 h -1.265625 c -0.421875,0 -0.433594,-0.0585938 -0.433594,-0.36328125 V -3.0348594 h 0.832031 c 0.878906,0 0.984375,0.28125 0.984375,1.0546875 h 0.257813 v -2.3789062 h -0.257813 c 0,0.7734375 -0.105469,1.0546875 -0.984375,1.0546875 H 39.72175 v -2.1445313 c 0,-0.3046875 0.01172,-0.3632812 0.433594,-0.3632812 h 1.207031 c 1.394531,0 1.652344,0.4804687 1.792969,1.734375 h 0.246093 z m 3.855468,2.3085937 c 0,-0.1523437 0,-0.234375 -0.105468,-0.234375 -0.04687,0 -0.05859,0 -0.175782,0.1054688 -0.02344,0.023437 -0.105468,0.1054687 -0.152343,0.1523437 -0.28125,-0.1992187 -0.5625,-0.2578125 -0.867188,-0.2578125 -1.183594,0 -1.476562,0.65625 -1.476562,1.1132813 0,0.2929687 0.128906,0.5273437 0.328125,0.7148437 0.304687,0.28125 0.644531,0.3398438 1.101562,0.421875 0.457031,0.09375 0.609375,0.1171875 0.808594,0.2695313 0.09375,0.070312 0.316406,0.2460937 0.316406,0.58593748 0,0.78515625 -0.902344,0.78515625 -1.03125,0.78515625 -0.914062,0 -1.148437,-0.76171875 -1.253906,-1.24218753 -0.02344,-0.09375 -0.03516,-0.140625 -0.140625,-0.140625 -0.128906,0 -0.128906,0.070312 -0.128906,0.234375 v 1.14843753 c 0,0.15234375 0,0.22265625 0.105468,0.22265625 0.05859,0 0.07031,0 0.222657,-0.17578125 0.03516,-0.046875 0.140625,-0.1640625 0.1875,-0.2109375 0.375,0.36328125 0.785156,0.38671875 1.007812,0.38671875 1.101563,0 1.488281,-0.64453125 1.488281,-1.24218748 0,-0.3984375 -0.175781,-0.6445313 -0.375,-0.8554688 C 46.5655,-2.2965781 46.237375,-2.3551719 45.581125,-2.4840781 45.34675,-2.5309531 44.6905,-2.6481406 44.6905,-3.1520469 c 0,-0.2929687 0.210937,-0.6679687 1.019531,-0.6679687 0.972656,0 1.03125,0.75 1.054688,0.9726562 0.01172,0.1054688 0.01172,0.1640625 0.117187,0.1640625 0.128906,0 0.128906,-0.070312 0.128906,-0.234375 z m 2.170899,0.7734375 c 0.304687,-0.515625 0.808594,-0.703125 1.183594,-0.703125 0.691406,0 1.230468,0.8085938 1.230468,1.78125 0,1.01953128 -0.609375,1.80468753 -1.335937,1.80468753 -0.398438,0 -0.738281,-0.234375 -0.960938,-0.5390625 -0.117187,-0.1875 -0.117187,-0.19921875 -0.117187,-0.37500003 z m 0,2.57812503 c 0.234375,0.234375 0.539062,0.52734375 1.136719,0.52734375 1.066406,0 2.050781,-0.85546875 2.050781,-2.02734378 0,-1.1367187 -0.878906,-2.0273437 -1.933594,-2.0273437 -0.492187,0 -0.9375,0.1992187 -1.277344,0.5625 v -0.5625 l -1.324218,0.09375 v 0.28125 c 0.632812,0 0.691406,0.058594 0.691406,0.4335937 v 4.2070313 c 0,0.4101562 -0.105469,0.4101562 -0.691406,0.4101562 v 0.2695313 c 0.421875,-0.011719 0.585937,-0.023437 1.019531,-0.023437 0.433594,0 0.550781,0.011719 1.019531,0.023437 V 1.4651406 c -0.585937,0 -0.691406,0 -0.691406,-0.4101562 z m 7.338867,-1.61718753 c 0.199219,0 0.246094,0 0.246094,-0.1875 0,-0.9257812 -0.503906,-1.78125 -1.652344,-1.78125 -1.078125,0 -1.921875,0.9375 -1.921875,2.0507813 0,1.17187498 0.949219,2.06249998 2.039063,2.06249998 1.089843,0 1.535156,-0.94921875 1.535156,-1.16015628 0,-0.058594 -0.04687,-0.1171875 -0.128906,-0.1171875 -0.09375,0 -0.117188,0.058594 -0.128907,0.09375 -0.304687,0.91406253 -1.101562,0.93750003 -1.230468,0.93750003 -0.433594,0 -0.796875,-0.24609375 -1.007813,-0.55078125 C 53.977609,-1.1364219 53.965891,-1.6754844 53.965891,-2.0504844 Z M 53.97761,-2.2731406 c 0.08203,-1.3710938 0.878907,-1.5234375 1.136719,-1.5234375 0.492188,0 1.03125,0.3867187 1.042969,1.5234375 z m 6.316407,-1.2539063 c -0.1875,0.035156 -0.363282,0.1640625 -0.363282,0.421875 0,0.234375 0.175782,0.421875 0.410157,0.421875 0.234375,0 0.421875,-0.1640625 0.421875,-0.4335937 0,-0.5625 -0.621094,-0.9023438 -1.417969,-0.9023438 -1.148438,0 -2.003906,0.9609375 -2.003906,2.0859375 0,1.14843753 0.9375,2.02734378 1.992187,2.02734378 1.242188,0 1.535156,-1.078125 1.535156,-1.16015628 0,-0.1054687 -0.105468,-0.1054687 -0.128906,-0.1054687 -0.09375,0 -0.09375,0.011719 -0.152344,0.1640625 -0.210937,0.62109373 -0.703125,0.85546873 -1.171875,0.85546873 -0.5625,0 -1.300781,-0.46875 -1.300781,-1.79296873 0,-1.3945313 0.714844,-1.8164063 1.253906,-1.8164063 0.117188,0 0.597657,0.011719 0.925782,0.234375 z m 3.755859,-0.058594 v -0.28125 h -1.300781 v -1.640625 h -0.257813 c 0,0.75 -0.316406,1.6757812 -1.183594,1.6992187 v 0.2226563 h 0.773438 v 2.4726562 c 0,1.00781253 0.726562,1.20703128 1.207031,1.20703128 0.597656,0 0.914063,-0.57421875 0.914063,-1.20703128 v -0.5039062 h -0.257813 v 0.4804687 c 0,0.65625003 -0.28125,0.98437503 -0.597656,0.98437503 -0.597656,0 -0.597656,-0.78515625 -0.597656,-0.94921873 v -2.484375 z m 2.258789,1.5351562 c 0,-0.375 0.105469,-1.6875 1.125,-1.6875 v 0.011719 c -0.02344,0.011719 -0.164062,0.1171875 -0.164062,0.328125 0,0.2460937 0.1875,0.3984375 0.398437,0.3984375 0.1875,0 0.386719,-0.140625 0.386719,-0.4101563 0,-0.28125 -0.269531,-0.5507812 -0.667969,-0.5507812 -0.539062,0 -0.914062,0.375 -1.125,0.9257812 v -0.9257812 l -1.277344,0.09375 v 0.28125 c 0.609375,0 0.691407,0.058594 0.691407,0.5039062 v 2.39062503 c 0,0.41015625 -0.105469,0.41015625 -0.691407,0.41015625 V 2.96875e-4 c 0.46875,-0.023437495 0.585938,-0.023437495 1.042969,-0.023437495 0.363281,0 0.574219,0 1.148438,0.023437495 V -0.28095312 h -0.1875 c -0.65625,0 -0.679688,-0.09375 -0.679688,-0.421875 z m 5.080078,1.40625003 c 0.03516,0.375 0.304688,0.703125 0.691406,0.703125 0.222657,0 0.785157,-0.140625 0.785157,-0.85546875 V -1.3004844 h -0.257813 v 0.49218753 c 0,0.10546875 0,0.55078125 -0.316406,0.55078125 -0.328125,0 -0.328125,-0.43359375 -0.328125,-0.57421875 V -2.4020469 c 0,-0.515625 0,-0.8203125 -0.398438,-1.1835937 -0.328125,-0.2929688 -0.761718,-0.4335938 -1.207031,-0.4335938 -0.761719,0 -1.382812,0.375 -1.382812,0.9492188 0,0.28125 0.1875,0.4335937 0.421875,0.4335937 0.234375,0 0.410156,-0.1757812 0.410156,-0.4101562 0,-0.3867188 -0.398438,-0.4335938 -0.398438,-0.4335938 0.234375,-0.234375 0.667969,-0.3164062 0.925782,-0.3164062 0.457031,0 0.972656,0.3398437 0.972656,1.1367187 v 0.2929688 c -0.492188,0.023437 -1.160156,0.058594 -1.757813,0.3515625 -0.644531,0.3164062 -0.84375,0.7734375 -0.84375,1.13671873 0,0.73828125 0.867188,0.97265625 1.464844,0.97265625 0.75,0 1.089844,-0.4921875 1.21875,-0.73828155 z m -0.08203,-0.62109373 c 0,0.86718748 -0.679688,1.13671873 -1.066406,1.13671873 -0.421875,0 -0.820313,-0.3046875 -0.820313,-0.75 0,-0.58593753 0.515625,-1.21875003 1.886719,-1.27734373 z m 3.272461,-4.9570313 -1.324219,0.1054688 v 0.2695312 c 0.609375,0 0.679688,0.070312 0.679688,0.5039063 v 4.65234373 c 0,0.41015625 -0.09375,0.41015625 -0.679688,0.41015625 V 2.96875e-4 c 0.410156,-0.023437495 0.585938,-0.023437495 0.996094,-0.023437495 0.421875,0 0.574219,0 1.019531,0.023437495 V -0.28095312 c -0.597656,0 -0.691406,0 -0.691406,-0.41015625 z M 22.501047,13.090141 c 0,-0.04687 -0.02344,-0.07031 -0.08203,-0.128907 -1.160157,-1.066406 -1.511719,-2.671875 -1.511719,-4.2421871 0,-1.3945313 0.269531,-3.0820313 1.535156,-4.2773438 0.03516,-0.035156 0.05859,-0.070312 0.05859,-0.1054687 0,-0.070312 -0.04687,-0.1054688 -0.105469,-0.1054688 -0.105469,0 -0.914062,0.6445313 -1.40625,1.6289063 -0.421875,0.8554687 -0.644531,1.78125 -0.644531,2.8476562 0,0.6445313 0.08203,1.6640629 0.574219,2.7304689 0.527343,1.101562 1.371093,1.746094 1.476562,1.746094 0.05859,0 0.105469,-0.03516 0.105469,-0.09375 z M 26.69343,4.7229531 c -0.04687,-0.1171875 -0.07031,-0.1875 -0.210938,-0.1875 -0.152344,0 -0.164062,0.058594 -0.222656,0.1992188 l -1.921875,5.3320311 c -0.105469,0.292969 -0.316406,0.609375 -1.007813,0.609375 v 0.28125 c 0.339844,-0.02344 0.585938,-0.02344 0.914063,-0.02344 0.316406,0 0.515625,0 1.007812,0.02344 v -0.28125 c -0.503906,0 -0.65625,-0.28125 -0.65625,-0.457031 0,-0.08203 0.01172,-0.117188 0.03516,-0.164063 l 0.421875,-1.1601559 h 2.320312 l 0.480469,1.3593749 c 0.03516,0.08203 0.04687,0.117188 0.04687,0.152344 0,0.269531 -0.503906,0.269531 -0.738281,0.269531 v 0.28125 c 0.410156,-0.02344 0.878906,-0.02344 1.289062,-0.02344 0.398438,0 0.433594,0 1.171875,0.02344 v -0.28125 h -0.152344 c -0.550781,0 -0.65625,-0.08203 -0.738281,-0.328125 z m 0.574218,3.890625 h -2.121093 l 1.066406,-2.9296875 z m 6.219727,0.84375 c 0,0.7968749 -0.445313,1.3710939 -1.089844,1.3710939 -0.75,0 -0.796875,-0.386719 -0.796875,-0.8671876 V 6.9963906 L 30.253,7.0901406 v 0.28125 c 0.691406,0 0.691406,0.023437 0.691406,0.8203125 v 1.3476563 c 0,0.5859376 0,0.9609376 0.410156,1.2773436 0.257813,0.175781 0.621094,0.234375 0.984375,0.234375 0.46875,0 0.902344,-0.199219 1.160157,-0.738281 h 0.01172 v 0.738281 l 1.324219,-0.09375 v -0.28125 c -0.609375,0 -0.679687,-0.05859 -0.679687,-0.503906 V 6.9963906 l -1.359375,0.09375 v 0.28125 c 0.609375,0 0.691406,0.058594 0.691406,0.5039063 z m 3.222656,-4.7226562 -1.324219,0.1054687 v 0.2695313 c 0.609375,0 0.679688,0.070312 0.679688,0.5039062 v 4.6523439 c 0,0.410156 -0.09375,0.410156 -0.679688,0.410156 v 0.28125 c 0.410157,-0.02344 0.585938,-0.02344 0.996094,-0.02344 0.421875,0 0.574219,0 1.019531,0.02344 v -0.28125 c -0.597656,0 -0.691406,0 -0.691406,-0.410156 z m 3.978516,5.5781251 c 0.03516,0.375 0.304687,0.703125 0.691406,0.703125 0.222656,0 0.785156,-0.140625 0.785156,-0.855469 V 9.6565469 h -0.257812 v 0.4921871 c 0,0.105469 0,0.550782 -0.316406,0.550782 -0.328125,0 -0.328125,-0.433594 -0.328125,-0.574219 V 8.5549844 c 0,-0.515625 0,-0.8203125 -0.398438,-1.1835938 -0.328125,-0.2929687 -0.761719,-0.4335937 -1.207031,-0.4335937 -0.761719,0 -1.382813,0.375 -1.382813,0.9492187 0,0.28125 0.1875,0.4335938 0.421875,0.4335938 0.234375,0 0.410157,-0.1757813 0.410157,-0.4101563 0,-0.3867187 -0.398438,-0.4335937 -0.398438,-0.4335937 0.234375,-0.234375 0.667969,-0.3164063 0.925781,-0.3164063 0.457032,0 0.972657,0.3398438 0.972657,1.1367188 v 0.2929687 c -0.492188,0.023437 -1.160157,0.058594 -1.757813,0.3515625 -0.644531,0.3164063 -0.84375,0.7734375 -0.84375,1.1367189 0,0.738281 0.867188,0.972656 1.464844,0.972656 0.75,0 1.089844,-0.492187 1.21875,-0.738281 z m -0.08203,-0.6210939 c 0,0.8671879 -0.679688,1.1367189 -1.066407,1.1367189 -0.421875,0 -0.820312,-0.304688 -0.820312,-0.75 0,-0.5859376 0.515625,-1.2187501 1.886719,-1.2773439 z m 4.942382,-0.4921875 v 0.28125 h 2.449219 v 0.7734374 c 0,0.328125 -0.02344,0.421875 -0.703125,0.421875 h -0.1875 v 0.28125 c 0.5625,-0.02344 1.183594,-0.02344 1.253906,-0.02344 0.03516,0 0.691407,0 1.253907,0.02344 v -0.28125 h -0.199219 c -0.667969,0 -0.703125,-0.09375 -0.703125,-0.421875 V 9.4807656 h 0.914062 v -0.28125 H 48.712961 V 5.1331094 c 0,-0.1875 0,-0.2460938 -0.164063,-0.2460938 -0.105468,0 -0.117187,0.011719 -0.199218,0.140625 z m 0.292969,0 2.214844,-3.3164062 V 9.1995156 Z M 52.57136,8.7073281 c 0,-0.7382812 -0.105468,-1.7226562 -0.574218,-2.71875 -0.527344,-1.1015625 -1.359375,-1.7578125 -1.464844,-1.7578125 -0.09375,0 -0.117188,0.070312 -0.117188,0.1054688 0,0.035156 0.02344,0.070312 0.08203,0.1289062 0.527343,0.46875 1.511718,1.6875 1.511718,4.2421875 0,1.2773438 -0.234375,3.0703129 -1.535156,4.2773439 -0.02344,0.02344 -0.05859,0.05859 -0.05859,0.105469 0,0.02344 0.02344,0.09375 0.117188,0.09375 0.105469,0 0.914062,-0.644532 1.394531,-1.617188 0.433594,-0.855469 0.644531,-1.7812499 0.644531,-2.8593749 z m 2.668946,-1.125 c 0,-0.2695312 -0.210938,-0.4921875 -0.480469,-0.4921875 -0.269531,0 -0.492188,0.2226563 -0.492188,0.4921875 0,0.2578125 0.222657,0.4804688 0.492188,0.4804688 0.269531,0 0.480469,-0.2226563 0.480469,-0.4804688 z m 0,2.8945309 c 0,-0.257812 -0.210938,-0.4921871 -0.480469,-0.4921871 -0.269531,0 -0.492188,0.2343751 -0.492188,0.4921871 0,0.269532 0.222657,0.480469 0.492188,0.480469 0.269531,0 0.480469,-0.210937 0.480469,-0.480469 z m 0,0"
         style="fill:#000000;fill-opacity:1;fill-rule:nonzero;stroke:none" />
      <path
         id="path9"
         d="m 13.316477,20.862602 c -0.433594,0.726562 -0.832032,0.75 -1.195313,0.773437 -0.05859,0.01172 -0.105469,0.08203 -0.105469,0.164063 0,0.05859 0.03516,0.117187 0.128907,0.117187 0.175781,0 0.597656,-0.02344 0.761718,-0.02344 0.199219,0 0.679688,0.02344 0.878907,0.02344 0.05859,0 0.175781,0 0.175781,-0.164062 0,-0.105469 -0.117188,-0.117188 -0.140625,-0.117188 -0.08203,0 -0.421875,-0.02344 -0.421875,-0.292969 0,-0.128906 0.105469,-0.292968 0.128906,-0.339843 l 0.703125,-1.160157 h 2.34375 c 0.02344,0.210938 0.05859,0.515625 0.08203,0.738282 0.03516,0.351562 0.08203,0.75 0.08203,0.773437 0,0.128906 -0.117188,0.28125 -0.644532,0.28125 -0.08203,0 -0.199218,0 -0.199218,0.164063 0,0.09375 0.07031,0.117187 0.128906,0.117187 0.175781,0 0.386719,-0.02344 0.5625,-0.02344 0.1875,0 0.398437,0 0.539062,0 0.304688,0 0.316407,0 0.527344,0 0.152344,0.01172 0.351563,0.02344 0.503906,0.02344 0.04687,0 0.164063,0 0.164063,-0.164062 0,-0.117188 -0.09375,-0.117188 -0.199219,-0.117188 -0.539062,0 -0.550781,-0.05859 -0.574219,-0.316406 L 16.91413,15.741508 c -0.02344,-0.199219 -0.02344,-0.246094 -0.175781,-0.246094 -0.128907,0 -0.1875,0.07031 -0.257813,0.1875 z m 1.089843,-1.289063 1.804688,-2.964844 0.339844,2.964844 z m 0,0"
         style="fill:#000000;fill-opacity:1;fill-rule:nonzero;stroke:none" />
      <path
         id="path10"
         d="m 30.581125,18.952445 c 0.117187,0 0.292969,0 0.292969,-0.1875 0,-0.199218 -0.199219,-0.199218 -0.328125,-0.199218 h -5.472657 c -0.140625,0 -0.328125,0 -0.328125,0.199218 0,0.1875 0.175782,0.1875 0.292969,0.1875 z m -0.03516,1.828125 c 0.128906,0 0.328125,0 0.328125,-0.199218 0,-0.1875 -0.175782,-0.1875 -0.292969,-0.1875 h -5.542969 c -0.117187,0 -0.292969,0 -0.292969,0.1875 0,0.199218 0.1875,0.199218 0.328125,0.199218 z m 0,0"
         style="fill:#000000;fill-opacity:1;fill-rule:nonzero;stroke:none" />
      <path
         id="path11"
         d="m 40.717844,22.28057 c -0.01172,0.105469 -0.01172,0.222657 -0.01172,0.339844 0,0.421875 0.07031,1.03125 0.773437,1.03125 1.066407,0 1.523438,-1.605469 1.523438,-1.734375 0,-0.05859 -0.04687,-0.105469 -0.117188,-0.105469 -0.07031,0 -0.08203,0.05859 -0.117187,0.128907 -0.199219,0.609375 -0.726563,0.832031 -1.054688,0.832031 -0.410156,0 -0.550781,-0.269531 -0.632812,-0.902344 1.957031,-0.84375 2.742187,-2.601562 2.742187,-3.832031 0,-1.417969 -0.949218,-2.4375 -2.355468,-2.4375 -2.015625,0 -3.996094,2.0625 -3.996094,4.101562 0,1.476563 1.019531,2.414063 2.367187,2.414063 0.375,0 0.738282,-0.08203 0.890625,-0.128906 z m -1.417969,-0.527343 c -0.410156,-0.164063 -1.007813,-0.621094 -1.007813,-1.78125 0,-0.480469 0.152344,-1.921875 1.113282,-3.070313 0.46875,-0.550781 1.230468,-1.054687 1.992187,-1.054687 0.890625,0 1.605469,0.65625 1.605469,1.910156 0,0.902344 -0.433594,2.917969 -1.980469,3.785156 -0.08203,-0.480469 -0.246094,-0.960937 -0.820312,-0.960937 -0.503907,0 -0.949219,0.457031 -0.949219,0.914062 0,0.07031 0.02344,0.199219 0.04687,0.257813 z m 1.441406,-0.07031 c -0.117187,0.05859 -0.46875,0.175781 -0.832031,0.175781 -0.117188,0 -0.421875,0 -0.421875,-0.363281 0,-0.328125 0.328125,-0.691406 0.726562,-0.691406 0.527344,0 0.527344,0.480469 0.527344,0.878906 z m 0,0"
         style="fill:#000000;fill-opacity:1;fill-rule:nonzero;stroke:none" />
      <path
         id="path12"
         d="m 47.212961,16.761039 1.488281,4.429688 c 0.03516,0.117187 0.03516,0.140625 0.03516,0.175781 0,0.269531 -0.492187,0.269531 -0.738281,0.269531 v 0.28125 c 0.398438,-0.02344 0.855469,-0.02344 1.277344,-0.02344 0.421875,0 0.421875,0 1.113281,0.02344 v -0.28125 c -0.539062,0 -0.691406,0 -0.820312,-0.375 l -1.863282,-5.578125 c -0.04687,-0.117187 -0.07031,-0.1875 -0.222656,-0.1875 -0.140625,0 -0.164062,0.08203 -0.199219,0.1875 l -1.78125,5.332031 c -0.09375,0.269532 -0.28125,0.621094 -0.914062,0.621094 v 0.28125 c 0.292969,-0.02344 0.5625,-0.02344 0.84375,-0.02344 0.375,0 0.527344,0 0.996094,0.02344 v -0.28125 c -0.433594,0 -0.667969,-0.210937 -0.667969,-0.457031 0,-0.04687 0,-0.07031 0.04687,-0.199219 z m 0,0"
         style="fill:#000000;fill-opacity:1;fill-rule:nonzero;stroke:none" />
      <path
         id="path13"
         d="m 54.384836,22.28057 c -0.01172,0.105469 -0.01172,0.222657 -0.01172,0.339844 0,0.421875 0.07031,1.03125 0.773438,1.03125 1.066406,0 1.523437,-1.605469 1.523437,-1.734375 0,-0.05859 -0.04687,-0.105469 -0.117187,-0.105469 -0.07031,0 -0.08203,0.05859 -0.117188,0.128907 -0.199219,0.609375 -0.726562,0.832031 -1.054687,0.832031 -0.410157,0 -0.550782,-0.269531 -0.632813,-0.902344 1.957031,-0.84375 2.742188,-2.601562 2.742188,-3.832031 0,-1.417969 -0.949219,-2.4375 -2.355469,-2.4375 -2.015625,0 -3.996094,2.0625 -3.996094,4.101562 0,1.476563 1.019531,2.414063 2.367188,2.414063 0.375,0 0.738281,-0.08203 0.890625,-0.128906 z m -1.417969,-0.527343 c -0.410156,-0.164063 -1.007812,-0.621094 -1.007812,-1.78125 0,-0.480469 0.152343,-1.921875 1.113281,-3.070313 0.46875,-0.550781 1.230469,-1.054687 1.992187,-1.054687 0.890625,0 1.605469,0.65625 1.605469,1.910156 0,0.902344 -0.433594,2.917969 -1.980469,3.785156 -0.08203,-0.480469 -0.246093,-0.960937 -0.820312,-0.960937 -0.503906,0 -0.949219,0.457031 -0.949219,0.914062 0,0.07031 0.02344,0.199219 0.04687,0.257813 z m 1.441406,-0.07031 c -0.117187,0.05859 -0.46875,0.175781 -0.832031,0.175781 -0.117187,0 -0.421875,0 -0.421875,-0.363281 0,-0.328125 0.328125,-0.691406 0.726563,-0.691406 0.527343,0 0.527343,0.480469 0.527343,0.878906 z m 0,0"
         style="fill:#000000;fill-opacity:1;fill-rule:nonzero;stroke:none" />
      <path
         id="path14"
         d="m 61.070383,14.511039 c 0.04687,-0.1875 0.05859,-0.199219 0.304687,-0.199219 h 0.550782 c 0.644531,0 0.726562,0.175782 0.726562,0.527344 0,0.08203 -0.01172,0.246094 -0.03516,0.433594 0,0.01172 -0.01172,0.08203 -0.01172,0.09375 0,0.07031 0.04687,0.105469 0.105469,0.105469 0.105469,0 0.117187,-0.07031 0.128906,-0.152344 l 0.152344,-1.148438 c 0,-0.105468 -0.05859,-0.105468 -0.175781,-0.105468 h -3.890625 c -0.152344,0 -0.164063,0 -0.210938,0.128906 l -0.386719,1.089844 c -0.02344,0.07031 -0.02344,0.08203 -0.02344,0.09375 0,0.01172 0.01172,0.09375 0.105469,0.09375 0.08203,0 0.09375,-0.02344 0.140625,-0.175782 0.269531,-0.726562 0.457031,-0.984375 1.230468,-0.984375 h 0.539063 c 0.117187,0 0.128906,0 0.199219,0.01172 L 59.711,17.593071 c -0.03516,0.164063 -0.07031,0.222657 -0.234375,0.246094 -0.164063,0.03516 -0.515625,0.03516 -0.515625,0.03516 -0.164063,0 -0.175781,0 -0.199219,0.01172 -0.02344,0.02344 -0.04687,0.105469 -0.04687,0.140625 0,0 0.01172,0.08203 0.105469,0.08203 0.164062,0 0.351562,-0.02344 0.503906,-0.02344 0.246094,0 0.398438,0 0.5625,0 0.175781,0 0.351563,0 0.539063,0 0.164062,0 0.363281,0.02344 0.539062,0.02344 0.04687,0 0.08203,0 0.105469,-0.04687 0.01172,-0.01172 0.03516,-0.08203 0.03516,-0.105468 -0.01172,-0.08203 -0.05859,-0.08203 -0.246094,-0.08203 -0.128906,0 -0.257812,-0.01172 -0.386718,-0.01172 -0.140625,-0.01172 -0.210938,-0.02344 -0.210938,-0.117188 z m 0,0"
         style="fill:#000000;fill-opacity:1;fill-rule:nonzero;stroke:none" />
    </g>
    <path
       id="path15"
       d="M 362.98856,-38.54684 H 260.63322 c -1.65068,0 -2.98878,-1.33811 -2.98878,-2.9888 v -47.32254 c 0,-1.65069 1.3381,-2.98879 2.98878,-2.98879 h 102.35534 c 1.65069,0 2.9888,1.3381 2.9888,2.98879 v 47.32254 c 0,1.65069 -1.33811,2.9888 -2.9888,2.9888 z"
       style="fill:#fdefef;fill-opacity:1;fill-rule:nonzero;stroke:#e03c31;stroke-width:0.39851;stroke-linecap:butt;stroke-linejoin:miter;stroke-miterlimit:10;stroke-dasharray:none;stroke-opacity:1"
       transform="matrix(1.3333333,0,0,-1.3333333,102.24133,115.09067)" />
    <g
       id="g15"
       aria-label="SVD(Aula5):&#10;A=UΣV&#10;T&#10;sempreexiste,&#10;qualquerformato"
       transform="matrix(1.3333333,0,0,1.3333333,478.82667,183.42267)">
      <path
         id="path16"
         d="m 2.0401562,-3.7505938 c -0.7265625,-0.1757812 -0.9492187,-0.75 -0.9492187,-1.1484375 0,-0.5976562 0.4804687,-1.171875 1.2304687,-1.171875 1.1601563,0 1.6289063,0.8671875 1.7460938,1.7695313 0.035156,0.1640625 0.035156,0.2109375 0.1523437,0.2109375 0.1171875,0 0.1171875,-0.058594 0.1171875,-0.2460938 v -1.734375 c 0,-0.1757812 0,-0.2460937 -0.1054687,-0.2460937 -0.058594,0 -0.070312,0 -0.1289063,0.1171875 C 3.9854687,-6.0474688 4.0675,-6.1646563 3.7745312,-5.6959063 3.6221875,-5.8716875 3.1534375,-6.317 2.3096875,-6.317 c -1.0429688,0 -1.79296875,0.8085937 -1.79296875,1.7226562 0,0.703125 0.421875,1.1367188 0.45703125,1.1835938 0.4101562,0.3867187 0.5742187,0.4335937 1.640625,0.6796875 0.7265625,0.1757812 0.796875,0.1992187 1.1015625,0.5039062 0,0 0.3046875,0.3398438 0.3046875,0.8671875 0,0.60937505 -0.4335938,1.2773438 -1.2539063,1.2773438 -0.6914062,0 -1.9335937,-0.28125 -2.0039062,-1.7695313 -0.0117188,-0.1289062 -0.0117188,-0.1875 -0.12890625,-0.1875 -0.1171875,0 -0.1171875,0.070312 -0.1171875,0.2578125 v 1.7226563 c 0,0.1875 0,0.2578125 0.10546875,0.2578125 0.0585938,0 0.0703125,-0.0117188 0.12890625,-0.1171875 C 0.86828125,-0.082625 0.78625,0.0345625 1.0792187,-0.4341875 1.63,0.104875 2.3448437,0.198625 2.7784375,0.198625 c 1.0898437,0 1.8164062,-0.90234375 1.8164062,-1.8632813 0,-0.5039062 -0.1875,-0.9023437 -0.3984375,-1.171875 C 3.8096875,-3.3287188 3.41125,-3.4224688 2.8253125,-3.5630938 Z M 7.0411328,-5.4029375 C 7.0059766,-5.5084063 7.0059766,-5.567 7.0059766,-5.5787188 c 0,-0.2695312 0.4570312,-0.2695312 0.7148437,-0.2695312 v -0.2695313 c -0.4101562,0.023437 -0.8671875,0.023437 -1.2773437,0.023437 -0.375,0 -0.5039063,-0.011719 -1.1484375,-0.023437 V -5.84825 c 0.65625,0 0.7617187,0.035156 0.8789062,0.3515625 l 2.1679688,5.49609375 c 0.058594,0.12890625 0.082031,0.19921875 0.234375,0.19921875 0.140625,0 0.1640625,-0.0585938 0.2109375,-0.17578125 L 10.861445,-5.2505938 c 0.1875,-0.46875 0.5625,-0.5976562 0.984375,-0.5976562 v -0.2695313 c -0.316406,0.023437 -0.574218,0.023437 -0.878906,0.023437 -0.386719,0 -0.5625,-0.011719 -1.0078124,-0.023437 V -5.84825 c 0.4453124,0.011719 0.6328124,0.2226562 0.6328124,0.4453125 0,0.082031 0,0.09375 -0.03516,0.1875 L 8.8341016,-0.86778125 Z M 12.592891,-5.84825 c 0.691406,0 0.714843,0.1054687 0.714843,0.4335937 v 4.71093755 c 0,0.328125 -0.02344,0.421875 -0.714843,0.421875 h -0.199219 v 0.28125 h 3.328125 c 1.558594,0 2.824219,-1.32421875 2.824219,-3.01171875 0,-1.6992188 -1.242188,-3.1054688 -2.824219,-3.1054688 H 12.393672 V -5.84825 Z m 1.933593,5.56640625 c -0.421875,0 -0.445312,-0.0585938 -0.445312,-0.36328125 V -5.47325 c 0,-0.3046875 0.02344,-0.375 0.445312,-0.375 h 0.960938 c 0.867187,0 1.40625,0.4570312 1.640625,0.7851562 0.398437,0.515625 0.527344,1.1601563 0.527344,2.0507813 0,0.3632812 0,1.3125 -0.492188,1.9335937 -0.457031,0.60937505 -1.113281,0.79687505 -1.675781,0.79687505 z M 25.202266,2.1322187 c 0,-0.046875 -0.02344,-0.070312 -0.08203,-0.1289062 -1.160156,-1.06640625 -1.511718,-2.671875 -1.511718,-4.2421875 0,-1.3945313 0.269531,-3.0820313 1.535156,-4.2773438 0.03516,-0.035156 0.05859,-0.070312 0.05859,-0.1054687 0,-0.070312 -0.04687,-0.1054688 -0.105469,-0.1054688 -0.105469,0 -0.914063,0.6445313 -1.40625,1.6289063 -0.421875,0.8554687 -0.644531,1.78125 -0.644531,2.8476562 0,0.6445313 0.08203,1.66406255 0.574218,2.7304688 0.527344,1.1015625 1.371094,1.7460937 1.476563,1.7460937 0.05859,0 0.105469,-0.035156 0.105469,-0.09375 z m 4.195312,-8.3671875 c -0.04687,-0.1171875 -0.07031,-0.1875 -0.210937,-0.1875 -0.152344,0 -0.164063,0.058594 -0.222657,0.1992188 l -1.921875,5.33203125 c -0.105468,0.29296875 -0.316406,0.609375 -1.007812,0.609375 v 0.28125 c 0.339844,-0.0234375 0.585937,-0.0234375 0.914062,-0.0234375 0.316407,0 0.515625,0 1.007813,0.0234375 v -0.28125 c -0.503906,0 -0.65625,-0.28125 -0.65625,-0.45703125 0,-0.0820313 0.01172,-0.1171875 0.03516,-0.1640625 l 0.421875,-1.1601563 h 2.320313 l 0.480468,1.35937505 c 0.03516,0.0820313 0.04687,0.1171875 0.04687,0.15234375 0,0.26953125 -0.503906,0.26953125 -0.738281,0.26953125 v 0.28125 c 0.410156,-0.0234375 0.878906,-0.0234375 1.289063,-0.0234375 0.398437,0 0.433593,0 1.171875,0.0234375 v -0.28125 h -0.152344 c -0.550781,0 -0.65625,-0.0820313 -0.738281,-0.328125 z m 0.574219,3.890625 h -2.121094 l 1.066406,-2.9296875 z m 6.208008,0.84375 c 0,0.79687505 -0.445313,1.3710938 -1.089844,1.3710938 -0.75,0 -0.796875,-0.38671875 -0.796875,-0.8671875 v -2.9648438 l -1.347656,0.09375 v 0.28125 c 0.691406,0 0.691406,0.023437 0.691406,0.8203125 v 1.3476563 c 0,0.5859375 0,0.9609375 0.410156,1.27734375 0.257813,0.17578125 0.621094,0.234375 0.984375,0.234375 0.46875,0 0.902344,-0.19921875 1.160156,-0.73828125 h 0.01172 v 0.73828125 l 1.324219,-0.09375 v -0.28125 c -0.609375,0 -0.679688,-0.0585938 -0.679688,-0.50390625 v -3.1757813 l -1.359375,0.09375 v 0.28125 c 0.609375,0 0.691407,0.058594 0.691407,0.5039063 z M 39.402461,-6.22325 38.078242,-6.1177813 V -5.84825 c 0.609375,0 0.679688,0.070312 0.679688,0.5039062 V -0.692 c 0,0.41015625 -0.09375,0.41015625 -0.679688,0.41015625 v 0.28125 c 0.410156,-0.0234375 0.585938,-0.0234375 0.996094,-0.0234375 0.421875,0 0.574219,0 1.019531,0.0234375 v -0.28125 c -0.597656,0 -0.691406,0 -0.691406,-0.41015625 z m 3.978516,5.578125 c 0.03516,0.375 0.304687,0.703125 0.691406,0.703125 0.222656,0 0.785156,-0.140625 0.785156,-0.85546875 V -1.301375 h -0.257812 v 0.4921875 c 0,0.10546875 0,0.55078125 -0.316407,0.55078125 -0.328125,0 -0.328125,-0.43359375 -0.328125,-0.57421875 v -1.5703125 c 0,-0.515625 0,-0.8203125 -0.398437,-1.1835938 C 43.228633,-3.8795 42.795039,-4.020125 42.349727,-4.020125 c -0.761719,0 -1.382813,0.375 -1.382813,0.9492187 0,0.28125 0.1875,0.4335938 0.421875,0.4335938 0.234375,0 0.410156,-0.1757813 0.410156,-0.4101563 0,-0.3867187 -0.398437,-0.4335937 -0.398437,-0.4335937 0.234375,-0.234375 0.667969,-0.3164063 0.925781,-0.3164063 0.457031,0 0.972656,0.3398438 0.972656,1.1367188 v 0.2929687 c -0.492187,0.023437 -1.160156,0.058594 -1.757812,0.3515625 -0.644531,0.3164063 -0.84375,0.7734375 -0.84375,1.1367188 0,0.73828125 0.867187,0.97265625 1.464844,0.97265625 0.75,0 1.089843,-0.4921875 1.21875,-0.73828125 z m -0.08203,-0.6210938 c 0,0.86718755 -0.679687,1.1367188 -1.066406,1.1367188 -0.421875,0 -0.820312,-0.3046875 -0.820312,-0.75 0,-0.5859375 0.515625,-1.21875 1.886718,-1.2773438 z m 5.63086,-1.828125 c 0,0.1640625 0,0.2578125 0.117187,0.2578125 0.07031,0 0.105469,-0.035156 0.152344,-0.1171875 0.269531,-0.375 0.703125,-0.5859375 1.171875,-0.5859375 0.960937,0 0.960937,1.3828125 0.960937,1.6992188 0,0.28125 0,0.8320312 -0.257812,1.2421875 -0.234375,0.375 -0.621094,0.5390625 -0.960938,0.5390625 -0.539062,0 -1.136718,-0.328125 -1.347656,-0.9960938 0.01172,0 0.05859,0.023437 0.117188,0.023437 0.1875,0 0.445312,-0.1171875 0.445312,-0.4335937 0,-0.28125 -0.199219,-0.4453125 -0.445312,-0.4453125 -0.1875,0 -0.433594,0.1054687 -0.433594,0.46875 0,0.80859375 0.679687,1.640625 1.675781,1.640625 1.089844,0 2.003906,-0.87890625 2.003906,-1.9921875 0,-1.0898438 -0.761718,-1.96875 -1.746093,-1.96875 -0.421875,0 -0.867188,0.140625 -1.183594,0.4570312 v -1.7578125 c 0.269531,0.082031 0.550781,0.1171875 0.832031,0.1171875 1.101563,0 1.746094,-0.796875 1.746094,-0.9140625 0,-0.070312 -0.05859,-0.1054687 -0.105469,-0.1054687 -0.01172,0 -0.03516,0 -0.117187,0.035156 -0.410157,0.1757813 -0.832032,0.2460938 -1.207032,0.2460938 -0.386718,0 -0.785156,-0.070312 -1.195312,-0.2460938 -0.09375,-0.035156 -0.105469,-0.035156 -0.117188,-0.035156 -0.105468,0 -0.105468,0.082031 -0.105468,0.234375 z m 6.342773,0.84375 c 0,-0.7382812 -0.105469,-1.7226562 -0.574219,-2.71875 -0.527343,-1.1015625 -1.359375,-1.7578125 -1.464843,-1.7578125 -0.09375,0 -0.117188,0.070312 -0.117188,0.1054688 0,0.035156 0.02344,0.070312 0.08203,0.1289062 0.527344,0.46875 1.511719,1.6875 1.511719,4.2421875 0,1.2773438 -0.234375,3.07031255 -1.535156,4.2773438 -0.02344,0.023437 -0.05859,0.058594 -0.05859,0.1054687 0,0.023437 0.02344,0.09375 0.117188,0.09375 0.105468,0 0.914062,-0.6445312 1.394531,-1.61718745 0.433594,-0.85546875 0.644531,-1.78125005 0.644531,-2.85937505 z m 2.668945,-1.125 c 0,-0.2695312 -0.210937,-0.4921875 -0.480468,-0.4921875 -0.269532,0 -0.492188,0.2226563 -0.492188,0.4921875 0,0.2578125 0.222656,0.4804688 0.492188,0.4804688 0.269531,0 0.480468,-0.2226563 0.480468,-0.4804688 z m 0,2.8945313 c 0,-0.2578125 -0.210937,-0.4921875 -0.480468,-0.4921875 -0.269532,0 -0.492188,0.234375 -0.492188,0.4921875 0,0.26953125 0.222656,0.48046875 0.492188,0.48046875 0.269531,0 0.480468,-0.2109375 0.480468,-0.48046875 z m 0,0"
         style="fill:#000000;fill-opacity:1;fill-rule:nonzero;stroke:none" />
      <path
         id="path17"
         d="M 4.7764844,9.9046797 C 4.3428906,10.631242 3.9444531,10.65468 3.5811719,10.678117 c -0.058594,0.01172 -0.1054688,0.08203 -0.1054688,0.164063 0,0.05859 0.035156,0.117187 0.1289063,0.117187 0.1757812,0 0.5976562,-0.02344 0.7617187,-0.02344 0.1992188,0 0.6796875,0.02344 0.8789063,0.02344 0.058594,0 0.1757812,0 0.1757812,-0.164062 0,-0.105469 -0.1171875,-0.117188 -0.140625,-0.117188 -0.082031,0 -0.421875,-0.02344 -0.421875,-0.292969 0,-0.128906 0.1054688,-0.292968 0.1289063,-0.339843 l 0.703125,-1.1601566 h 2.34375 c 0.023437,0.2109375 0.058594,0.515625 0.082031,0.7382813 0.035156,0.3515625 0.082031,0.7500003 0.082031,0.7734373 0,0.128906 -0.1171875,0.28125 -0.6445313,0.28125 -0.082031,0 -0.1992187,0 -0.1992187,0.164063 0,0.09375 0.070312,0.117187 0.1289062,0.117187 0.1757813,0 0.3867188,-0.02344 0.5625,-0.02344 0.1875,0 0.3984375,0 0.5390625,0 0.3046875,0 0.3164063,0 0.5273438,0 0.1523437,0.01172 0.3515625,0.02344 0.5039062,0.02344 0.046875,0 0.1640625,0 0.1640625,-0.164062 0,-0.117188 -0.09375,-0.117188 -0.1992187,-0.117188 -0.5390625,0 -0.5507813,-0.05859 -0.5742188,-0.316406 L 8.3741406,4.7835859 C 8.3507031,4.5843672 8.3507031,4.5374922 8.1983594,4.5374922 c -0.1289063,0 -0.1875,0.070312 -0.2578125,0.1875 z M 5.8663281,8.6156172 7.6710156,5.6507734 8.0108594,8.6156172 Z m 0,0"
         style="fill:#000000;fill-opacity:1;fill-rule:nonzero;stroke:none" />
      <path
         id="path18"
         d="m 22.020625,7.9945234 c 0.117187,0 0.292969,0 0.292969,-0.1875 0,-0.1992187 -0.199219,-0.1992187 -0.328125,-0.1992187 h -5.472657 c -0.140625,0 -0.328125,0 -0.328125,0.1992187 0,0.1875 0.175782,0.1875 0.292969,0.1875 z m -0.03516,1.828125 c 0.128906,0 0.328125,0 0.328125,-0.1992187 0,-0.1875 -0.175782,-0.1875 -0.292969,-0.1875 h -5.542969 c -0.117187,0 -0.292969,0 -0.292969,0.1875 0,0.1992187 0.1875,0.1992187 0.328125,0.1992187 z m 0,0"
         style="fill:#000000;fill-opacity:1;fill-rule:nonzero;stroke:none" />
      <path
         id="path19"
         d="m 34.255,5.8031172 c 0.09375,-0.375 0.269531,-0.65625 0.960937,-0.6914063 0.05859,0 0.164063,-0.011719 0.164063,-0.1640625 0,-0.070312 -0.04687,-0.1054687 -0.128906,-0.1054687 -0.1875,0 -0.691407,0.023437 -0.890625,0.023437 -0.222657,0 -0.246094,0 -0.457032,-0.011719 -0.140625,0 -0.328125,-0.011719 -0.46875,-0.011719 -0.03516,0 -0.164062,0 -0.164062,0.1523437 0,0.1171875 0.117187,0.1171875 0.164062,0.1171875 0.339844,0.011719 0.597657,0.09375 0.597657,0.3867188 0,0.046875 -0.02344,0.1757812 -0.02344,0.1757812 L 33.20031,8.8851474 c -0.316406,1.2421876 -1.394531,1.9921876 -2.285156,1.9921876 -0.457031,0 -1.113281,-0.246094 -1.113281,-1.1953126 0,-0.234375 0.03516,-0.4570312 0.08203,-0.6914062 l 0.867188,-3.46875 c 0.08203,-0.3398438 0.117187,-0.4101563 0.808593,-0.4101563 0.140625,0 0.246094,0 0.246094,-0.1640625 0,-0.070312 -0.05859,-0.1054687 -0.140625,-0.1054687 l -0.5625,0.011719 c -0.269531,0.011719 -0.28125,0.011719 -0.574219,0.011719 -0.28125,0 -0.304687,0 -0.574218,-0.011719 -0.175782,-0.011719 -0.410157,-0.011719 -0.574219,-0.011719 -0.05859,0 -0.1875,0 -0.1875,0.1523437 0,0.1171875 0.09375,0.1171875 0.269531,0.1171875 0.03516,0 0.199219,0 0.339844,0.023437 0.175781,0.011719 0.222656,0.046875 0.222656,0.1289063 0,0.058594 -0.08203,0.375 -0.140625,0.5625 l -0.199219,0.796875 c -0.08203,0.3515625 -0.503906,2.0273437 -0.539062,2.2148437 -0.07031,0.28125 -0.08203,0.3867188 -0.08203,0.5742188 0,1.0429693 0.773437,1.7460943 1.828125,1.7460943 1.160156,0 2.296875,-1.03125 2.578125,-2.2031256 z m 0,0"
         style="fill:#000000;fill-opacity:1;fill-rule:nonzero;stroke:none" />
      <path
         id="path20"
         d="m 37.225703,5.1117109 h 2.132813 c 1.394531,0 2.027343,0.2226563 2.203125,1.7460938 h 0.246093 l -0.246093,-2.015625 h -5.132813 c -0.199219,0 -0.234375,0 -0.234375,0.1875 l 2.285156,3.2578125 -2.191406,2.4140628 c -0.08203,0.08203 -0.09375,0.105468 -0.09375,0.140625 0,0.117187 0.09375,0.117187 0.234375,0.117187 h 5.132813 l 0.246093,-2.1210936 h -0.246093 c -0.175782,1.4648436 -0.726563,1.7343746 -2.238282,1.7343746 h -2.554687 l 2.308594,-2.5312496 c 0.09375,-0.09375 0.09375,-0.1171875 0.09375,-0.1523437 0,0 0,-0.046875 -0.07031,-0.1289063 z m 0,0"
         style="fill:#000000;fill-opacity:1;fill-rule:nonzero;stroke:none" />
      <path
         id="path21"
         d="m 48.124141,5.8968672 c 0.375,-0.5742188 0.679687,-0.75 1.101562,-0.7851563 0.105469,-0.011719 0.1875,-0.011719 0.1875,-0.1640625 0,-0.070312 -0.05859,-0.1054687 -0.117187,-0.1054687 -0.03516,0 -0.269532,0.023437 -0.738282,0.023437 -0.292968,0 -0.597656,-0.023437 -0.867187,-0.023437 -0.07031,0 -0.164063,0.011719 -0.164063,0.1523437 0,0.1054688 0.09375,0.1171875 0.128907,0.1171875 0.08203,0.011719 0.410156,0.035156 0.410156,0.2929688 0,0.070312 -0.02344,0.1289062 -0.07031,0.1992187 -0.03516,0.070312 -0.04687,0.1054688 -0.08203,0.1757813 l -2.8125,4.3476563 -0.679687,-4.7460938 c 0,-0.082031 0.07031,-0.2695313 0.621093,-0.2695313 0.105469,0 0.210938,0 0.210938,-0.1640625 0,-0.09375 -0.08203,-0.1054687 -0.140625,-0.1054687 -0.164063,0 -0.351563,0.011719 -0.515625,0.011719 -0.1875,0 -0.375,0.011719 -0.5625,0.011719 -0.164063,0 -0.421875,0 -0.492188,-0.011719 -0.08203,0 -0.445312,-0.011719 -0.515625,-0.011719 -0.03516,0 -0.164062,0 -0.164062,0.1523437 0,0.1171875 0.105469,0.1171875 0.210937,0.1171875 0.503907,0 0.503907,0.082031 0.539063,0.3046875 l 0.796875,5.5078126 c 0.02344,0.164062 0.03516,0.234375 0.1875,0.234375 0.140625,0 0.199219,-0.07031 0.257812,-0.175781 z m 0,0"
         style="fill:#000000;fill-opacity:1;fill-rule:nonzero;stroke:none" />
      <path
         id="path22"
         d="m 52.864375,3.5531172 c 0.04687,-0.1875 0.05859,-0.1992188 0.304687,-0.1992188 h 0.550782 c 0.644531,0 0.726562,0.1757813 0.726562,0.5273438 0,0.082031 -0.01172,0.2460937 -0.03516,0.4335937 0,0.011719 -0.01172,0.082031 -0.01172,0.09375 0,0.070312 0.04687,0.1054688 0.105469,0.1054688 0.105469,0 0.117187,-0.070312 0.128906,-0.1523438 L 54.78625,3.2132734 c 0,-0.1054687 -0.05859,-0.1054687 -0.175781,-0.1054687 h -3.890625 c -0.152344,0 -0.164063,0 -0.210938,0.1289062 l -0.386719,1.0898438 c -0.02344,0.070312 -0.02344,0.082031 -0.02344,0.09375 0,0.011719 0.01172,0.09375 0.105469,0.09375 0.08203,0 0.09375,-0.023437 0.140625,-0.1757813 0.269531,-0.7265625 0.457031,-0.984375 1.230468,-0.984375 h 0.539063 c 0.117187,0 0.128906,0 0.199219,0.011719 L 51.505,6.6351484 C 51.46984,6.7992109 51.43469,6.8578047 51.270625,6.8812422 51.106562,6.9163982 50.755,6.9163982 50.755,6.9163982 c -0.164063,0 -0.175781,0 -0.199219,0.011719 -0.02344,0.023437 -0.04687,0.1054687 -0.04687,0.140625 0,0 0.01172,0.082031 0.105469,0.082031 0.164062,0 0.351562,-0.023437 0.503906,-0.023437 0.246094,0 0.398438,0 0.5625,0 0.175781,0 0.351563,0 0.539063,0 0.164062,0 0.363281,0.023437 0.539062,0.023437 0.04687,0 0.08203,0 0.105469,-0.046875 0.01172,-0.011719 0.03516,-0.082031 0.03516,-0.1054687 -0.01172,-0.082031 -0.05859,-0.082031 -0.246094,-0.082031 -0.128906,0 -0.257812,-0.011719 -0.386718,-0.011719 C 52.126103,6.8929605 52.05579,6.8812425 52.05579,6.787492 Z m 0,0"
         style="fill:#000000;fill-opacity:1;fill-rule:nonzero;stroke:none" />
      <path
         id="path23"
         d="m 4.0997266,18.134172 c 0,-0.152344 0,-0.234375 -0.1054688,-0.234375 -0.046875,0 -0.058594,0 -0.1757812,0.105469 -0.023437,0.02344 -0.1054688,0.105468 -0.1523438,0.152343 -0.28125,-0.199218 -0.5625,-0.257812 -0.8671875,-0.257812 -1.1835937,0 -1.4765625,0.65625 -1.4765625,1.113281 0,0.292969 0.1289063,0.527344 0.328125,0.714844 0.3046875,0.28125 0.6445313,0.339844 1.1015625,0.421875 0.4570313,0.09375 0.609375,0.117187 0.8085938,0.269531 0.09375,0.07031 0.3164062,0.246094 0.3164062,0.585938 0,0.785156 -0.9023437,0.785156 -1.03125,0.785156 -0.9140625,0 -1.1484375,-0.761719 -1.2539062,-1.242188 -0.023437,-0.09375 -0.035156,-0.140625 -0.140625,-0.140625 -0.1289063,0 -0.1289063,0.07031 -0.1289063,0.234375 v 1.148438 c 0,0.152344 0,0.222656 0.1054688,0.222656 0.058594,0 0.070312,0 0.2226562,-0.175781 0.035156,-0.04687 0.140625,-0.164063 0.1875,-0.210938 0.375,0.363282 0.7851563,0.386719 1.0078125,0.386719 1.1015625,0 1.4882813,-0.644531 1.4882813,-1.242187 0,-0.398438 -0.1757813,-0.644532 -0.375,-0.855469 -0.3046875,-0.292969 -0.6328125,-0.351563 -1.2890625,-0.480469 -0.234375,-0.04687 -0.890625,-0.164062 -0.890625,-0.667969 0,-0.292968 0.2109375,-0.667968 1.0195312,-0.667968 0.9726563,0 1.03125,0.75 1.0546875,0.972656 0.011719,0.105469 0.011719,0.164062 0.1171875,0.164062 0.1289063,0 0.1289063,-0.07031 0.1289063,-0.234375 z m 4.1396484,1.734375 c 0.1992187,0 0.2460937,0 0.2460937,-0.1875 0,-0.925781 -0.5039062,-1.78125 -1.6523437,-1.78125 -1.078125,0 -1.921875,0.9375 -1.921875,2.050781 0,1.171875 0.9492187,2.0625 2.0390625,2.0625 1.0898437,0 1.5351562,-0.949219 1.5351562,-1.160156 0,-0.05859 -0.046875,-0.117188 -0.1289062,-0.117188 -0.09375,0 -0.1171875,0.05859 -0.1289063,0.09375 -0.3046875,0.914063 -1.1015625,0.9375 -1.2304687,0.9375 -0.4335938,0 -0.796875,-0.246093 -1.0078125,-0.550781 C 5.6964062,20.782609 5.6846875,20.243547 5.6846875,19.868547 Z M 5.6964062,19.645891 c 0.082031,-1.371094 0.8789063,-1.523438 1.1367188,-1.523438 0.4921875,0 1.03125,0.386719 1.0429687,1.523438 z m 4.7197268,-0.04687 c 0,-0.972657 0.703125,-1.417969 1.242187,-1.417969 0.492188,0 0.65625,0.351562 0.65625,0.972656 v 2.074219 c 0,0.410156 -0.105468,0.410156 -0.691406,0.410156 v 0.28125 c 0.421875,-0.02344 0.585938,-0.02344 1.019531,-0.02344 0.433594,0 0.550782,0 1.019532,0.02344 v -0.28125 c -0.585938,0 -0.691407,0 -0.691407,-0.410156 v -1.628906 c 0,-0.972657 0.703125,-1.417969 1.242188,-1.417969 0.492187,0 0.65625,0.351562 0.65625,0.972656 v 2.074219 c 0,0.410156 -0.105469,0.410156 -0.691406,0.410156 v 0.28125 c 0.421875,-0.02344 0.585937,-0.02344 1.019531,-0.02344 0.433594,0 0.550781,0 1.019531,0.02344 v -0.28125 c -0.457031,0 -0.679687,0 -0.691406,-0.269531 v -1.722656 c 0,-0.785157 0,-1.03125 -0.292969,-1.371094 -0.1875,-0.210938 -0.550781,-0.316406 -0.960937,-0.316406 -0.644532,0 -1.078125,0.375 -1.335938,0.855468 -0.105469,-0.539062 -0.46875,-0.855468 -1.21875,-0.855468 -0.714844,0 -1.148437,0.46875 -1.347656,0.878906 v -0.878906 l -1.3007814,0.09375 v 0.28125 c 0.609375,0 0.6914062,0.05859 0.6914062,0.503906 v 2.390625 c 0,0.410156 -0.1054687,0.410156 -0.6914062,0.410156 v 0.28125 c 0.421875,-0.02344 0.5859375,-0.02344 1.0195314,-0.02344 0.433594,0 0.550781,0 1.019531,0.02344 v -0.28125 c -0.585937,0 -0.691406,0 -0.691406,-0.410156 z m 7.631836,-0.691407 c 0.304687,-0.515625 0.808593,-0.703125 1.183593,-0.703125 0.691407,0 1.230469,0.808594 1.230469,1.78125 0,1.019532 -0.609375,1.804688 -1.335937,1.804688 -0.398438,0 -0.738282,-0.234375 -0.960938,-0.539063 -0.117187,-0.1875 -0.117187,-0.199218 -0.117187,-0.375 z m 0,2.578125 c 0.234375,0.234375 0.539062,0.527344 1.136718,0.527344 1.066407,0 2.050782,-0.855469 2.050782,-2.027344 0,-1.136718 -0.878907,-2.027343 -1.933594,-2.027343 -0.492188,0 -0.9375,0.199218 -1.277344,0.5625 v -0.5625 l -1.324219,0.09375 v 0.28125 c 0.632813,0 0.691407,0.05859 0.691407,0.433593 v 4.207032 c 0,0.410156 -0.105469,0.410156 -0.691407,0.410156 v 0.269531 c 0.421875,-0.01172 0.585938,-0.02344 1.019532,-0.02344 0.433593,0 0.550781,0.01172 1.019531,0.02344 v -0.269531 c -0.585938,0 -0.691406,0 -0.691406,-0.410156 z m 5.097656,-1.617187 c 0,-0.375 0.105469,-1.6875 1.125,-1.6875 v 0.01172 c -0.02344,0.01172 -0.164063,0.117187 -0.164063,0.328125 0,0.246093 0.1875,0.398437 0.398438,0.398437 0.1875,0 0.386719,-0.140625 0.386719,-0.410156 0,-0.28125 -0.269532,-0.550781 -0.667969,-0.550781 -0.539063,0 -0.914063,0.375 -1.125,0.925781 v -0.925781 l -1.277344,0.09375 v 0.28125 c 0.609375,0 0.691406,0.05859 0.691406,0.503906 v 2.390625 c 0,0.410156 -0.105468,0.410156 -0.691406,0.410156 v 0.28125 c 0.46875,-0.02344 0.585938,-0.02344 1.042969,-0.02344 0.363281,0 0.574219,0 1.148437,0.02344 v -0.28125 h -0.1875 c -0.65625,0 -0.679687,-0.09375 -0.679687,-0.421875 z m 5.595703,0 c 0.199219,0 0.246094,0 0.246094,-0.1875 0,-0.925781 -0.503906,-1.78125 -1.652344,-1.78125 -1.078125,0 -1.921875,0.9375 -1.921875,2.050781 0,1.171875 0.949219,2.0625 2.039063,2.0625 1.089843,0 1.535156,-0.949219 1.535156,-1.160156 0,-0.05859 -0.04687,-0.117188 -0.128906,-0.117188 -0.09375,0 -0.117188,0.05859 -0.128907,0.09375 -0.304687,0.914063 -1.101562,0.9375 -1.230468,0.9375 -0.433594,0 -0.796875,-0.246093 -1.007813,-0.550781 -0.292969,-0.433594 -0.304687,-0.972656 -0.304687,-1.347656 z m -2.542969,-0.222656 c 0.08203,-1.371094 0.878907,-1.523438 1.136719,-1.523438 0.492188,0 1.03125,0.386719 1.042969,1.523438 z m 9.717774,0.222656 c 0.199219,0 0.246094,0 0.246094,-0.1875 0,-0.925781 -0.503907,-1.78125 -1.652344,-1.78125 -1.078125,0 -1.921875,0.9375 -1.921875,2.050781 0,1.171875 0.949219,2.0625 2.039062,2.0625 1.089844,0 1.535157,-0.949219 1.535157,-1.160156 0,-0.05859 -0.04687,-0.117188 -0.128907,-0.117188 -0.09375,0 -0.117187,0.05859 -0.128906,0.09375 -0.304687,0.914063 -1.101562,0.9375 -1.230469,0.9375 -0.433593,0 -0.796875,-0.246093 -1.007812,-0.550781 -0.292969,-0.433594 -0.304688,-0.972656 -0.304688,-1.347656 z m -2.542969,-0.222656 c 0.08203,-1.371094 0.878906,-1.523438 1.136719,-1.523438 0.492187,0 1.03125,0.386719 1.042969,1.523438 z m 5.777344,0.257812 c -0.05859,-0.08203 -0.05859,-0.09375 -0.05859,-0.105469 0,-0.01172 0.703125,-0.867187 0.773438,-0.9375 0.269531,-0.304687 0.574218,-0.515625 1.125,-0.527343 v -0.28125 c -0.257813,0.03516 -0.503907,0.03516 -0.761719,0.03516 -0.339844,0 -0.503906,0 -0.855469,-0.03516 v 0.28125 c 0.128906,0.02344 0.246094,0.09375 0.246094,0.269531 0,0.140625 -0.08203,0.246094 -0.128906,0.292969 l -0.574219,0.714843 -0.691406,-0.890625 c -0.07031,-0.08203 -0.08203,-0.105468 -0.08203,-0.164062 0,-0.105469 0.09375,-0.210938 0.304688,-0.222656 v -0.28125 c -0.339844,0.02344 -0.574219,0.03516 -0.972656,0.03516 -0.02344,0 -0.539063,0 -0.878907,-0.03516 v 0.28125 c 0.609375,0 0.632813,0.02344 1.042969,0.550781 l 0.925781,1.148437 c -0.199218,0.234375 -0.679687,0.832032 -0.867187,1.054688 -0.457031,0.539062 -0.960938,0.550781 -1.148438,0.550781 v 0.28125 c 0.257813,-0.02344 0.503907,-0.02344 0.761719,-0.02344 0.28125,0 0.574219,0 0.855469,0.02344 v -0.28125 c -0.222656,-0.02344 -0.246094,-0.175781 -0.246094,-0.269531 0,-0.02344 0,-0.152344 0.128906,-0.304688 0.222657,-0.28125 0.445313,-0.550781 0.679688,-0.820312 l 0.703125,0.902344 c 0.175781,0.199218 0.175781,0.222656 0.175781,0.269531 0,0.105469 -0.09375,0.222656 -0.304687,0.222656 v 0.28125 c 0.375,-0.02344 0.585937,-0.02344 0.972656,-0.02344 0.01172,0 0.527344,0 0.878906,0.02344 v -0.28125 c -0.363281,0 -0.632812,0 -0.820312,-0.246094 z m 3.793945,-1.945312 -1.289062,0.09375 v 0.28125 c 0.574218,0 0.644531,0.05859 0.644531,0.492187 v 2.402344 c 0,0.410156 -0.09375,0.410156 -0.679688,0.410156 v 0.28125 c 0.398438,-0.02344 0.585938,-0.02344 0.984375,-0.02344 0.140625,0 0.515625,0 0.960938,0.02344 v -0.28125 c -0.585938,0 -0.621094,-0.04687 -0.621094,-0.386719 z m 0.02344,-1.558594 c 0,-0.269531 -0.210938,-0.492188 -0.480469,-0.492188 -0.28125,0 -0.492188,0.234375 -0.492188,0.492188 0,0.257812 0.210938,0.480469 0.492188,0.480469 0.269531,0 0.480469,-0.210938 0.480469,-0.480469 z m 3.966796,1.734375 c 0,-0.152344 0,-0.234375 -0.105468,-0.234375 -0.04687,0 -0.05859,0 -0.175782,0.105469 -0.02344,0.02344 -0.105468,0.105468 -0.152343,0.152343 -0.28125,-0.199218 -0.5625,-0.257812 -0.867188,-0.257812 -1.183594,0 -1.476562,0.65625 -1.476562,1.113281 0,0.292969 0.128906,0.527344 0.328125,0.714844 0.304687,0.28125 0.644531,0.339844 1.101562,0.421875 0.457031,0.09375 0.609375,0.117187 0.808594,0.269531 0.09375,0.07031 0.316406,0.246094 0.316406,0.585938 0,0.785156 -0.902344,0.785156 -1.03125,0.785156 -0.914062,0 -1.148437,-0.761719 -1.253906,-1.242188 -0.02344,-0.09375 -0.03516,-0.140625 -0.140625,-0.140625 -0.128906,0 -0.128906,0.07031 -0.128906,0.234375 v 1.148438 c 0,0.152344 0,0.222656 0.105468,0.222656 0.05859,0 0.07031,0 0.222657,-0.175781 0.03516,-0.04687 0.140625,-0.164063 0.1875,-0.210938 0.375,0.363282 0.785156,0.386719 1.007812,0.386719 1.101563,0 1.488281,-0.644531 1.488281,-1.242187 0,-0.398438 -0.175781,-0.644532 -0.375,-0.855469 -0.304687,-0.292969 -0.632812,-0.351563 -1.289062,-0.480469 -0.234375,-0.04687 -0.890625,-0.164062 -0.890625,-0.667969 0,-0.292968 0.210937,-0.667968 1.019531,-0.667968 0.972656,0 1.03125,0.75 1.054688,0.972656 0.01172,0.105469 0.01172,0.164062 0.117187,0.164062 0.128906,0 0.128906,-0.07031 0.128906,-0.234375 z m 3.462891,0.199219 v -0.28125 h -1.300781 v -1.640625 h -0.257813 c 0,0.75 -0.316406,1.675781 -1.183593,1.699218 v 0.222657 h 0.773437 v 2.472656 c 0,1.007812 0.726563,1.207031 1.207031,1.207031 0.597657,0 0.914063,-0.574219 0.914063,-1.207031 v -0.503906 h -0.257813 v 0.480468 c 0,0.65625 -0.28125,0.984375 -0.597656,0.984375 -0.597656,0 -0.597656,-0.785156 -0.597656,-0.949218 v -2.484375 z m 4.250977,1.535156 c 0.199218,0 0.246093,0 0.246093,-0.1875 0,-0.925781 -0.503906,-1.78125 -1.652343,-1.78125 -1.078125,0 -1.921875,0.9375 -1.921875,2.050781 0,1.171875 0.949218,2.0625 2.039062,2.0625 1.089844,0 1.535156,-0.949219 1.535156,-1.160156 0,-0.05859 -0.04687,-0.117188 -0.128906,-0.117188 -0.09375,0 -0.117187,0.05859 -0.128906,0.09375 -0.304688,0.914063 -1.101563,0.9375 -1.230469,0.9375 -0.433594,0 -0.796875,-0.246093 -1.007812,-0.550781 -0.292969,-0.433594 -0.304688,-0.972656 -0.304688,-1.347656 z m -2.542969,-0.222656 c 0.08203,-1.371094 0.878906,-1.523438 1.136719,-1.523438 0.492187,0 1.03125,0.386719 1.042968,1.523438 z m 4.68457,2.132812 c 0,0.292969 0,1.03125 -0.679687,1.675781 -0.03516,0.04687 -0.03516,0.08203 -0.03516,0.08203 0,0.04687 0.05859,0.117187 0.117188,0.117187 0.09375,0 0.820312,-0.691406 0.820312,-1.757812 0,-0.609375 -0.234375,-0.949219 -0.574218,-0.949219 -0.316407,0 -0.492188,0.246094 -0.492188,0.492187 0,0.234375 0.175781,0.480469 0.492188,0.480469 0.222656,0 0.351562,-0.128906 0.351562,-0.140625 z m -58.5410154,7.921875 c -0.421875,-0.703125 -0.9375,-0.785156 -1.2421875,-0.785156 -1.0664062,0 -2.0390625,0.855469 -2.0390625,2.039062 0,1.136719 0.9140625,2.015625 1.96875,2.015625 0.375,0 0.8320313,-0.128906 1.21875,-0.621093 v 1.582031 c 0,0.410156 -0.1054687,0.410156 -0.6914062,0.410156 v 0.269531 c 0.421875,-0.01172 0.5859375,-0.02344 1.0195312,-0.02344 0.4335938,0 0.55078127,0.01172 1.01953127,0.02344 v -0.269531 c -0.58593747,0 -0.69140627,0 -0.69140627,-0.410156 v -5.015625 h -0.2226562 z m -0.070312,1.933594 c 0,0.164062 0,0.199219 -0.140625,0.445312 -0.2226562,0.386719 -0.5976562,0.667969 -1.0664062,0.667969 -0.6679688,0 -1.2304688,-0.785156 -1.2304688,-1.792969 0,-1.042968 0.6328125,-1.792968 1.3242188,-1.792968 0.703125,0 1.1132812,0.75 1.1132812,1.242187 z m 4.8984375,-0.257813 c 0,0.796875 -0.4453125,1.371094 -1.0898437,1.371094 -0.75,0 -0.796875,-0.386719 -0.796875,-0.867187 v -2.964844 l -1.34765628,0.09375 v 0.28125 c 0.69140625,0 0.69140625,0.02344 0.69140625,0.820312 v 1.347657 c 0,0.585937 0,0.960937 0.41015625,1.277343 0.25781248,0.175782 0.62109378,0.234375 0.98437498,0.234375 0.46875,0 0.9023438,-0.199218 1.1601563,-0.738281 h 0.011719 v 0.738281 l 1.3242188,-0.09375 v -0.28125 c -0.609375,0 -0.6796875,-0.05859 -0.6796875,-0.503906 v -3.175781 l -1.359375,0.09375 v 0.28125 c 0.609375,0 0.6914062,0.05859 0.6914062,0.503906 z m 4.640625,0.855469 c 0.035156,0.375 0.3046875,0.703125 0.6914063,0.703125 0.2226562,0 0.7851562,-0.140625 0.7851562,-0.855469 v -0.503911 h -0.257815 v 0.492188 c 0,0.105468 0,0.550781 -0.3164062,0.550781 -0.328125,0 -0.328125,-0.433594 -0.328125,-0.574219 v -1.570312 c 0,-0.515625 0,-0.820313 -0.3984375,-1.183594 -0.328125,-0.292969 -0.7617188,-0.433594 -1.2070313,-0.433594 -0.7617187,0 -1.3828125,0.375 -1.3828125,0.949219 0,0.28125 0.1875,0.433594 0.421875,0.433594 0.234375,0 0.4101563,-0.175782 0.4101563,-0.410157 0,-0.386718 -0.3984375,-0.433593 -0.3984375,-0.433593 0.234375,-0.234375 0.6679687,-0.316407 0.9257812,-0.316407 0.4570313,0 0.9726563,0.339844 0.9726563,1.136719 v 0.292969 c -0.4921875,0.02344 -1.1601563,0.05859 -1.7578125,0.351562 -0.6445313,0.316407 -0.84375,0.773438 -0.84375,1.136719 0,0.738281 0.8671875,0.972656 1.4648437,0.972656 0.75,0 1.0898438,-0.492187 1.21875,-0.738281 z m -0.082031,-0.621094 c 0,0.867188 -0.6796875,1.136719 -1.0664063,1.136719 -0.421875,0 -0.8203125,-0.304687 -0.8203125,-0.75 0,-0.585937 0.515625,-1.21875 1.8867188,-1.277344 z M 10.90832,26.653703 9.5841016,26.759172 v 0.269531 c 0.6093754,0 0.6796874,0.07031 0.6796874,0.503906 v 4.652344 c 0,0.410156 -0.09375,0.410156 -0.6796874,0.410156 v 0.28125 c 0.4101562,-0.02344 0.5859374,-0.02344 0.9960934,-0.02344 0.421875,0 0.574219,0 1.019532,0.02344 v -0.28125 c -0.597657,0 -0.691407,0 -0.691407,-0.410156 z m 4.491211,3.046875 c -0.421875,-0.703125 -0.9375,-0.785156 -1.242187,-0.785156 -1.066407,0 -2.039063,0.855469 -2.039063,2.039062 0,1.136719 0.914063,2.015625 1.96875,2.015625 0.375,0 0.832031,-0.128906 1.21875,-0.621093 v 1.582031 c 0,0.410156 -0.105469,0.410156 -0.691406,0.410156 v 0.269531 c 0.421875,-0.01172 0.585937,-0.02344 1.019531,-0.02344 0.433594,0 0.550781,0.01172 1.019531,0.02344 v -0.269531 c -0.585937,0 -0.691406,0 -0.691406,-0.410156 v -5.015625 h -0.222656 z m -0.07031,1.933594 c 0,0.164062 0,0.199219 -0.140625,0.445312 -0.222657,0.386719 -0.597657,0.667969 -1.066407,0.667969 -0.667968,0 -1.230468,-0.785156 -1.230468,-1.792969 0,-1.042968 0.632812,-1.792968 1.324218,-1.792968 0.703125,0 1.113282,0.75 1.113282,1.242187 z m 4.898437,-0.257813 c 0,0.796875 -0.445312,1.371094 -1.089844,1.371094 -0.75,0 -0.796875,-0.386719 -0.796875,-0.867187 v -2.964844 l -1.347656,0.09375 v 0.28125 c 0.691406,0 0.691406,0.02344 0.691406,0.820312 v 1.347657 c 0,0.585937 0,0.960937 0.410157,1.277343 0.257812,0.175782 0.621093,0.234375 0.984375,0.234375 0.46875,0 0.902343,-0.199218 1.160156,-0.738281 h 0.01172 v 0.738281 l 1.324218,-0.09375 v -0.28125 c -0.609375,0 -0.679687,-0.05859 -0.679687,-0.503906 v -3.175781 l -1.359375,0.09375 v 0.28125 c 0.609375,0 0.691406,0.05859 0.691406,0.503906 z m 5.15625,-0.550781 c 0.199219,0 0.246094,0 0.246094,-0.1875 0,-0.925781 -0.503906,-1.78125 -1.652344,-1.78125 -1.078125,0 -1.921875,0.9375 -1.921875,2.050781 0,1.171875 0.949219,2.0625 2.039063,2.0625 1.089843,0 1.535156,-0.949218 1.535156,-1.160156 0,-0.05859 -0.04687,-0.117187 -0.128906,-0.117187 -0.09375,0 -0.117188,0.05859 -0.128907,0.09375 -0.304687,0.914062 -1.101562,0.9375 -1.230468,0.9375 -0.433594,0 -0.796875,-0.246094 -1.007813,-0.550782 -0.292969,-0.433593 -0.304687,-0.972656 -0.304687,-1.347656 z m -2.542969,-0.222656 c 0.08203,-1.371094 0.878907,-1.523438 1.136719,-1.523438 0.492188,0 1.03125,0.386719 1.042969,1.523438 z m 4.649415,0.222656 c 0,-0.375 0.105468,-1.6875 1.125,-1.6875 v 0.01172 c -0.02344,0.01172 -0.164063,0.117187 -0.164063,0.328125 0,0.246094 0.1875,0.398437 0.398438,0.398437 0.1875,0 0.386718,-0.140625 0.386718,-0.410156 0,-0.28125 -0.269531,-0.550781 -0.667968,-0.550781 -0.539063,0 -0.914063,0.375 -1.125,0.925781 v -0.925781 l -1.277344,0.09375 v 0.28125 c 0.609375,0 0.691406,0.05859 0.691406,0.503906 v 2.390625 c 0,0.410156 -0.105469,0.410156 -0.691406,0.410156 v 0.28125 c 0.46875,-0.02344 0.585937,-0.02344 1.042969,-0.02344 0.363281,0 0.574218,0 1.148437,0.02344 v -0.28125 h -0.1875 c -0.65625,0 -0.679687,-0.09375 -0.679687,-0.421875 z m 7.769531,-1.535156 v -0.28125 h -1.066406 v -1.007813 c 0,-0.820312 0.445312,-1.21875 0.832031,-1.21875 0.08203,0 0.175781,0.01172 0.269531,0.04687 -0.09375,0.03516 -0.234375,0.152344 -0.234375,0.375 0,0.234375 0.164063,0.386719 0.398438,0.386719 0.234375,0 0.398437,-0.164062 0.398437,-0.398437 0,-0.339844 -0.339844,-0.632813 -0.832031,-0.632813 -0.703125,0 -1.441406,0.527344 -1.441406,1.417969 v 1.03125 h -0.703125 v 0.28125 h 0.703125 v 2.894531 c 0,0.410156 -0.09375,0.410156 -0.679688,0.410156 v 0.28125 c 0.46875,-0.02344 0.585938,-0.02344 1.042969,-0.02344 0.363281,0 0.574219,0 1.136719,0.02344 v -0.28125 H 34.90832 c -0.65625,0 -0.679687,-0.09375 -0.679687,-0.421875 v -2.882812 z m 4.467773,1.675781 c 0,-1.171875 -0.925781,-2.109375 -2.027344,-2.109375 -1.148437,0 -2.050781,0.960938 -2.050781,2.109375 0,1.125 0.9375,2.003906 2.039063,2.003906 1.136718,0 2.039062,-0.902343 2.039062,-2.003906 z m -2.027344,1.757813 c -0.457031,0 -0.832031,-0.222657 -1.03125,-0.574219 -0.234375,-0.375 -0.246093,-0.855469 -0.246093,-1.265625 0,-0.328125 0,-0.84375 0.222656,-1.207031 0.269531,-0.457032 0.714844,-0.597657 1.042969,-0.597657 0.503906,0 0.878906,0.292969 1.054687,0.597657 0.210938,0.375 0.210938,0.832031 0.210938,1.207031 0,0.328125 0,0.855469 -0.222657,1.253906 -0.246093,0.410156 -0.65625,0.585938 -1.03125,0.585938 z m 3.893555,-1.898438 c 0,-0.375 0.105469,-1.6875 1.125,-1.6875 v 0.01172 c -0.02344,0.01172 -0.164062,0.117187 -0.164062,0.328125 0,0.246094 0.1875,0.398437 0.398437,0.398437 0.1875,0 0.386719,-0.140625 0.386719,-0.410156 0,-0.28125 -0.269531,-0.550781 -0.667969,-0.550781 -0.539062,0 -0.914062,0.375 -1.125,0.925781 v -0.925781 l -1.277344,0.09375 v 0.28125 c 0.609375,0 0.691407,0.05859 0.691407,0.503906 v 2.390625 c 0,0.410156 -0.105469,0.410156 -0.691407,0.410156 v 0.28125 c 0.46875,-0.02344 0.585938,-0.02344 1.042969,-0.02344 0.363281,0 0.574219,0 1.148438,0.02344 v -0.28125 h -0.1875 c -0.65625,0 -0.679688,-0.09375 -0.679688,-0.421875 z m 3.676758,-0.269531 c 0,-0.972656 0.703125,-1.417969 1.242187,-1.417969 0.492188,0 0.65625,0.351563 0.65625,0.972656 v 2.074219 c 0,0.410156 -0.105468,0.410156 -0.691406,0.410156 v 0.28125 c 0.421875,-0.02344 0.585938,-0.02344 1.019531,-0.02344 0.433594,0 0.550782,0 1.019532,0.02344 v -0.28125 c -0.585938,0 -0.691407,0 -0.691407,-0.410156 v -1.628906 c 0,-0.972656 0.703125,-1.417969 1.242188,-1.417969 0.492187,0 0.65625,0.351563 0.65625,0.972656 v 2.074219 c 0,0.410156 -0.105469,0.410156 -0.691406,0.410156 v 0.28125 c 0.421875,-0.02344 0.585937,-0.02344 1.019531,-0.02344 0.433594,0 0.550781,0 1.019531,0.02344 v -0.28125 c -0.457031,0 -0.679687,0 -0.691406,-0.269531 v -1.722656 c 0,-0.785156 0,-1.03125 -0.292969,-1.371094 -0.1875,-0.210937 -0.550781,-0.316406 -0.960937,-0.316406 -0.644532,0 -1.078125,0.375 -1.335938,0.855469 -0.105469,-0.539063 -0.46875,-0.855469 -1.21875,-0.855469 -0.714844,0 -1.148437,0.46875 -1.347656,0.878906 v -0.878906 l -1.300781,0.09375 v 0.28125 c 0.609375,0 0.691406,0.05859 0.691406,0.503906 v 2.390625 c 0,0.410156 -0.105469,0.410156 -0.691406,0.410156 v 0.28125 c 0.421875,-0.02344 0.585937,-0.02344 1.019531,-0.02344 0.433594,0 0.550781,0 1.019531,0.02344 v -0.28125 c -0.585937,0 -0.691406,0 -0.691406,-0.410156 z m 9.084961,1.675781 c 0.03516,0.375 0.304687,0.703125 0.691406,0.703125 0.222656,0 0.785156,-0.140625 0.785156,-0.855469 v -0.503906 h -0.257812 v 0.492188 c 0,0.105468 0,0.550781 -0.316406,0.550781 -0.328125,0 -0.328125,-0.433594 -0.328125,-0.574219 v -1.570312 c 0,-0.515625 0,-0.820313 -0.398438,-1.183594 -0.328125,-0.292969 -0.761719,-0.433594 -1.207031,-0.433594 -0.761719,0 -1.382813,0.375 -1.382813,0.949219 0,0.28125 0.1875,0.433594 0.421875,0.433594 0.234375,0 0.410157,-0.175782 0.410157,-0.410157 0,-0.386718 -0.398438,-0.433593 -0.398438,-0.433593 0.234375,-0.234375 0.667969,-0.316407 0.925781,-0.316407 0.457032,0 0.972657,0.339844 0.972657,1.136719 v 0.292969 c -0.492188,0.02344 -1.160157,0.05859 -1.757813,0.351562 -0.644531,0.316407 -0.84375,0.773438 -0.84375,1.136719 0,0.738281 0.867188,0.972656 1.464844,0.972656 0.75,0 1.089844,-0.492187 1.21875,-0.738281 z m -0.08203,-0.621094 c 0,0.867188 -0.679688,1.136719 -1.066407,1.136719 -0.421875,0 -0.820312,-0.304687 -0.820312,-0.75 0,-0.585937 0.515625,-1.21875 1.886719,-1.277344 z m 4.538086,-2.320312 v -0.28125 H 57.510862 V 27.368547 H 57.25305 c 0,0.75 -0.316406,1.675781 -1.183594,1.699219 v 0.222656 h 0.773438 v 2.472656 c 0,1.007813 0.726562,1.207031 1.207031,1.207031 0.597656,0 0.914062,-0.574218 0.914062,-1.207031 v -0.503906 h -0.257812 v 0.480469 c 0,0.65625 -0.28125,0.984375 -0.597656,0.984375 -0.597657,0 -0.597657,-0.785157 -0.597657,-0.949219 v -2.484375 z m 4.992187,1.675781 c 0,-1.171875 -0.925781,-2.109375 -2.027344,-2.109375 -1.148437,0 -2.050781,0.960938 -2.050781,2.109375 0,1.125 0.9375,2.003906 2.039063,2.003906 1.136718,0 2.039062,-0.902343 2.039062,-2.003906 z m -2.027344,1.757813 c -0.457031,0 -0.832031,-0.222657 -1.03125,-0.574219 -0.234375,-0.375 -0.246093,-0.855469 -0.246093,-1.265625 0,-0.328125 0,-0.84375 0.222656,-1.207031 0.269531,-0.457032 0.714844,-0.597657 1.042969,-0.597657 0.503906,0 0.878906,0.292969 1.054687,0.597657 0.210938,0.375 0.210938,0.832031 0.210938,1.207031 0,0.328125 0,0.855469 -0.222657,1.253906 -0.246093,0.410156 -0.65625,0.585938 -1.03125,0.585938 z m 0,0"
         style="fill:#000000;fill-opacity:1;fill-rule:nonzero;stroke:none" />
    </g>
    <path
       id="path24"
       d="M 50.11394,0 H 80.85506"
       style="fill:none;stroke:#a6a6a6;stroke-width:0.79703;stroke-linecap:butt;stroke-linejoin:miter;stroke-miterlimit:10;stroke-dasharray:none;stroke-opacity:1"
       transform="matrix(1.3333333,0,0,-1.3333333,102.24133,115.09067)" />
    <path
       id="path25"
       d="M 5.4404,0 1.28699,1.5706 2.6643,0 1.28699,-1.5706 Z"
       style="fill:#a6a6a6;fill-opacity:1;fill-rule:nonzero;stroke:#a6a6a6;stroke-width:0.79703;stroke-linecap:butt;stroke-linejoin:miter;stroke-miterlimit:10;stroke-dasharray:none;stroke-opacity:1"
       transform="matrix(1.3333333,0,0,-1.3333333,206.76133,115.09067)" />
    <path
       id="path26"
       d="m 177.39786,12.79536 76.42862,29.78826"
       style="fill:none;stroke:#a6a6a6;stroke-width:0.79703;stroke-linecap:butt;stroke-linejoin:miter;stroke-miterlimit:10;stroke-dasharray:none;stroke-opacity:1"
       transform="matrix(1.3333333,0,0,-1.3333333,102.24133,115.09067)" />
    <path
       id="path27"
       d="M 5.4404,0 1.28699,1.5706 2.6643,0 1.28699,-1.5706 Z"
       style="fill:#a6a6a6;fill-opacity:1;fill-rule:nonzero;stroke:#a6a6a6;stroke-width:0.79703;stroke-linecap:butt;stroke-linejoin:miter;stroke-miterlimit:10;stroke-dasharray:none;stroke-opacity:1"
       transform="matrix(1.2422533,-0.48414667,-0.48414667,-1.2422533,437.61447,59.505973)" />
    <path
       id="path28"
       d="m 177.38722,-12.8004 76.22884,-29.73119"
       style="fill:none;stroke:#a6a6a6;stroke-width:0.79703;stroke-linecap:butt;stroke-linejoin:miter;stroke-miterlimit:10;stroke-dasharray:none;stroke-opacity:1"
       transform="matrix(1.3333333,0,0,-1.3333333,102.24133,115.09067)" />
    <path
       id="path29"
       d="M 5.4404,0 1.28699,1.5706 2.6643,0 1.28699,-1.5706 Z"
       style="fill:#a6a6a6;fill-opacity:1;fill-rule:nonzero;stroke:#a6a6a6;stroke-width:0.79703;stroke-linecap:butt;stroke-linejoin:miter;stroke-miterlimit:10;stroke-dasharray:none;stroke-opacity:1"
       transform="matrix(1.2421333,0.48445333,0.48445333,-1.2421333,437.33417,170.60524)" />
    <path
       id="path30"
       d="m 3.5794025,-2.1115481 c 0.00305,-0.6049888 -0.2855305,-0.9578672 -1.0385727,-0.9534886 -0.5679754,-0.0049 -0.9275138,0.2988505 -1.1352855,0.6692058 l 0.00359,-0.6680971 -1.03211568,0.062905 0.002078,0.2633518 c 0.46359531,-0.0047 0.5328187,0.043775 0.52769215,0.3854117 l -0.002484,1.79978958 c 0.003935,0.3003652 -0.0700916,0.30407856 -0.52276859,0.30452205 l -0.00218,0.2524335 C 0.39027448,2.2729e-4 0.8823665,-0.02816789 1.1718134,-0.02784466 c 0.2633518,-0.0020784 0.7354638,0.01505644 0.8028305,0.02651976 l 0.00218,-0.25243351 C 1.5241501,-0.25331452 1.4610417,-0.2538595 1.4571066,-0.5542247 l 0.00424,-1.2469908 c -1.203e-4,-0.7421239 0.5620633,-1.0745976 1.0256586,-1.0792994 0.4896904,-0.0023 0.5428689,0.3920717 0.5420006,0.744627 l 0.00155,1.58436934 c 0.00394,0.3003652 -0.059173,0.29982022 -0.5118502,0.30026371 l -0.00218,0.2524335 c 0.010918,-0.00425834 0.5072686,-0.02173518 0.8076338,-0.02567029 0.2524335,0.0021799 0.7245455,0.01931478 0.7919123,0.03077809 l 0.00218,-0.2524335 C 3.6613182,-0.2566219 3.5872914,-0.25290854 3.5833563,-0.55327374 Z M 7.5261209,-4.691762 c -0.2085384,0.2071252 -0.4074701,0.3098704 -0.6077136,0.3124938 -0.1741484,0.00502 -0.379962,-0.1033917 -0.444927,-0.14095 -0.2428269,-0.10656 -0.405512,-0.1689016 -0.5578238,-0.1723933 -0.2742702,0.00634 -0.3839985,0.1120286 -0.8143953,0.5566324 l 0.1293851,0.138225 c 0.2085384,-0.2071252 0.4183885,-0.3141287 0.618632,-0.3167521 0.1741484,-0.00502 0.3733019,0.1185683 0.4340086,0.1452083 0.2580036,0.11322 0.405512,0.1689017 0.5578238,0.1723933 0.2742702,-0.00634 0.3882569,-0.1011102 0.8143954,-0.5566323 z m -0.020594,2.8257648 c -0.00765,-0.3743919 0.00119,-0.6420021 -0.3164289,-0.9080788 -0.2896686,-0.2266617 -0.6326172,-0.33191 -1.0331041,-0.3266632 -0.6680971,-0.00359 -1.122954,0.2492839 -1.1243672,0.6649475 2.217e-4,0.2263385 0.1429269,0.3342101 0.3213337,0.3401034 0.1893251,0.00163 0.3275501,-0.1277502 0.3291851,-0.3170753 0.00109,-0.1262168 -0.054269,-0.2681552 -0.2430486,-0.3328985 0.2474084,-0.1719685 0.6521537,-0.166297 0.7000854,-0.172412 0.3895686,-9.885e-4 0.8073106,0.2637766 0.8066641,0.8426703 l 2.218e-4,0.2263385 c -0.3701336,0.018567 -0.8403889,0.038445 -1.3359725,0.2191522 -0.630862,0.2208887 -0.8191987,0.6088224 -0.8219236,0.92436427 -0.00305,0.60498874 0.7331824,0.78327528 1.2228728,0.78097512 0.5418803,0.0025032 0.8777254,-0.32974885 1.0279588,-0.58960907 0.00634,0.27427018 0.2019986,0.5501753 0.5284589,0.54864185 0.015177,0.00666 0.6941921,0.0059948 0.6977852,-0.66210234 l -0.00765,-0.37439193 -0.2415151,-0.00644 0.00765,0.37439188 c -0.011463,0.0673667 -0.00993,0.39382693 -0.2732817,0.39590535 -0.2524335,-0.00218 -0.2539669,-0.32864013 -0.246762,-0.40692519 z M 6.9560172,-0.98498307 C 6.9524241,-0.31688596 6.3718954,-0.1282073 6.0606119,-0.12001386 5.69288,-0.12754208 5.3619397,-0.36326546 5.3670662,-0.70490235 5.3660778,-1.0944709 5.6992995,-1.6269664 6.9510936,-1.6749169 Z M 12.052393,-1.4883155 c 9.69e-4,-0.8683406 -0.745533,-1.6212625 -1.713995,-1.6209205 -0.9532861,0.007 -1.706208,0.7535044 -1.7071778,1.621845 -9.697e-4,0.86834053 0.7830911,1.5562974 1.7145398,1.55781209 0.942368,-0.0027437 1.705663,-0.69039603 1.706633,-1.55873659 z m -1.706855,1.33239811 C 10.093105,-0.15809731 9.7107414,-0.2353939 9.4895294,-0.57680906 9.3005276,-0.86789086 9.2710424,-1.2337661 9.2737673,-1.549308 c -0.00394,-0.3003652 0.0084,-0.7202871 0.2502348,-1.0032957 0.1781851,-0.2204452 0.4644636,-0.3572571 0.8127609,-0.3673072 0.415663,0.00141 0.707733,0.2019799 0.866927,0.4166333 0.195662,0.2759051 0.227549,0.6156854 0.222422,0.9573223 0.0015,0.3264602 -0.02783,0.70270876 -0.232656,0.98386069 -0.17207,0.2683769 -0.506281,0.41130377 -0.847918,0.40617722 z m 0,0"
       style="fill:#a6a6a6;fill-opacity:1;fill-rule:nonzero;stroke:none"
       aria-label="n˜ao"
       transform="matrix(1.2421333,0.48445333,-0.48445333,1.2421333,386.26533,145.36533)" />
  </g>
</svg>
