<?xml version="1.0" encoding="UTF-8" standalone="no"?>
<!-- Created with Inkscape (http://www.inkscape.org/) -->

<svg
   version="1.1"
   id="svg1"
   width="398.63599"
   height="211.38"
   viewBox="0 0 398.63599 211.38"
   xmlns="http://www.w3.org/2000/svg"
   xmlns:svg="http://www.w3.org/2000/svg">
  <defs
     id="defs1" />
  <g
     id="g1">
    <path
       id="path1"
       d="M -34.01566,-22.67723 147.40143,-45.35448 175.74788,62.36209 -5.6692,85.03934 Z"
       style="fill:#e5eef4;fill-opacity:1;fill-rule:nonzero;stroke:#2471a3;stroke-width:0.79703;stroke-linecap:butt;stroke-linejoin:miter;stroke-miterlimit:10;stroke-dasharray:none;stroke-opacity:1"
       transform="matrix(1.3333333,0,0,-1.3333333,101.26,150.376)" />
    <g
       id="g2"
       aria-label="S=span(φ&#10;1&#10;,φ&#10;2&#10;)"
       transform="matrix(1.3333333,0,0,1.3333333,92.726667,179.82133)">
      <path
         id="path2"
         d="m 1.0546094,-1.9695156 c 0.3984375,-0.1875 0.421875,-0.3398438 0.421875,-0.3632813 0,-0.046875 -0.046875,-0.058594 -0.09375,-0.058594 -0.3398438,0 -1.20703128,0.4101562 -1.20703128,1.265625 0,0.64453123 0.76171875,1.32421873 1.86328128,1.32421873 1.5234375,0 3.234375,-1.03125 3.234375,-2.23828123 0,-0.8671875 -0.9257813,-1.265625 -1.6289063,-1.5703125 -0.3046875,-0.1289063 -1.1367187,-0.4804688 -1.1367187,-1.1835938 0,-0.3046875 0.1640625,-0.6328125 0.3867187,-0.796875 0.2109375,-0.1523437 0.609375,-0.2226562 0.9023438,-0.2226562 0.1171875,0 0.4804687,0.011719 0.84375,0.1640625 0.1992187,0.082031 0.4570312,0.1875 0.4570312,0.5976562 0,0.1054688 -0.023437,0.2226563 -0.035156,0.2226563 -0.011719,0.035156 -0.011719,0.09375 -0.011719,0.1171875 0,0.035156 0.011719,0.070312 0.082031,0.070312 0.1171875,0 0.4101562,-0.140625 0.5507812,-0.2578125 0.09375,-0.1054688 0.1992188,-0.2109375 0.1992188,-0.5507813 0,-0.4453125 -0.2929688,-0.5859375 -0.515625,-0.6796875 -0.421875,-0.1875 -0.84375,-0.1875 -0.9609375,-0.1875 -1.2070313,0 -2.671875,0.890625 -2.671875,1.921875 0,0.7617188 0.8554687,1.1367188 1.21875,1.2890625 0.6679687,0.28125 1.5351562,0.6679688 1.5351562,1.453125 0,0.328125 -0.1640625,0.78515628 -0.5390625,1.03125003 -0.3515625,0.234375 -0.9492187,0.31640625 -1.3007812,0.31640625 -0.9257813,0 -1.69921878,-0.59765625 -1.69921878,-1.20703128 0,-0.1640625 0.0351563,-0.3164062 0.10546908,-0.4570304 z m 0,0"
         style="fill:#2471a3;fill-opacity:1;fill-rule:nonzero;stroke:none" />
      <path
         id="path3"
         d="m 15.161055,-2.9656094 c 0.117187,0 0.292968,0 0.292968,-0.1875 0,-0.1992187 -0.199218,-0.1992187 -0.328125,-0.1992187 H 9.6532422 c -0.140625,0 -0.328125,0 -0.328125,0.1992187 0,0.1875 0.1757812,0.1875 0.2929687,0.1875 z m -0.03516,1.828125 c 0.128907,0 0.328125,0 0.328125,-0.1992187 0,-0.1875 -0.175781,-0.1875 -0.292968,-0.1875 H 9.6180859 c -0.1171875,0 -0.2929687,0 -0.2929687,0.1875 0,0.1992187 0.1875,0.1992187 0.328125,0.1992187 z m 0,0"
         style="fill:#2471a3;fill-opacity:1;fill-rule:nonzero;stroke:none" />
      <path
         id="path4"
         d="m 22.095625,-3.3523281 c -0.386719,0.035156 -0.421875,0.3398437 -0.421875,0.3984375 0,0.1523437 0.117187,0.2695312 0.28125,0.2695312 0.257812,0 0.421875,-0.1992187 0.421875,-0.5039062 0,-0.4453125 -0.433594,-0.7734375 -1.101563,-0.7734375 -1.195312,0 -1.535156,0.890625 -1.535156,1.3125 0,0.3398437 0.164063,0.515625 0.28125,0.6210937 0.175781,0.1757813 0.421875,0.2226563 0.738281,0.2929688 0.410157,0.070312 0.503907,0.09375 0.65625,0.2109375 0.152344,0.1054687 0.222657,0.2460937 0.222657,0.4335937 0,0.23437503 -0.210938,0.96093753 -1.289063,0.96093753 -0.210937,0 -0.84375,-0.0234375 -1.03125,-0.43359375 0.445313,0 0.527344,-0.36328125 0.527344,-0.49218748 0,-0.2578125 -0.234375,-0.3164063 -0.339844,-0.3164063 -0.152344,0 -0.492187,0.1289063 -0.492187,0.58593753 0,0.5625 0.5625,0.87890625 1.324218,0.87890625 1.5,0 1.839844,-1.10156248 1.839844,-1.48828128 0,-0.3398437 -0.1875,-0.5507812 -0.304687,-0.65625 -0.234375,-0.2460937 -0.515625,-0.2929687 -0.832032,-0.3632812 -0.105468,-0.023437 -0.304687,-0.058594 -0.328125,-0.070312 -0.292968,-0.058594 -0.457031,-0.2460938 -0.457031,-0.46875 0,-0.09375 0.05859,-0.3867188 0.316406,-0.5742188 0.246094,-0.1992187 0.585938,-0.2109375 0.703125,-0.2109375 0.316407,0 0.679688,0.09375 0.820313,0.3867183 z m 1.139648,4.4765625 c -0.05859,0.2578125 -0.08203,0.3398437 -0.46875,0.3398437 -0.09375,0 -0.199218,0 -0.199218,0.1523438 0,0.046875 0.01172,0.1171875 0.117187,0.1171875 l 0.386719,-0.011719 c 0.04687,-0.011719 0.257812,-0.011719 0.386719,-0.011719 0.152343,0 0.304687,0.011719 0.457031,0.011719 0.140625,0 0.292969,0.011719 0.421875,0.011719 0.05859,0 0.175781,0 0.175781,-0.1523438 0,-0.1171875 -0.09375,-0.1171875 -0.246094,-0.1171875 -0.421875,0 -0.421875,-0.070312 -0.421875,-0.1523437 0,-0.046875 0.07031,-0.2929688 0.105469,-0.43359377 l 0.328125,-1.3359375 c 0.09375,0.1875 0.339844,0.55078125 0.855469,0.55078125 1.042969,0 2.191406,-1.25390628 2.191406,-2.60156248 0,-0.9140625 -0.5625,-1.453125 -1.242187,-1.453125 -0.1875,0 -0.632813,0.046875 -1.183594,0.65625 -0.128906,-0.5039063 -0.539063,-0.65625 -0.84375,-0.65625 -0.375,0 -0.5625,0.28125 -0.691406,0.515625 -0.152344,0.3164062 -0.28125,0.8320312 -0.28125,0.8671875 0,0.082031 0.07031,0.1054687 0.128906,0.1054687 0.09375,0 0.117187,-0.046875 0.164062,-0.2226562 0.164063,-0.7148438 0.351563,-1.0429688 0.65625,-1.0429688 0.269532,0 0.269532,0.28125 0.269532,0.421875 0,0.070312 -0.01172,0.2109375 -0.02344,0.28125 z m 1.628907,-3.890625 c 0.03516,-0.1757813 0.03516,-0.1875 0.152343,-0.328125 0.246094,-0.3046875 0.65625,-0.6445313 1.054688,-0.6445313 0.421875,0 0.585937,0.421875 0.585937,0.84375 0,0.3984375 -0.246093,1.5117188 -0.527343,1.99218753 -0.304688,0.50390625 -0.679688,0.7734375 -1.007813,0.7734375 -0.585937,0 -0.726562,-0.703125 -0.726562,-0.76171875 0,-0.0585938 0.01172,-0.10546875 0.02344,-0.15234378 z m 6.008789,-0.6445313 c -0.164063,-0.3164062 -0.445313,-0.5507812 -0.84375,-0.5507812 -1.042969,0 -2.203125,1.2304687 -2.203125,2.6015625 0,0.99609373 0.632812,1.45312498 1.230468,1.45312498 0.585938,0 1.054688,-0.48046875 1.195313,-0.64453125 0.105469,0.4921875 0.550781,0.64453125 0.84375,0.64453125 0.257812,0 0.480469,-0.1171875 0.679687,-0.4921875 0.152344,-0.29296875 0.28125,-0.84374998 0.28125,-0.87890628 0,-0.046875 -0.02344,-0.1171875 -0.117187,-0.1171875 -0.105469,0 -0.117188,0.046875 -0.152344,0.2226563 -0.199219,0.77343748 -0.386719,1.04296873 -0.667969,1.04296873 -0.222656,0 -0.28125,-0.2109375 -0.28125,-0.41015625 0,-0.1640625 0.04687,-0.3515625 0.128907,-0.66796878 l 0.222656,-0.9140625 c 0.05859,-0.2226562 0.222656,-0.9023437 0.257812,-1.03125 0.03516,-0.1289062 0.09375,-0.3398437 0.09375,-0.375 0,-0.140625 -0.117187,-0.2578125 -0.28125,-0.2578125 -0.117187,0 -0.339843,0.070312 -0.386718,0.375 z m -0.574219,2.3203125 c -0.04687,0.16406253 -0.04687,0.17578128 -0.199219,0.35156253 -0.316406,0.375 -0.679687,0.609375 -1.019531,0.609375 -0.433594,0 -0.585938,-0.45703125 -0.585938,-0.84375 0,-0.43359373 0.257813,-1.46484373 0.46875,-1.89843753 0.292969,-0.5390625 0.703125,-0.8671875 1.066407,-0.8671875 0.597656,0 0.726562,0.7148438 0.726562,0.7851563 0,0.035156 -0.01172,0.09375 -0.02344,0.1289062 z m 3.732422,-0.3164062 c 0.09375,-0.421875 0.269531,-1.078125 0.269531,-1.1484375 0.02344,-0.058594 0.246094,-0.4804688 0.5625,-0.796875 0.269531,-0.2460938 0.609375,-0.3867188 0.960938,-0.3867188 0.480468,0 0.480468,0.4804688 0.480468,0.6328125 0,0.5390625 -0.421875,1.640625 -0.515625,1.9101563 -0.117187,0.28124998 -0.152343,0.37499998 -0.152343,0.53906248 0,0.48046875 0.375,0.75 0.773437,0.75 0.867188,0 1.207031,-1.27734378 1.207031,-1.37109378 0,-0.046875 -0.02344,-0.1171875 -0.117187,-0.1171875 -0.09375,0 -0.105469,0.046875 -0.140625,0.1640625 -0.222656,0.76171878 -0.597656,1.10156253 -0.925781,1.10156253 -0.05859,0 -0.222657,0 -0.222657,-0.28125 0,-0.22265625 0.09375,-0.45703125 0.164063,-0.65625003 0.175781,-0.4570312 0.539062,-1.40625 0.539062,-1.9101562 0,-0.796875 -0.597656,-0.984375 -1.066406,-0.984375 -0.832031,0 -1.277344,0.5859375 -1.417969,0.7734375 -0.05859,-0.4804688 -0.421875,-0.7734375 -0.867187,-0.7734375 -0.375,0 -0.5625,0.28125 -0.691406,0.515625 -0.152344,0.3164062 -0.28125,0.8320312 -0.28125,0.8671875 0,0.082031 0.07031,0.1054687 0.128906,0.1054687 0.09375,0 0.117187,-0.046875 0.164062,-0.2226562 0.164063,-0.7148438 0.351563,-1.0429688 0.65625,-1.0429688 0.269532,0 0.269532,0.28125 0.269532,0.421875 0,0.1875 -0.07031,0.46875 -0.117188,0.703125 -0.07031,0.234375 -0.152344,0.609375 -0.199219,0.7265625 l -0.351562,1.46484378 c -0.07031,0.2109375 -0.07031,0.234375 -0.07031,0.2578125 0,0.1171875 0.08203,0.2578125 0.28125,0.2578125 0.128907,0 0.257813,-0.0703125 0.328125,-0.1875 0.02344,-0.046875 0.09375,-0.33984375 0.140625,-0.515625 z m 0,0"
         style="fill:#2471a3;fill-opacity:1;fill-rule:nonzero;stroke:none" />
      <path
         id="path5"
         d="m 40.951094,2.1320469 c 0,-0.046875 -0.02344,-0.070312 -0.08203,-0.1289063 -1.160156,-1.06640622 -1.511718,-2.67187497 -1.511718,-4.2421875 0,-1.3945312 0.269531,-3.0820312 1.535156,-4.2773437 0.03516,-0.035156 0.05859,-0.070312 0.05859,-0.1054688 0,-0.070312 -0.04687,-0.1054687 -0.105469,-0.1054687 -0.105469,0 -0.914063,0.6445312 -1.40625,1.6289062 -0.421875,0.8554688 -0.644531,1.78125 -0.644531,2.8476563 0,0.6445312 0.08203,1.66406248 0.574218,2.73046873 0.527344,1.10156247 1.371094,1.74609377 1.476563,1.74609377 0.05859,0 0.105469,-0.035156 0.105469,-0.09375 z m 0,0"
         style="fill:#2471a3;fill-opacity:1;fill-rule:nonzero;stroke:none" />
      <path
         id="path6"
         d="m 43.936445,0.08126563 c 0.07031,0.01171875 0.140625,0.01171875 0.304688,0.01171875 1.523437,0 2.917969,-1.37109378 2.917969,-2.78906248 0,-0.75 -0.386719,-1.265625 -1.066407,-1.265625 -1.382812,0 -1.980468,2.0390625 -2.402343,3.44531248 -0.9375,-0.1640625 -1.5,-0.63281248 -1.5,-1.30078128 0,-0.234375 0.210937,-1.21875 0.75,-1.828125 0.08203,-0.070312 0.08203,-0.09375 0.08203,-0.1171875 0,-0.011719 0,-0.1054687 -0.117188,-0.1054687 -0.292968,0 -0.972656,1.3242187 -0.972656,2.15625 0,0.97265623 0.785156,1.54687498 1.582031,1.73437498 -0.175781,0.55078125 -0.515625,1.59375002 -0.515625,1.67578122 0,0.1523438 0.140625,0.2578125 0.28125,0.2578125 0.01172,0 0.304688,0 0.375,-0.3398437 0.09375,-0.4101563 0.199219,-1.05468752 0.281251,-1.53515627 z m 0.105469,-0.55078125 c 0.02344,-0.1171875 0.08203,-0.421875 0.09375,-0.55078128 0.08203,-0.4101562 0.199219,-1.0898437 0.667969,-1.6757812 0.304687,-0.3984375 0.691406,-0.7148438 1.207031,-0.7148438 0.503906,0 0.867188,0.3398438 0.867188,0.9023438 0,0.9960937 -1.160157,2.05078123 -2.554688,2.05078123 -0.09375,0 -0.199219,0 -0.28125,-0.0117188 z m 0,0"
         style="fill:#2471a3;fill-opacity:1;fill-rule:nonzero;stroke:none" />
      <path
         id="path7"
         d="m 49.637617,-2.8015469 c 0,-0.1757812 -0.02344,-0.1757812 -0.199219,-0.1757812 -0.398437,0.375 -1.007812,0.375 -1.21875,0.375 v 0.234375 c 0.152344,0 0.550782,0 0.902344,-0.1640625 v 3.02343748 c 0,0.1875 0,0.26953125 -0.609375,0.26953125 h -0.257812 v 0.234375 c 0.328125,-0.0234375 0.796875,-0.0234375 1.125,-0.0234375 0.339843,0 0.796875,0 1.136718,0.0234375 v -0.234375 h -0.257812 c -0.621094,0 -0.621094,-0.0820313 -0.621094,-0.26953125 z m 0,0"
         style="fill:#2471a3;fill-opacity:1;fill-rule:nonzero;stroke:none" />
      <path
         id="path8"
         d="m 53.273359,-0.14139062 c 0,0.29296875 0,1.03125 -0.65625,1.66406252 -0.05859,0.058594 -0.05859,0.058594 -0.05859,0.09375 0,0.070312 0.05859,0.1171875 0.117187,0.1171875 0.09375,0 0.820313,-0.703125 0.820313,-1.75781252 0,-0.55078125 -0.1875,-0.94921875 -0.574219,-0.94921875 -0.304688,0 -0.492188,0.234375 -0.492188,0.4921875 0,0.24609375 0.1875,0.480468745 0.492188,0.480468745 0.128906,0 0.269531,-0.046874995 0.351562,-0.140624995 z m 4.924805,0.22265625 c 0.07031,0.01171875 0.140625,0.01171875 0.304688,0.01171875 1.523437,0 2.917968,-1.37109378 2.917968,-2.78906248 0,-0.75 -0.386718,-1.265625 -1.066406,-1.265625 -1.382812,0 -1.980469,2.0390625 -2.402344,3.44531248 -0.9375,-0.1640625 -1.5,-0.63281248 -1.5,-1.30078128 0,-0.234375 0.210938,-1.21875 0.75,-1.828125 0.08203,-0.070312 0.08203,-0.09375 0.08203,-0.1171875 0,-0.011719 0,-0.1054687 -0.117188,-0.1054687 -0.292969,0 -0.972656,1.3242187 -0.972656,2.15625 0,0.97265623 0.785156,1.54687498 1.582031,1.73437498 -0.175781,0.55078125 -0.515625,1.59375002 -0.515625,1.67578122 0,0.1523438 0.140625,0.2578125 0.28125,0.2578125 0.01172,0 0.304688,0 0.375,-0.3398437 0.09375,-0.4101563 0.199219,-1.05468752 0.28125,-1.53515627 z m 0.105469,-0.55078125 c 0.02344,-0.1171875 0.08203,-0.421875 0.09375,-0.55078128 0.08203,-0.4101562 0.199219,-1.0898437 0.667969,-1.6757812 0.304687,-0.3984375 0.691406,-0.7148438 1.207031,-0.7148438 0.503906,0 0.867187,0.3398438 0.867187,0.9023438 0,0.9960937 -1.160156,2.05078123 -2.554687,2.05078123 -0.09375,0 -0.199219,0 -0.28125,-0.0117188 z m 0,0"
         style="fill:#2471a3;fill-opacity:1;fill-rule:nonzero;stroke:none" />
      <path
         id="path9"
         d="m 64.968672,-0.11795312 h -0.210938 c -0.02344,0.08203125 -0.08203,0.46875 -0.164062,0.5390625 -0.04687,0.0351563 -0.527344,0.0351563 -0.609375,0.0351563 h -1.125 l 0.773437,-0.62109375 c 0.199219,-0.1640625 0.726563,-0.5390625 0.914063,-0.7265625 0.175781,-0.17578123 0.421875,-0.48046873 0.421875,-0.90234373 0,-0.7500001 -0.667969,-1.1835938 -1.476563,-1.1835938 -0.761718,0 -1.300781,0.5039062 -1.300781,1.0664063 0,0.3046875 0.257813,0.3398437 0.316406,0.3398437 0.152344,0 0.328125,-0.1054687 0.328125,-0.3164062 0,-0.1406251 -0.08203,-0.3281251 -0.339843,-0.3281251 0.128906,-0.3046875 0.503906,-0.5273437 0.914062,-0.5273437 0.621094,0 0.960938,0.46875 0.960938,0.9492187 0,0.421875 -0.28125,0.85546883 -0.703125,1.24218758 l -1.417969,1.30078125 c -0.05859,0.0585938 -0.05859,0.0585938 -0.05859,0.24609375 h 2.601563 z m 0,0"
         style="fill:#2471a3;fill-opacity:1;fill-rule:nonzero;stroke:none" />
      <path
         id="path10"
         d="m 68.580977,-2.2507656 c 0,-0.7382813 -0.105469,-1.7226563 -0.574219,-2.71875 -0.527344,-1.1015625 -1.359375,-1.7578125 -1.464844,-1.7578125 -0.09375,0 -0.117187,0.070312 -0.117187,0.1054687 0,0.035156 0.02344,0.070312 0.08203,0.1289063 0.527344,0.46875 1.511719,1.6875 1.511719,4.2421875 0,1.27734373 -0.234375,3.07031248 -1.535157,4.2773437 -0.02344,0.023437 -0.05859,0.058594 -0.05859,0.1054688 0,0.023437 0.02344,0.09375 0.117187,0.09375 0.105469,0 0.914063,-0.6445313 1.394531,-1.61718752 0.433594,-0.85546875 0.644532,-1.78124998 0.644532,-2.85937498 z m 0,0"
         style="fill:#2471a3;fill-opacity:1;fill-rule:nonzero;stroke:none" />
    </g>
    <path
       id="path11"
       d="M 0,0 110.85889,-24.94315"
       style="fill:none;stroke:#2471a3;stroke-width:0.79703;stroke-linecap:butt;stroke-linejoin:miter;stroke-miterlimit:10;stroke-dasharray:none;stroke-opacity:1"
       transform="matrix(1.3333333,0,0,-1.3333333,101.26,150.376)" />
    <path
       id="path12"
       d="M 2.59024,0 -1.55415,2.07219 0,0 -1.55415,-2.07219"
       style="fill:#2471a3;fill-opacity:1;fill-rule:nonzero;stroke:none"
       transform="matrix(1.3007467,0.29262667,0.29262667,-1.3007467,249.07183,183.63353)" />
    <g
       id="g12"
       aria-label="φ&#10;1&#10;(colunadointercepto)"
       transform="matrix(1.3333333,0,0,1.3333333,257.4,198.316)">
      <path
         id="path13"
         d="m 2.4597656,0.08233594 c 0.070312,0.01171875 0.140625,0.01171875 0.3046875,0.01171875 1.5234375,0 2.9179688,-1.37109379 2.9179688,-2.78906249 0,-0.75 -0.3867188,-1.265625 -1.0664063,-1.265625 -1.3828125,0 -1.9804687,2.0390625 -2.4023437,3.44531249 -0.9375,-0.1640625 -1.50000002,-0.63281249 -1.50000002,-1.30078129 0,-0.234375 0.2109375,-1.21875 0.75000002,-1.828125 0.082031,-0.070312 0.082031,-0.09375 0.082031,-0.1171875 0,-0.011719 0,-0.1054687 -0.1171875,-0.1054687 -0.2929687,0 -0.97265622,1.3242187 -0.97265622,2.15625 0,0.97265624 0.78515622,1.54687499 1.58203122,1.73437499 -0.1757812,0.55078125 -0.515625,1.59375001 -0.515625,1.67578121 0,0.1523438 0.140625,0.2578125 0.28125,0.2578125 0.011719,0 0.3046875,0 0.375,-0.3398437 0.09375,-0.4101563 0.1992188,-1.05468751 0.2812502,-1.53515626 z m 0.1054688,-0.55078125 c 0.023437,-0.1171875 0.082031,-0.421875 0.09375,-0.55078129 0.082031,-0.4101562 0.1992187,-1.0898437 0.6679687,-1.6757812 0.3046875,-0.3984375 0.6914063,-0.7148438 1.2070313,-0.7148438 0.5039062,0 0.8671875,0.3398438 0.8671875,0.9023438 0,0.9960937 -1.1601563,2.05078124 -2.5546875,2.05078124 -0.09375,0 -0.1992188,0 -0.28125,-0.0117188 z m 0,0"
         style="fill:#2471a3;fill-opacity:1;fill-rule:nonzero;stroke:none" />
      <path
         id="path14"
         d="m 8.1638672,-2.8004766 c 0,-0.1757812 -0.023437,-0.1757812 -0.1992188,-0.1757812 -0.3984375,0.375 -1.0078125,0.375 -1.21875,0.375 v 0.234375 c 0.1523438,0 0.5507813,0 0.9023438,-0.1640625 v 3.02343749 c 0,0.1875 0,0.26953125 -0.609375,0.26953125 H 6.7810547 v 0.234375 c 0.328125,-0.0234375 0.796875,-0.0234375 1.125,-0.0234375 0.3398437,0 0.796875,0 1.1367187,0.0234375 v -0.234375 H 8.7849609 c -0.6210937,0 -0.6210937,-0.0820313 -0.6210937,-0.26953125 z m 0,0"
         style="fill:#2471a3;fill-opacity:1;fill-rule:nonzero;stroke:none" />
      <path
         id="path15"
         d="m 16.299609,2.1331172 c 0,-0.046875 -0.02344,-0.070312 -0.08203,-0.1289063 -1.160156,-1.06640621 -1.511719,-2.67187496 -1.511719,-4.2421875 0,-1.3945312 0.269532,-3.0820312 1.535157,-4.2773437 0.03516,-0.035156 0.05859,-0.070312 0.05859,-0.1054688 0,-0.070312 -0.04687,-0.1054687 -0.105468,-0.1054687 -0.105469,0 -0.914063,0.6445312 -1.40625,1.6289062 -0.421875,0.8554688 -0.644532,1.78125 -0.644532,2.8476563 0,0.6445312 0.08203,1.66406249 0.574219,2.73046874 0.527344,1.10156246 1.371094,1.74609376 1.476563,1.74609376 0.05859,0 0.105468,-0.035156 0.105468,-0.09375 z m 3.782227,-5.6601563 c -0.1875,0.035156 -0.363281,0.1640625 -0.363281,0.421875 0,0.234375 0.175781,0.421875 0.410156,0.421875 0.234375,0 0.421875,-0.1640625 0.421875,-0.4335937 0,-0.5625 -0.621094,-0.9023438 -1.417969,-0.9023438 -1.148437,0 -2.003906,0.9609375 -2.003906,2.0859375 0,1.14843754 0.9375,2.02734379 1.992187,2.02734379 1.242188,0 1.535157,-1.078125 1.535157,-1.16015629 0,-0.1054687 -0.105469,-0.1054687 -0.128907,-0.1054687 -0.09375,0 -0.09375,0.011719 -0.152343,0.1640625 -0.210938,0.62109374 -0.703125,0.85546874 -1.171875,0.85546874 -0.5625,0 -1.300782,-0.46875 -1.300782,-1.79296874 0,-1.3945313 0.714844,-1.8164063 1.253907,-1.8164063 0.117187,0 0.597656,0.011719 0.925781,0.234375 z m 5.173828,1.6171875 c 0,-1.171875 -0.925781,-2.109375 -2.027344,-2.109375 -1.148437,0 -2.050781,0.9609375 -2.050781,2.109375 0,1.12500004 0.9375,2.00390629 2.039063,2.00390629 1.136718,0 2.039062,-0.90234375 2.039062,-2.00390629 z m -2.027344,1.75781254 c -0.457031,0 -0.832031,-0.22265625 -1.03125,-0.57421875 -0.234375,-0.37499999 -0.246093,-0.85546879 -0.246093,-1.26562499 0,-0.328125 0,-0.84375 0.222656,-1.2070313 0.269531,-0.4570312 0.714844,-0.5976562 1.042969,-0.5976562 0.503906,0 0.878906,0.2929687 1.054687,0.5976562 0.210938,0.375 0.210938,0.8320313 0.210938,1.2070313 0,0.328125 0,0.8554687 -0.222657,1.25390624 -0.246093,0.41015625 -0.65625,0.5859375 -1.03125,0.5859375 z m 3.952149,-6.07031254 -1.324219,0.1054688 v 0.2695312 c 0.609375,0 0.679688,0.070312 0.679688,0.5039063 v 4.65234374 c 0,0.41015625 -0.09375,0.41015625 -0.679688,0.41015625 V 3.046875e-4 C 26.266406,-0.02313281 26.442188,-0.02313281 26.852344,-0.02313281 c 0.421875,0 0.574219,0 1.019531,0.0234374975 V -0.28094531 c -0.597656,0 -0.691406,0 -0.691406,-0.41015625 z m 4.458984,4.7226563 c 0,0.79687499 -0.445312,1.37109374 -1.089844,1.37109374 -0.75,0 -0.796875,-0.38671875 -0.796875,-0.8671875 V -3.9606328 l -1.347656,0.09375 v 0.28125 c 0.691406,0 0.691406,0.023437 0.691406,0.8203125 v 1.3476562 c 0,0.58593754 0,0.96093754 0.410157,1.27734379 0.257812,0.17578125 0.621093,0.234375 0.984375,0.234375 0.46875,0 0.902343,-0.19921875 1.160156,-0.73828125 h 0.01172 V 0.09405469 L 32.987109,3.046875e-4 V -0.28094531 c -0.609375,0 -0.679687,-0.0585938 -0.679687,-0.50390625 V -3.9606328 l -1.359375,0.09375 v 0.28125 c 0.609375,0 0.691406,0.058594 0.691406,0.5039062 z m 3.231445,-0.8203125 c 0,-0.9492188 0.679688,-1.4179688 1.242188,-1.4179688 0.527344,0 0.644531,0.4335938 0.644531,0.9726563 v 2.07421874 c 0,0.41015625 -0.09375,0.41015625 -0.691406,0.41015625 V 3.046875e-4 C 36.488086,-0.02313281 36.663867,-0.02313281 37.085742,-0.02313281 c 0.433594,0 0.550781,0 1.019531,0.0234374975 V -0.28094531 c -0.457031,0 -0.679687,0 -0.679687,-0.26953125 V -2.2731328 c 0,-0.75 0,-1.0078125 -0.257813,-1.3242188 -0.199218,-0.2460937 -0.550781,-0.3632812 -0.996093,-0.3632812 -0.832032,0 -1.21875,0.6210937 -1.347657,0.8671875 v -0.8671875 l -1.300781,0.09375 v 0.28125 c 0.609375,0 0.691406,0.058594 0.691406,0.5039062 v 2.39062504 c 0,0.41015625 -0.105468,0.41015625 -0.691406,0.41015625 V 3.046875e-4 C 33.945117,-0.02313281 34.10918,-0.02313281 34.542773,-0.02313281 c 0.433594,0 0.550782,0 1.019532,0.0234374975 V -0.28094531 c -0.585938,0 -0.691407,0 -0.691407,-0.41015625 z m 6.527344,1.67578124 c 0.03516,0.375 0.304688,0.703125 0.691406,0.703125 0.222657,0 0.785157,-0.140625 0.785157,-0.85546875 V -1.3004766 h -0.257813 v 0.49218754 c 0,0.10546875 0,0.55078125 -0.316406,0.55078125 -0.328125,0 -0.328125,-0.43359375 -0.328125,-0.57421875 V -2.4020391 c 0,-0.515625 0,-0.8203125 -0.398438,-1.1835937 -0.328125,-0.2929688 -0.761718,-0.4335938 -1.207031,-0.4335938 -0.761719,0 -1.382812,0.375 -1.382812,0.9492188 0,0.28125 0.1875,0.4335937 0.421875,0.4335937 0.234375,0 0.410156,-0.1757812 0.410156,-0.4101562 0,-0.3867188 -0.398438,-0.4335938 -0.398438,-0.4335938 0.234375,-0.234375 0.667969,-0.3164062 0.925782,-0.3164062 0.457031,0 0.972656,0.3398437 0.972656,1.1367187 v 0.2929688 c -0.492188,0.023437 -1.160156,0.058594 -1.757813,0.3515625 -0.644531,0.3164062 -0.84375,0.7734375 -0.84375,1.13671874 0,0.73828125 0.867188,0.97265625 1.464844,0.97265625 0.75,0 1.089844,-0.4921875 1.21875,-0.73828125 z m -0.08203,-0.62109374 c 0,0.86718749 -0.679688,1.13671874 -1.066406,1.13671874 -0.421875,0 -0.820313,-0.3046875 -0.820313,-0.75 0,-0.58593754 0.515625,-1.21875004 1.886719,-1.27734374 z m 8.179687,0.1875 c 0,0.16406249 0,0.18749999 -0.140625,0.37499999 -0.28125,0.41015625 -0.691406,0.57421875 -1.042968,0.57421875 -0.386719,0 -0.75,-0.2109375 -0.984375,-0.5859375 -0.234375,-0.38671874 -0.246094,-0.91406254 -0.246094,-1.20703124 0,-0.421875 0.04687,-0.890625 0.28125,-1.2539063 0.199219,-0.28125 0.5625,-0.5625 1.042969,-0.5625 0.375,0 0.738281,0.1875 0.972656,0.5273438 0.117187,0.140625 0.117187,0.1523437 0.117187,0.328125 z m 0.02344,-2.3554688 c -0.04687,-0.058594 -0.445313,-0.5273437 -1.148438,-0.5273437 -1.101562,0 -2.0625,0.8789062 -2.0625,2.0390625 0,1.11328124 0.902344,2.01562499 1.96875,2.01562499 0.644532,0 1.054688,-0.375 1.21875,-0.57421875 V 0.09405469 L 50.843555,3.046875e-4 V -0.28094531 c -0.609375,0 -0.691407,-0.0585938 -0.691407,-0.50390625 V -6.2223516 l -1.324218,0.1054688 v 0.2695312 c 0.609375,0 0.691406,0.070312 0.691406,0.5039063 z m 5.938477,1.5234375 c 0,-1.171875 -0.925782,-2.109375 -2.027344,-2.109375 -1.148438,0 -2.050781,0.9609375 -2.050781,2.109375 0,1.12500004 0.9375,2.00390629 2.039062,2.00390629 1.136719,0 2.039063,-0.90234375 2.039063,-2.00390629 z m -2.027344,1.75781254 c -0.457031,0 -0.832031,-0.22265625 -1.03125,-0.57421875 -0.234375,-0.37499999 -0.246094,-0.85546879 -0.246094,-1.26562499 0,-0.328125 0,-0.84375 0.222656,-1.2070313 0.269532,-0.4570312 0.714844,-0.5976562 1.042969,-0.5976562 0.503906,0 0.878906,0.2929687 1.054688,0.5976562 0.210937,0.375 0.210937,0.8320313 0.210937,1.2070313 0,0.328125 0,0.8554687 -0.222656,1.25390624 -0.246094,0.41015625 -0.65625,0.5859375 -1.03125,0.5859375 z m 7.02832,-3.80859374 -1.289062,0.09375 v 0.28125 c 0.574218,0 0.644531,0.058594 0.644531,0.4921875 v 2.40234374 c 0,0.41015625 -0.09375,0.41015625 -0.679688,0.41015625 V 3.046875e-4 C 59.533008,-0.02313281 59.720508,-0.02313281 60.118945,-0.02313281 c 0.140625,0 0.515625,0 0.960938,0.0234374975 V -0.28094531 c -0.585938,0 -0.621094,-0.046875 -0.621094,-0.38671875 z m 0.02344,-1.5585938 c 0,-0.2695312 -0.210938,-0.4921875 -0.480469,-0.4921875 -0.28125,0 -0.492188,0.234375 -0.492188,0.4921875 0,0.2578125 0.210938,0.4804688 0.492188,0.4804688 0.269531,0 0.480469,-0.2109375 0.480469,-0.4804688 z m 2.545898,3.1992188 c 0,-0.9492188 0.679688,-1.4179688 1.242188,-1.4179688 0.527343,0 0.644531,0.4335938 0.644531,0.9726563 v 2.07421874 c 0,0.41015625 -0.09375,0.41015625 -0.691406,0.41015625 V 3.046875e-4 c 0.42187,-0.0234374975 0.597651,-0.0234374975 1.019526,-0.0234374975 0.433594,0 0.550781,0 1.019531,0.0234374975 V -0.28094531 c -0.457031,0 -0.679687,0 -0.679687,-0.26953125 V -2.2731328 c 0,-0.75 0,-1.0078125 -0.257813,-1.3242188 -0.199219,-0.2460937 -0.550781,-0.3632812 -0.996094,-0.3632812 -0.832031,0 -1.21875,0.6210937 -1.347656,0.8671875 v -0.8671875 l -1.300781,0.09375 v 0.28125 c 0.609375,0 0.691406,0.058594 0.691406,0.5039062 v 2.39062504 c 0,0.41015625 -0.105469,0.41015625 -0.691406,0.41015625 V 3.046875e-4 C 62.102344,-0.02313281 62.266406,-0.02313281 62.7,-0.02313281 c 0.433594,0 0.550781,0 1.019531,0.0234374975 V -0.28094531 c -0.585937,0 -0.691406,0 -0.691406,-0.41015625 z m 6.114258,-1.265625 v -0.28125 h -1.300781 v -1.640625 h -0.257813 c 0,0.75 -0.316406,1.6757812 -1.183594,1.6992187 v 0.2226563 h 0.773438 v 2.4726562 c 0,1.00781254 0.726562,1.20703129 1.207031,1.20703129 0.597656,0 0.914063,-0.57421875 0.914063,-1.20703129 v -0.5039062 h -0.257813 v 0.4804687 c 0,0.65625004 -0.28125,0.98437504 -0.597656,0.98437504 -0.597656,0 -0.597656,-0.78515625 -0.597656,-0.94921874 v -2.484375 z m 4.253906,1.5351562 c 0.199219,0 0.246094,0 0.246094,-0.1875 0,-0.9257812 -0.503906,-1.78125 -1.652344,-1.78125 -1.078125,0 -1.921875,0.9375 -1.921875,2.0507813 0,1.17187499 0.949219,2.06249999 2.039063,2.06249999 1.089843,0 1.535156,-0.94921875 1.535156,-1.16015629 0,-0.058594 -0.04687,-0.1171875 -0.128906,-0.1171875 -0.09375,0 -0.117188,0.058594 -0.128907,0.09375 -0.304687,0.91406254 -1.101562,0.93750004 -1.230468,0.93750004 -0.433594,0 -0.796875,-0.24609375 -1.007813,-0.55078125 C 70.85332,-1.1364141 70.841602,-1.6754766 70.841602,-2.0504766 Z M 70.85332,-2.2731328 c 0.08203,-1.3710938 0.878907,-1.5234375 1.136719,-1.5234375 0.492188,0 1.03125,0.3867187 1.042969,1.5234375 z m 4.649414,0.2226562 c 0,-0.375 0.105469,-1.6875 1.125,-1.6875 v 0.011719 c -0.02344,0.011719 -0.164062,0.1171875 -0.164062,0.328125 0,0.2460937 0.1875,0.3984375 0.398437,0.3984375 0.1875,0 0.386719,-0.140625 0.386719,-0.4101563 0,-0.28125 -0.269531,-0.5507812 -0.667969,-0.5507812 -0.539062,0 -0.914062,0.375 -1.125,0.9257812 v -0.9257812 l -1.277343,0.09375 v 0.28125 c 0.609375,0 0.691406,0.058594 0.691406,0.5039062 v 2.39062504 c 0,0.41015625 -0.105469,0.41015625 -0.691406,0.41015625 V 3.046875e-4 c 0.46875,-0.0234374975 0.585937,-0.0234374975 1.042968,-0.0234374975 0.363282,0 0.574219,0 1.148438,0.0234374975 V -0.28094531 h -0.1875 c -0.65625,0 -0.679688,-0.09375 -0.679688,-0.421875 z m 5.267579,-1.4765625 c -0.1875,0.035156 -0.363282,0.1640625 -0.363282,0.421875 0,0.234375 0.175782,0.421875 0.410157,0.421875 0.234375,0 0.421875,-0.1640625 0.421875,-0.4335937 0,-0.5625 -0.621094,-0.9023438 -1.417969,-0.9023438 -1.148438,0 -2.003906,0.9609375 -2.003906,2.0859375 0,1.14843754 0.9375,2.02734379 1.992187,2.02734379 1.242188,0 1.535156,-1.078125 1.535156,-1.16015629 0,-0.1054687 -0.105468,-0.1054687 -0.128906,-0.1054687 -0.09375,0 -0.09375,0.011719 -0.152344,0.1640625 -0.210937,0.62109374 -0.703125,0.85546874 -1.171875,0.85546874 -0.5625,0 -1.300781,-0.46875 -1.300781,-1.79296874 0,-1.3945313 0.714844,-1.8164063 1.253906,-1.8164063 0.117188,0 0.597657,0.011719 0.925782,0.234375 z m 4.423828,1.4765625 c 0.199218,0 0.246093,0 0.246093,-0.1875 0,-0.9257812 -0.503906,-1.78125 -1.652343,-1.78125 -1.078125,0 -1.921875,0.9375 -1.921875,2.0507813 0,1.17187499 0.949218,2.06249999 2.039062,2.06249999 1.089844,0 1.535156,-0.94921875 1.535156,-1.16015629 0,-0.058594 -0.04687,-0.1171875 -0.128906,-0.1171875 -0.09375,0 -0.117187,0.058594 -0.128906,0.09375 -0.304688,0.91406254 -1.101563,0.93750004 -1.230469,0.93750004 -0.433594,0 -0.796875,-0.24609375 -1.007812,-0.55078125 C 82.651172,-1.1364141 82.639453,-1.6754766 82.639453,-2.0504766 Z m -2.542969,-0.2226562 c 0.08203,-1.3710938 0.878906,-1.5234375 1.136719,-1.5234375 0.492187,0 1.03125,0.3867187 1.042968,1.5234375 z m 4.675781,-0.7382813 c 0.304688,-0.515625 0.808594,-0.703125 1.183594,-0.703125 0.691406,0 1.230469,0.8085938 1.230469,1.78125 0,1.01953129 -0.609375,1.80468754 -1.335938,1.80468754 -0.398437,0 -0.738281,-0.234375 -0.960937,-0.5390625 -0.117188,-0.1875 -0.117188,-0.19921875 -0.117188,-0.37500004 z m 0,2.57812504 c 0.234375,0.234375 0.539063,0.52734375 1.136719,0.52734375 1.066406,0 2.050781,-0.85546875 2.050781,-2.02734379 0,-1.1367187 -0.878906,-2.0273437 -1.933594,-2.0273437 -0.492187,0 -0.9375,0.1992187 -1.277343,0.5625 v -0.5625 l -1.324219,0.09375 v 0.28125 c 0.632812,0 0.691406,0.058594 0.691406,0.4335937 v 4.2070313 c 0,0.4101562 -0.105469,0.4101562 -0.691406,0.4101562 v 0.2695313 c 0.421875,-0.011719 0.585937,-0.023437 1.019531,-0.023437 0.433594,0 0.550781,0.011719 1.019531,0.023437 V 1.4651484 c -0.585937,0 -0.691406,0 -0.691406,-0.4101562 z m 6.418945,-3.15234374 v -0.28125 h -1.300781 v -1.640625 h -0.257812 c 0,0.75 -0.316407,1.6757812 -1.183594,1.6992187 v 0.2226563 h 0.773437 v 2.4726562 c 0,1.00781254 0.726563,1.20703129 1.207032,1.20703129 0.597656,0 0.914062,-0.57421875 0.914062,-1.20703129 V -1.6168828 H 93.64043 v 0.4804687 c 0,0.65625004 -0.28125,0.98437504 -0.597657,0.98437504 -0.597656,0 -0.597656,-0.78515625 -0.597656,-0.94921874 v -2.484375 z m 5.000977,1.6757812 c 0,-1.171875 -0.925781,-2.109375 -2.027344,-2.109375 -1.148437,0 -2.050781,0.9609375 -2.050781,2.109375 0,1.12500004 0.9375,2.00390629 2.039063,2.00390629 1.136718,0 2.039062,-0.90234375 2.039062,-2.00390629 z m -2.027344,1.75781254 c -0.457031,0 -0.832031,-0.22265625 -1.03125,-0.57421875 -0.234375,-0.37499999 -0.246093,-0.85546879 -0.246093,-1.26562499 0,-0.328125 0,-0.84375 0.222656,-1.2070313 0.269531,-0.4570312 0.714844,-0.5976562 1.042969,-0.5976562 0.503906,0 0.878906,0.2929687 1.054687,0.5976562 0.210938,0.375 0.210938,0.8320313 0.210938,1.2070313 0,0.328125 0,0.8554687 -0.222657,1.25390624 -0.246093,0.41015625 -0.65625,0.5859375 -1.03125,0.5859375 z m 4.971679,-2.09765624 c 0,-0.7382813 -0.10547,-1.7226563 -0.57422,-2.71875 -0.52734,-1.1015625 -1.359373,-1.7578125 -1.464842,-1.7578125 -0.09375,0 -0.117187,0.070312 -0.117187,0.1054687 0,0.035156 0.02344,0.070312 0.08203,0.1289063 0.527349,0.46875 1.511719,1.6875 1.511719,4.2421875 0,1.27734374 -0.23437,3.07031249 -1.535156,4.2773437 -0.02344,0.023437 -0.05859,0.058594 -0.05859,0.1054688 0,0.023437 0.02344,0.09375 0.117187,0.09375 0.105469,0 0.914059,-0.6445313 1.394529,-1.61718751 0.43359,-0.85546875 0.64453,-1.78124999 0.64453,-2.85937499 z m 0,0"
         style="fill:#2471a3;fill-opacity:1;fill-rule:nonzero;stroke:none" />
    </g>
    <path
       id="path16"
       d="M 0,0 29.97952,57.23332"
       style="fill:none;stroke:#2471a3;stroke-width:0.79703;stroke-linecap:butt;stroke-linejoin:miter;stroke-miterlimit:10;stroke-dasharray:none;stroke-opacity:1"
       transform="matrix(1.3333333,0,0,-1.3333333,101.26,150.376)" />
    <path
       id="path17"
       d="M 2.59024,0 -1.55415,2.07219 0,0 -1.55415,-2.07219"
       style="fill:#2471a3;fill-opacity:1;fill-rule:nonzero;stroke:none"
       transform="matrix(0.61861333,-1.1810533,-1.1810533,-0.61861333,141.23267,74.064933)" />
    <g
       id="g17"
       aria-label="φ&#10;2&#10;(colunadeMedInc)"
       transform="matrix(1.3333333,0,0,1.3333333,17.710667,63.058667)">
      <path
         id="path18"
         d="m 2.4611406,0.08197656 c 0.070312,0.01171875 0.140625,0.01171875 0.3046875,0.01171875 1.5234375,0 2.9179688,-1.37109371 2.9179688,-2.78906251 0,-0.75 -0.3867188,-1.265625 -1.0664063,-1.265625 -1.3828125,0 -1.9804687,2.0390625 -2.4023437,3.44531251 -0.9375,-0.1640625 -1.50000003,-0.63281251 -1.50000003,-1.30078121 0,-0.234375 0.2109375,-1.21875 0.75000003,-1.828125 0.082031,-0.070312 0.082031,-0.09375 0.082031,-0.1171875 0,-0.011719 0,-0.1054688 -0.1171875,-0.1054688 -0.2929687,0 -0.97265623,1.3242188 -0.97265623,2.15625 0,0.97265626 0.78515623,1.54687501 1.58203123,1.73437501 -0.1757812,0.55078125 -0.515625,1.59374999 -0.515625,1.67578129 0,0.1523437 0.140625,0.2578125 0.28125,0.2578125 0.011719,0 0.3046875,0 0.375,-0.3398438 0.09375,-0.4101562 0.1992188,-1.05468749 0.2812502,-1.53515624 z m 0.1054688,-0.55078125 c 0.023437,-0.1171875 0.082031,-0.421875 0.09375,-0.55078121 0.082031,-0.4101563 0.1992187,-1.0898438 0.6679687,-1.6757813 0.3046875,-0.3984375 0.6914063,-0.7148437 1.2070313,-0.7148437 0.5039062,0 0.8671875,0.3398437 0.8671875,0.9023437 0,0.9960938 -1.1601563,2.05078126 -2.5546875,2.05078126 -0.09375,0 -0.1992188,0 -0.28125,-0.0117188 z m 0,0"
         style="fill:#2471a3;fill-opacity:1;fill-rule:nonzero;stroke:none" />
      <path
         id="path19"
         d="M 9.2287187,-0.11724219 H 9.0177812 c -0.023437,0.08203125 -0.082031,0.46875 -0.1640625,0.5390625 -0.046875,0.0351563 -0.5273437,0.0351563 -0.609375,0.0351563 h -1.125 l 0.7734375,-0.6210938 C 8.092,-0.32817969 8.6193437,-0.70317969 8.8068437,-0.89067969 8.982625,-1.0664609 9.2287187,-1.3711484 9.2287187,-1.7930234 c 0,-0.75 -0.6679687,-1.1835938 -1.4765625,-1.1835938 -0.7617187,0 -1.3007812,0.5039063 -1.3007812,1.0664063 0,0.3046875 0.2578125,0.3398437 0.3164062,0.3398437 0.1523438,0 0.328125,-0.1054687 0.328125,-0.3164062 0,-0.140625 -0.082031,-0.328125 -0.3398437,-0.328125 0.1289062,-0.3046875 0.5039062,-0.5273438 0.9140625,-0.5273438 0.6210937,0 0.9609375,0.46875 0.9609375,0.9492188 0,0.421875 -0.28125,0.85546871 -0.703125,1.24218746 L 6.5099687,0.74994531 C 6.451375,0.80853906 6.451375,0.80853906 6.451375,0.99603906 h 2.6015625 z m 0,0"
         style="fill:#2471a3;fill-opacity:1;fill-rule:nonzero;stroke:none" />
      <path
         id="path20"
         d="m 16.300984,2.1327578 c 0,-0.046875 -0.02344,-0.070312 -0.08203,-0.1289062 -1.160156,-1.06640629 -1.511719,-2.67187504 -1.511719,-4.2421875 0,-1.3945313 0.269532,-3.0820313 1.535157,-4.2773438 0.03516,-0.035156 0.05859,-0.070312 0.05859,-0.1054687 0,-0.070312 -0.04687,-0.1054688 -0.105468,-0.1054688 -0.105469,0 -0.914063,0.6445313 -1.40625,1.6289063 -0.421875,0.8554687 -0.644532,1.78125 -0.644532,2.8476562 0,0.6445313 0.08203,1.66406251 0.574219,2.73046876 0.527344,1.10156254 1.371094,1.74609374 1.476563,1.74609374 0.05859,0 0.105468,-0.035156 0.105468,-0.09375 z m 3.782227,-5.6601562 c -0.1875,0.035156 -0.363281,0.1640625 -0.363281,0.421875 0,0.234375 0.175781,0.421875 0.410156,0.421875 0.234375,0 0.421875,-0.1640625 0.421875,-0.4335938 0,-0.5625 -0.621094,-0.9023437 -1.417969,-0.9023437 -1.148437,0 -2.003906,0.9609375 -2.003906,2.0859375 0,1.14843746 0.9375,2.02734371 1.992187,2.02734371 1.242188,0 1.535157,-1.078125 1.535157,-1.16015621 0,-0.1054688 -0.105469,-0.1054688 -0.128907,-0.1054688 -0.09375,0 -0.09375,0.011719 -0.152343,0.1640625 -0.210938,0.62109376 -0.703125,0.85546876 -1.171875,0.85546876 -0.5625,0 -1.300782,-0.46875 -1.300782,-1.79296876 0,-1.3945312 0.714844,-1.8164062 1.253907,-1.8164062 0.117187,0 0.597656,0.011719 0.925781,0.234375 z m 5.173828,1.6171875 c 0,-1.171875 -0.925781,-2.109375 -2.027344,-2.109375 -1.148437,0 -2.050781,0.9609375 -2.050781,2.109375 0,1.12499996 0.9375,2.00390621 2.039063,2.00390621 1.136718,0 2.039062,-0.90234375 2.039062,-2.00390621 z m -2.027344,1.75781246 c -0.457031,0 -0.832031,-0.22265625 -1.03125,-0.57421875 -0.234375,-0.37500001 -0.246093,-0.85546871 -0.246093,-1.26562501 0,-0.328125 0,-0.84375 0.222656,-1.2070312 0.269531,-0.4570313 0.714844,-0.5976563 1.042969,-0.5976563 0.503906,0 0.878906,0.2929688 1.054687,0.5976563 0.210938,0.375 0.210938,0.8320312 0.210938,1.2070312 0,0.328125 0,0.8554688 -0.222657,1.25390626 -0.246093,0.41015625 -0.65625,0.5859375 -1.03125,0.5859375 z m 3.952149,-6.07031246 -1.324219,0.1054687 v 0.2695313 c 0.609375,0 0.679687,0.070312 0.679687,0.5039062 v 4.65234376 c 0,0.41015625 -0.09375,0.41015625 -0.679687,0.41015625 V -5.46875e-5 C 26.267781,-0.02349219 26.443562,-0.02349219 26.853719,-0.02349219 c 0.421875,0 0.574218,0 1.019531,0.0234375025 V -0.28130469 c -0.597656,0 -0.691406,0 -0.691406,-0.41015625 z m 4.456054,4.7226562 c 0,0.79687501 -0.445312,1.37109376 -1.089843,1.37109376 -0.75,0 -0.796875,-0.38671875 -0.796875,-0.8671875 V -3.9609922 l -1.347657,0.09375 v 0.28125 c 0.691407,0 0.691407,0.023437 0.691407,0.8203125 v 1.3476563 c 0,0.58593746 0,0.96093746 0.410156,1.27734371 0.257812,0.17578125 0.621094,0.234375 0.984375,0.234375 0.46875,0 0.902344,-0.19921875 1.160156,-0.73828125 h 0.01172 V 0.09369531 L 32.985555,-5.46875e-5 V -0.28130469 c -0.609375,0 -0.679688,-0.0585938 -0.679688,-0.50390625 V -3.9609922 l -1.359375,0.09375 v 0.28125 c 0.609375,0 0.691406,0.058594 0.691406,0.5039063 z m 3.234375,-0.8203125 c 0,-0.9492187 0.679688,-1.4179687 1.242188,-1.4179687 0.527344,0 0.644531,0.4335937 0.644531,0.9726562 v 2.07421876 c 0,0.41015625 -0.09375,0.41015625 -0.691406,0.41015625 V -5.46875e-5 C 36.489461,-0.02349219 36.665242,-0.02349219 37.087117,-0.02349219 c 0.433594,0 0.550781,0 1.019531,0.0234375025 V -0.28130469 c -0.457031,0 -0.679687,0 -0.679687,-0.26953125 V -2.2734922 c 0,-0.75 0,-1.0078125 -0.257813,-1.3242187 -0.199218,-0.2460938 -0.550781,-0.3632813 -0.996093,-0.3632813 -0.832032,0 -1.21875,0.6210938 -1.347657,0.8671875 v -0.8671875 l -1.300781,0.09375 v 0.28125 c 0.609375,0 0.691406,0.058594 0.691406,0.5039063 v 2.39062496 c 0,0.41015625 -0.105468,0.41015625 -0.691406,0.41015625 V -5.46875e-5 C 33.946492,-0.02349219 34.110555,-0.02349219 34.544148,-0.02349219 c 0.433594,0 0.550782,0 1.019532,0.0234375025 V -0.28130469 c -0.585938,0 -0.691407,0 -0.691407,-0.41015625 z m 6.527344,1.67578126 c 0.03516,0.375 0.304688,0.703125 0.691406,0.703125 0.222657,0 0.785157,-0.140625 0.785157,-0.85546875 V -1.3008359 h -0.257813 v 0.49218746 c 0,0.10546875 0,0.55078125 -0.316406,0.55078125 -0.328125,0 -0.328125,-0.43359375 -0.328125,-0.57421875 V -2.4023984 c 0,-0.515625 0,-0.8203125 -0.398438,-1.1835938 -0.328125,-0.2929687 -0.761718,-0.4335937 -1.207031,-0.4335937 -0.761719,0 -1.382812,0.375 -1.382812,0.9492187 0,0.28125 0.1875,0.4335938 0.421875,0.4335938 0.234375,0 0.410156,-0.1757813 0.410156,-0.4101563 0,-0.3867187 -0.398438,-0.4335937 -0.398438,-0.4335937 0.234375,-0.234375 0.667969,-0.3164063 0.925782,-0.3164063 0.457031,0 0.972656,0.3398438 0.972656,1.1367188 v 0.2929687 c -0.492188,0.023437 -1.160156,0.058594 -1.757813,0.3515625 -0.644531,0.3164063 -0.84375,0.7734375 -0.84375,1.13671876 0,0.73828125 0.867188,0.97265625 1.464844,0.97265625 0.75,0 1.089844,-0.4921875 1.21875,-0.73828125 z m -0.08203,-0.62109376 c 0,0.86718751 -0.679688,1.13671876 -1.066406,1.13671876 -0.421875,0 -0.820313,-0.3046875 -0.820313,-0.75 0,-0.58593746 0.515625,-1.21874996 1.886719,-1.27734376 z m 8.176758,0.1875 c 0,0.16406251 0,0.18750001 -0.140625,0.37500001 -0.28125,0.41015625 -0.691407,0.57421875 -1.042969,0.57421875 -0.386719,0 -0.75,-0.2109375 -0.984375,-0.5859375 C 47.092,-1.1016172 47.080281,-1.6289609 47.080281,-1.9219297 c 0,-0.421875 0.04687,-0.890625 0.28125,-1.2539062 0.199219,-0.28125 0.5625,-0.5625 1.042969,-0.5625 0.375,0 0.738281,0.1875 0.972656,0.5273437 0.117188,0.140625 0.117188,0.1523438 0.117188,0.328125 z m 0.02344,-2.3554687 c -0.04687,-0.058594 -0.445312,-0.5273438 -1.148437,-0.5273438 -1.101563,0 -2.0625,0.8789063 -2.0625,2.0390625 0,1.11328126 0.902343,2.01562501 1.96875,2.01562501 0.644531,0 1.054687,-0.375 1.21875,-0.57421875 V 0.09369531 L 50.842,-5.46875e-5 V -0.28130469 c -0.609375,0 -0.691406,-0.0585938 -0.691406,-0.50390625 V -6.2227109 l -1.324219,0.1054687 v 0.2695313 c 0.609375,0 0.691406,0.070312 0.691406,0.5039062 z m 5.191406,1.3828125 c 0.199219,0 0.246094,0 0.246094,-0.1875 0,-0.9257813 -0.503906,-1.78125 -1.652344,-1.78125 -1.078125,0 -1.921875,0.9375 -1.921875,2.0507812 0,1.17187501 0.949219,2.06250001 2.039063,2.06250001 1.089844,0 1.535156,-0.94921875 1.535156,-1.16015621 0,-0.058594 -0.04687,-0.1171875 -0.128906,-0.1171875 -0.09375,0 -0.117188,0.058594 -0.128906,0.09375 -0.304688,0.91406246 -1.101563,0.93749996 -1.230469,0.93749996 -0.433594,0 -0.796875,-0.24609375 -1.007813,-0.55078125 C 52.166219,-1.1367734 52.1545,-1.6758359 52.1545,-2.0508359 Z m -2.542968,-0.2226563 c 0.08203,-1.3710937 0.878906,-1.5234375 1.136718,-1.5234375 0.492188,0 1.03125,0.3867188 1.042969,1.5234375 z m 0,0"
         style="fill:#2471a3;fill-opacity:1;fill-rule:nonzero;stroke:none" />
      <path
         id="path21"
         d="m 60.946492,-3.5273984 c -0.117187,0.3632812 -0.234375,0.7265625 -0.292969,1.0078125 h -0.01172 C 60.59493,-2.7773984 60.50118,-3.0586484 60.40743,-3.3516172 l -0.585938,-1.78125 C 59.727742,-5.4023984 59.65743,-5.4727109 59.329305,-5.4727109 H 58.81368 c -0.140625,0 -0.386719,0 -0.386719,0.28125 0,0.2929687 0.210937,0.2929687 0.480469,0.2929687 v 4.31250001 c -0.269532,0 -0.480469,0 -0.480469,0.3046875 0,0.2812500025 0.246094,0.2812500025 0.386719,0.2812500025 h 0.726562 c 0.140625,0 0.386719,0 0.386719,-0.2812500025 0,-0.3046875 -0.210938,-0.3046875 -0.480469,-0.3046875 V -4.7695859 h 0.01172 c 0.04687,0.2109375 0.117187,0.4804687 0.199219,0.7382812 l 0.609375,1.8632813 c 0.03516,0.1054687 0.105468,0.3398437 0.375,0.3398437 0.269531,0 0.339843,-0.234375 0.386718,-0.3398437 l 0.5625,-1.734375 c 0,-0.011719 0.199219,-0.65625 0.246094,-0.8671875 h 0.01172 v 4.18359371 c -0.269531,0 -0.480469,0 -0.480469,0.3046875 0,0.2812500025 0.246094,0.2812500025 0.386719,0.2812500025 h 0.726562 c 0.140625,0 0.386719,0 0.386719,-0.2812500025 0,-0.3046875 -0.210937,-0.3046875 -0.480469,-0.3046875 V -4.8984922 c 0.269532,0 0.480469,0 0.480469,-0.2929687 0,-0.28125 -0.246094,-0.28125 -0.386719,-0.28125 h -0.515625 c -0.316406,0 -0.410156,0.070312 -0.492187,0.3398437 z m 5.841797,1.828125 c 0.175781,0 0.375,0 0.375,-0.3398438 0,-1.03125 -0.585937,-1.8984375 -1.734375,-1.8984375 -1.101562,0 -1.945312,0.9140625 -1.945312,1.9804688 0,1.11328121 0.925781,2.00390621 2.074218,2.00390621 1.207032,0 1.605469,-0.80859375 1.605469,-1.01953125 0,-0.18749996 -0.140625,-0.26953126 -0.328125,-0.26953126 -0.128906,0 -0.246094,0 -0.328125,0.1875 -0.210937,0.51562501 -0.785156,0.51562501 -0.890625,0.51562501 -0.515625,0 -1.265625,-0.3046875 -1.453125,-1.16015621 z m -2.613281,-0.5742188 c 0.175781,-0.7265625 0.738281,-1.078125 1.253906,-1.078125 0.621094,0 0.984375,0.4101563 1.054688,1.078125 z m 7.391601,-2.8242187 c 0,-0.3046875 -0.07031,-0.375 -0.375,-0.375 h -0.679687 c -0.128906,0 -0.375,0 -0.375,0.28125 0,0.2929687 0.234375,0.2929687 0.375,0.2929687 h 0.386719 v 1.3710938 c -0.1875,-0.1757813 -0.550782,-0.3867188 -1.03125,-0.3867188 -0.996094,0 -1.851563,0.8671875 -1.851563,1.9921875 0,1.10156251 0.808594,1.96875001 1.769531,1.96875001 0.410157,0 0.796875,-0.15234375 1.113282,-0.48046875 0,0.28125 0,0.4335937525 0.375,0.4335937525 h 0.691406 c 0.117187,0 0.375,0 0.375,-0.2812500025 0,-0.3046875 -0.246094,-0.3046875 -0.375,-0.3046875 h -0.398438 z m -0.667968,3.3515625 c 0,0.4804687 -0.398438,1.20703121 -1.066407,1.20703121 -0.621093,0 -1.148437,-0.60937501 -1.148437,-1.38281251 0,-0.8085937 0.574219,-1.40625 1.230469,-1.40625 0.539062,0 0.984375,0.46875 0.984375,0.9492188 z m 4.204101,-3.1523438 h 0.960938 c 0.128906,0 0.386718,0 0.386718,-0.28125 0,-0.2929687 -0.246093,-0.2929687 -0.386718,-0.2929687 h -2.589844 c -0.128906,0 -0.386719,0 -0.386719,0.28125 0,0.2929687 0.246094,0.2929687 0.386719,0.2929687 h 0.960937 v 4.31250001 h -0.960937 c -0.128906,0 -0.386719,0 -0.386719,0.29296875 0,0.2929687525 0.246094,0.2929687525 0.386719,0.2929687525 h 2.589844 c 0.128906,0 0.386718,0 0.386718,-0.2812500025 0,-0.3046875 -0.246093,-0.3046875 -0.386718,-0.3046875 h -0.960938 z m 5.879883,2.2851563 c 0,-0.890625 -0.445313,-1.3007813 -1.171875,-1.3007813 -0.421875,0 -0.832031,0.1523438 -1.171875,0.4570313 0,-0.2578125 -0.01172,-0.4101563 -0.386719,-0.4101563 h -0.679687 c -0.117188,0 -0.375,0 -0.375,0.2929688 0,0.2929687 0.246093,0.2929687 0.375,0.2929687 h 0.398437 v 2.69531251 h -0.398437 c -0.117188,0 -0.375,0 -0.375,0.29296875 0,0.2929687525 0.246093,0.2929687525 0.375,0.2929687525 h 1.453125 c 0.128906,0 0.375,0 0.375,-0.2812500025 0,-0.3046875 -0.234375,-0.3046875 -0.375,-0.3046875 H 78.638875 V -2.1328672 c 0,-0.8789062 0.679687,-1.1953125 1.113281,-1.1953125 0.445313,0 0.5625,0.2226563 0.5625,0.75 v 1.99218751 h -0.28125 c -0.128906,0 -0.386719,0 -0.386719,0.29296875 0,0.2929687525 0.246094,0.2929687525 0.386719,0.2929687525 h 1.347656 c 0.117188,0 0.375,0 0.375,-0.2812500025 0,-0.3046875 -0.246093,-0.3046875 -0.375,-0.3046875 h -0.398437 z m 5.024414,1.64062496 c 0,-0.18749996 -0.128906,-0.26953126 -0.328125,-0.26953126 -0.117187,0 -0.234375,0 -0.316406,0.1875 -0.07031,0.14062501 -0.222656,0.51562501 -0.84375,0.51562501 -0.761719,0 -1.382813,-0.62109371 -1.382813,-1.39453121 0,-0.4570313 0.28125,-1.4179688 1.429688,-1.4179688 0.152344,0 0.269531,0.011719 0.304687,0.011719 0.1875,0.011719 0.1875,0.023437 0.199219,0.1054687 0.02344,0.3046875 0.269531,0.3867188 0.410156,0.3867188 0.246094,0 0.421875,-0.1757813 0.421875,-0.4101563 0,-0.6796875 -0.914062,-0.6796875 -1.335937,-0.6796875 -1.546875,0 -2.097656,1.2070313 -2.097656,2.0039063 0,1.08984371 0.878906,1.98046871 1.980468,1.98046871 1.289063,0 1.558594,-0.890625 1.558594,-1.01953145 z m 0,0"
         style="fill:#2471a3;fill-opacity:1;fill-rule:nonzero;stroke:none" />
      <path
         id="path22"
         d="m 89.212117,-2.2500547 c 0,-0.7382812 -0.105469,-1.7226562 -0.574219,-2.71875 -0.527343,-1.1015625 -1.359375,-1.7578125 -1.464843,-1.7578125 -0.09375,0 -0.117188,0.070312 -0.117188,0.1054688 0,0.035156 0.02344,0.070312 0.08203,0.1289062 0.527344,0.46875 1.511719,1.6875 1.511719,4.2421875 0,1.27734376 -0.234375,3.07031251 -1.535156,4.2773438 -0.02344,0.023437 -0.05859,0.058594 -0.05859,0.1054687 0,0.023437 0.02344,0.09375 0.117188,0.09375 0.105468,0 0.914062,-0.6445312 1.394531,-1.61718749 0.433594,-0.85546875 0.644531,-1.78125001 0.644531,-2.85937501 z m 0,0"
         style="fill:#2471a3;fill-opacity:1;fill-rule:nonzero;stroke:none" />
    </g>
    <path
       id="path23"
       d="M 0,0 81.32722,16.26563"
       style="fill:none;stroke:#17496a;stroke-width:1.59404;stroke-linecap:butt;stroke-linejoin:miter;stroke-miterlimit:10;stroke-dasharray:none;stroke-opacity:1"
       transform="matrix(1.3333333,0,0,-1.3333333,101.26,150.376)" />
    <path
       id="path24"
       d="M 3.78578,0 -2.27147,3.02863 0,0 -2.27147,-3.02863"
       style="fill:#17496a;fill-opacity:1;fill-rule:nonzero;stroke:none"
       transform="matrix(1.3074,-0.26146667,-0.26146667,-1.3074,209.69629,128.68849)" />
    <g
       id="g24"
       aria-label="ˆy=X&#10;ˆ&#10;β"
       transform="matrix(1.3333333,0,0,1.3333333,220.98667,144.64533)">
      <path
         id="path25"
         d="m 2.3098047,-6.2232578 -1.2421875,1.2070312 0.1640625,0.1875 1.078125,-0.9023437 1.0664062,0.9023437 0.1523438,-0.1875 z m 0,0"
         style="fill:#17496a;fill-opacity:1;fill-rule:nonzero;stroke:none" />
      <path
         id="path26"
         d="m 3.8625391,-3.4576328 c 0.011719,-0.035156 0.023437,-0.09375 0.023437,-0.1523438 0,-0.1054687 -0.082031,-0.2578125 -0.2695313,-0.2578125 -0.1171875,0 -0.28125,0.070312 -0.3515625,0.2460938 -0.011719,0.035156 -0.1054687,0.3984375 -0.1523437,0.5976562 l -0.4453125,1.7929688 c -0.082031,0.25781249 -0.082031,0.28124999 -0.09375,0.36328124 -0.011719,0.0351563 -0.3867188,0.73828125 -1.03125,0.73828125 -0.56250004,0 -0.56250004,-0.5625 -0.56250004,-0.7265625 0,-0.41015629 0.11718754,-0.84374999 0.50390624,-1.85156249 0.070312,-0.2109375 0.1289063,-0.328125 0.1289063,-0.5039063 0,-0.4335937 -0.328125,-0.75 -0.77343754,-0.75 -0.85546875,0 -1.21875,1.2773438 -1.21875,1.3828125 0,0.082031 0.0703125,0.1054688 0.12890625,0.1054688 0.09375,0 0.10546875,-0.058594 0.140625,-0.1757813 0.1875,-0.65625 0.55078125,-1.0898437 0.92578125,-1.0898437 0.21093754,0 0.21093754,0.1757812 0.21093754,0.2929687 0,0.1523438 -0.0351563,0.3164063 -0.11718754,0.5273438 -0.421875,1.1132812 -0.5390625,1.4882812 -0.5390625,1.92187499 0,0.9960937475 0.80859374,1.08984375 1.14843754,1.08984375 0.4335937,0 0.75,-0.22265625 0.9140625,-0.38671875 -0.117187,0.45703125 -0.2226558,0.85546875 -0.5742183,1.30078121 -0.2695312,0.3632813 -0.6210937,0.609375 -1.01953124,0.609375 -0.24609375,0 -0.5390625,-0.09375 -0.66796875,-0.3398437 0.46875,0 0.5390625,-0.39843751 0.5390625,-0.49218751 0,-0.19921875 -0.140625,-0.31640625 -0.33984375,-0.31640625 -0.22265625,0 -0.50390625,0.1640625 -0.50390625,0.58593746 0,0.4570313 0.41015625,0.7851563 0.97265625,0.7851563 0.91406254,0 1.89843754,-0.7851563 2.15625004,-1.82812501 z m 0,0"
         style="fill:#17496a;fill-opacity:1;fill-rule:nonzero;stroke:none" />
      <path
         id="path27"
         d="m 13.13207,-2.9654453 c 0.117188,0 0.292969,0 0.292969,-0.1875 0,-0.1992188 -0.199219,-0.1992188 -0.328125,-0.1992188 H 7.6242578 c -0.140625,0 -0.328125,0 -0.328125,0.1992188 0,0.1875 0.1757813,0.1875 0.2929688,0.1875 z m -0.03516,1.828125 c 0.128906,0 0.328125,0 0.328125,-0.1992188 0,-0.1875 -0.175781,-0.1875 -0.292969,-0.1875 H 7.5891016 c -0.1171875,0 -0.2929688,0 -0.2929688,0.1875 0,0.1992188 0.1875,0.1992188 0.328125,0.1992188 z m 0,0"
         style="fill:#17496a;fill-opacity:1;fill-rule:nonzero;stroke:none" />
      <path
         id="path28"
         d="m 21.071523,-3.4341953 c 0.222657,-0.2109375 0.738282,-0.7851563 0.949219,-1.0078125 0.09375,-0.09375 0.316406,-0.328125 0.410156,-0.421875 0.550782,-0.5742188 0.914063,-0.9257813 1.664063,-0.984375 0.105469,-0.011719 0.210937,-0.011719 0.210937,-0.1640625 0,-0.035156 -0.03516,-0.1054688 -0.128906,-0.1054688 -0.05859,0 -0.363281,0.011719 -0.410156,0.011719 -0.08203,0.011719 -0.292969,0.011719 -0.433594,0.011719 -0.164062,0 -0.328125,-0.011719 -0.492187,-0.011719 -0.164063,0 -0.339844,-0.011719 -0.492188,-0.011719 -0.05859,0 -0.175781,0 -0.175781,0.1523438 0,0.1054687 0.117187,0.1171875 0.128906,0.1171875 0.07031,0.011719 0.339844,0.035156 0.339844,0.2578125 0,0.1523437 -0.199219,0.375 -0.210938,0.3867187 l -1.476562,1.5234375 -0.796875,-1.7929687 c -0.03516,-0.082031 -0.03516,-0.1054688 -0.03516,-0.1171875 0,-0.035156 0.140625,-0.2226563 0.527343,-0.2578125 0.03516,0 0.152344,-0.011719 0.152344,-0.1640625 0,-0.070312 -0.07031,-0.1054688 -0.140625,-0.1054688 -0.175781,0 -0.386719,0.011719 -0.5625,0.011719 -0.175781,0 -0.363281,0.011719 -0.550781,0.011719 -0.292969,0 -0.304688,0 -0.527344,-0.011719 l -0.492187,-0.011719 c -0.03516,0 -0.164063,0 -0.164063,0.1523438 0,0.1171875 0.105469,0.1171875 0.210938,0.1171875 0.527343,0 0.574218,0.1054687 0.65625,0.28125 l 1.066406,2.390625 c 0,0.011719 0.04687,0.1054687 0.04687,0.1171875 0,0.023437 -1.148438,1.2304687 -1.289063,1.359375 -0.09375,0.1054687 -0.328125,0.3632812 -0.421875,0.4570312 -0.550781,0.55078129 -0.902343,0.91406254 -1.652343,0.96093754 -0.105469,0.0117188 -0.210938,0.0234375 -0.210938,0.1640625 0,0.05859375 0.03516,0.1171874975 0.128906,0.1171874975 0.04687,0 0.351563,-0.0234374975 0.410157,-0.0234374975 0.08203,0 0.292968,0 0.433593,0 0.164063,0 0.328125,0 0.492188,0 0.164062,0 0.328125,0.0234374975 0.480469,0.0234374975 0.04687,0 0.175781,0 0.175781,-0.1640624975 0,-0.10546875 -0.105469,-0.1171875 -0.117188,-0.1171875 -0.07031,0 -0.339843,-0.0234375 -0.339843,-0.2578125 0,-0.140625 0.105468,-0.2578125 0.386718,-0.55078124 l 0.691407,-0.7148438 0.480468,-0.5039062 c 0.164063,-0.1640625 0.386719,-0.4101563 0.46875,-0.4921875 l 0.960938,2.14453124 c 0.04687,0.09375 0.04687,0.10546875 0.04687,0.1171875 0,0.046875 -0.140625,0.234375 -0.527344,0.2578125 -0.04687,0 -0.152344,0.0117188 -0.152344,0.1640625 0,0.08203125 0.05859,0.1171874975 0.128907,0.1171874975 0.1875,0 0.386718,-0.0234374975 0.574218,-0.0234374975 0.175782,0 0.351563,0 0.539063,0 0.292969,0 0.316406,0 0.527344,0 l 0.492187,0.0234374975 c 0.04687,0 0.175781,0 0.175781,-0.1640624975 0,-0.1171875 -0.105468,-0.1171875 -0.210937,-0.1171875 -0.539063,0 -0.574219,-0.09375 -0.65625,-0.26953125 z m 0,0"
         style="fill:#17496a;fill-opacity:1;fill-rule:nonzero;stroke:none" />
      <path
         id="path29"
         d="m 28.427969,-8.5875156 -1.242188,1.2070312 0.164063,0.1875 1.078125,-0.9023437 1.066406,0.9023437 0.152344,-0.1875 z m 0,0"
         style="fill:#17496a;fill-opacity:1;fill-rule:nonzero;stroke:none" />
      <path
         id="path30"
         d="m 30.074453,-5.1334141 c 0,-0.609375 -0.421875,-1.1953125 -1.382812,-1.1953125 -0.222657,0 -0.410157,0.035156 -0.65625,0.1640625 -0.796875,0.421875 -1.277344,1.2890625 -1.523438,2.1679688 l -1.40625,5.6367187 c -0.01172,0.058594 0.04687,0.09375 0.117188,0.09375 0.07031,0 0.117187,-0.023437 0.117187,-0.035156 l 0.621094,-2.44921876 c 0.222656,0.55078125 0.644531,0.84375 1.242187,0.84375 0.691407,0 1.347657,-0.3046875 1.839844,-0.76171875 0.410156,-0.39843749 0.667969,-0.94921879 0.667969,-1.55859379 0,-0.5507812 -0.246094,-1.1015625 -0.65625,-1.359375 0.445312,-0.2226562 1.019531,-0.8554687 1.019531,-1.5468752 z m -1.664062,1.5351563 c -0.140625,0.035156 -0.292969,0.070312 -0.445313,0.070312 -0.140625,0 -0.269531,0 -0.398437,-0.046875 0.105468,-0.070312 0.28125,-0.070312 0.398437,-0.070312 0.152344,0 0.304688,0 0.445313,0.046875 z m 1.125,-1.6875 c 0,0.5742187 -0.328125,1.3007812 -0.796875,1.5234375 -0.222657,-0.070312 -0.445313,-0.1054688 -0.703125,-0.1054688 -0.46875,0 -0.738282,0.070312 -0.738282,0.3046875 0,0.1875 0.210938,0.2578125 0.632813,0.2578125 0.304687,0 0.515625,-0.058594 0.796875,-0.1289062 0.28125,0.1992187 0.386719,0.6210937 0.386719,0.9609375 0,0.609375 -0.1875,1.2773437 -0.609375,1.73437499 -0.339844,0.36328125 -0.796875,0.609375 -1.300782,0.609375 -0.667968,0 -1.066406,-0.48046875 -1.066406,-1.13671879 0,-0.09375 0,-0.1875 0.03516,-0.28125 l 0.609375,-2.4492187 c 0.199219,-0.7617188 0.890625,-2.109375 1.921875,-2.109375 0.433594,0 0.832032,0.2109375 0.832032,0.8203125 z m 0,0"
         style="fill:#17496a;fill-opacity:1;fill-rule:nonzero;stroke:none" />
    </g>
    <path
       id="path31"
       d="M 0,0 99.29521,93.77849"
       style="fill:none;stroke:#c0392b;stroke-width:1.59404;stroke-linecap:butt;stroke-linejoin:miter;stroke-miterlimit:10;stroke-dasharray:none;stroke-opacity:1"
       transform="matrix(1.3333333,0,0,-1.3333333,101.26,150.376)" />
    <path
       id="path32"
       d="M 3.78578,0 -2.27147,3.02863 0,0 -2.27147,-3.02863"
       style="fill:#c0392b;fill-opacity:1;fill-rule:nonzero;stroke:none"
       transform="matrix(0.96929333,-0.91544,-0.91544,-0.96929333,233.65361,25.338013)" />
    <g
       id="g32"
       aria-label="y(MedHouseValobservado)"
       transform="matrix(1.3333333,0,0,1.3333333,164.188,13.393333)">
      <path
         id="path33"
         d="m 4.499625,-3.4561328 c 0.011719,-0.035156 0.023437,-0.09375 0.023437,-0.1523438 0,-0.1054687 -0.082031,-0.2578125 -0.2695313,-0.2578125 -0.1171875,0 -0.28125,0.070312 -0.3515625,0.2460938 C 3.89025,-3.5850391 3.7965,-3.2217578 3.749625,-3.0225391 l -0.4453125,1.7929688 c -0.082031,0.25781249 -0.082031,0.28124999 -0.09375,0.36328124 -0.011719,0.0351563 -0.3867188,0.73828125 -1.03125,0.73828125 -0.5625,0 -0.5625,-0.5625 -0.5625,-0.7265625 0,-0.41015629 0.1171875,-0.84374999 0.5039062,-1.85156249 0.070312,-0.2109375 0.1289063,-0.328125 0.1289063,-0.5039063 0,-0.4335937 -0.328125,-0.75 -0.7734375,-0.75 -0.85546875,0 -1.21875,1.2773438 -1.21875,1.3828125 0,0.082031 0.0703125,0.1054688 0.12890625,0.1054688 0.09375,0 0.10546875,-0.058594 0.140625,-0.1757813 0.1875,-0.65625 0.55078125,-1.0898437 0.92578125,-1.0898437 0.2109375,0 0.2109375,0.1757812 0.2109375,0.2929687 0,0.1523438 -0.035156,0.3164063 -0.1171875,0.5273438 -0.421875,1.1132812 -0.5390625,1.4882812 -0.5390625,1.92187499 0,0.9960937475 0.8085937,1.08984375 1.1484375,1.08984375 0.4335937,0 0.75,-0.22265625 0.9140625,-0.38671875 C 2.95275,0.16496094 2.8472812,0.56339844 2.4957187,1.0087109 2.2261875,1.3719922 1.874625,1.6180859 1.4761875,1.6180859 c -0.2460938,0 -0.5390625,-0.09375 -0.66796875,-0.3398437 0.46874995,0 0.53906245,-0.39843751 0.53906245,-0.49218751 0,-0.19921875 -0.140625,-0.31640625 -0.3398437,-0.31640625 -0.22265625,0 -0.50390625,0.1640625 -0.50390625,0.58593746 0,0.4570313 0.41015625,0.7851563 0.97265625,0.7851563 0.9140625,0 1.8984375,-0.7851563 2.15625,-1.82812501 z m 0,0"
         style="fill:#c0392b;fill-opacity:1;fill-rule:nonzero;stroke:none" />
      <path
         id="path34"
         d="m 10.985953,2.1337109 c 0,-0.046875 -0.02344,-0.070312 -0.08203,-0.1289062 -1.1601564,-1.06640626 -1.5117189,-2.67187501 -1.5117189,-4.2421875 0,-1.3945313 0.2695313,-3.0820313 1.5351559,-4.2773438 0.03516,-0.035156 0.05859,-0.070312 0.05859,-0.1054687 0,-0.070312 -0.04687,-0.1054688 -0.105469,-0.1054688 -0.105468,0 -0.9140621,0.6445313 -1.4062496,1.6289063 -0.421875,0.8554687 -0.6445313,1.78125 -0.6445313,2.8476562 0,0.6445313 0.082031,1.66406254 0.5742188,2.73046879 0.5273437,1.10156251 1.3710941,1.74609371 1.4765621,1.74609371 0.05859,0 0.105469,-0.035156 0.105469,-0.09375 z m 0,0"
         style="fill:#c0392b;fill-opacity:1;fill-rule:nonzero;stroke:none" />
      <path
         id="path35"
         d="m 14.161734,-3.5264453 c -0.117187,0.3632812 -0.234375,0.7265625 -0.292968,1.0078125 h -0.01172 c -0.04687,-0.2578125 -0.140625,-0.5390625 -0.234375,-0.8320313 l -0.585938,-1.78125 c -0.09375,-0.2695312 -0.164062,-0.3398437 -0.492187,-0.3398437 h -0.515625 c -0.140625,0 -0.386719,0 -0.386719,0.28125 0,0.2929687 0.210938,0.2929687 0.480469,0.2929687 v 4.31250004 c -0.269531,0 -0.480469,0 -0.480469,0.3046875 0,0.2812499975 0.246094,0.2812499975 0.386719,0.2812499975 h 0.726562 c 0.140625,0 0.386719,0 0.386719,-0.2812499975 0,-0.3046875 -0.210937,-0.3046875 -0.480469,-0.3046875 V -4.7686328 h 0.01172 c 0.04687,0.2109375 0.117188,0.4804687 0.199219,0.7382812 l 0.609375,1.8632813 c 0.03516,0.1054687 0.105469,0.3398437 0.375,0.3398437 0.269531,0 0.339844,-0.234375 0.386719,-0.3398437 l 0.5625,-1.734375 c 0,-0.011719 0.199218,-0.65625 0.246093,-0.8671875 h 0.01172 v 4.18359374 c -0.269531,0 -0.480469,0 -0.480469,0.3046875 0,0.2812499975 0.246094,0.2812499975 0.386719,0.2812499975 h 0.726563 c 0.140625,0 0.386718,0 0.386718,-0.2812499975 0,-0.3046875 -0.210937,-0.3046875 -0.480468,-0.3046875 V -4.8975391 c 0.269531,0 0.480468,0 0.480468,-0.2929687 0,-0.28125 -0.246093,-0.28125 -0.386718,-0.28125 h -0.515625 c -0.316407,0 -0.410157,0.070312 -0.492188,0.3398437 z m 5.841797,1.828125 c 0.175781,0 0.375,0 0.375,-0.3398438 0,-1.03125 -0.585937,-1.8984375 -1.734375,-1.8984375 -1.101562,0 -1.945312,0.9140625 -1.945312,1.9804688 0,1.11328124 0.925781,2.00390624 2.074218,2.00390624 1.207032,0 1.605469,-0.80859375 1.605469,-1.01953125 0,-0.18749999 -0.140625,-0.26953129 -0.328125,-0.26953129 -0.128906,0 -0.246094,0 -0.328125,0.1875 -0.210937,0.51562504 -0.785156,0.51562504 -0.890625,0.51562504 -0.515625,0 -1.265625,-0.3046875 -1.453125,-1.16015624 z M 17.39025,-2.2725391 c 0.175781,-0.7265625 0.738281,-1.078125 1.253906,-1.078125 0.621094,0 0.984375,0.4101563 1.054688,1.078125 z m 7.391602,-2.8242187 c 0,-0.3046875 -0.07031,-0.375 -0.375,-0.375 h -0.679688 c -0.128906,0 -0.375,0 -0.375,0.28125 0,0.2929687 0.234375,0.2929687 0.375,0.2929687 h 0.386719 v 1.3710938 c -0.1875,-0.1757813 -0.550781,-0.3867188 -1.03125,-0.3867188 -0.996094,0 -1.851563,0.8671875 -1.851563,1.9921875 0,1.10156254 0.808594,1.96875004 1.769532,1.96875004 0.410156,0 0.796875,-0.15234375 1.113281,-0.48046875 0,0.28125 0,0.4335937475 0.375,0.4335937475 h 0.691406 c 0.117188,0 0.375,0 0.375,-0.2812499975 0,-0.3046875 -0.246094,-0.3046875 -0.375,-0.3046875 h -0.398437 z m -0.667969,3.3515625 c 0,0.4804687 -0.398438,1.20703124 -1.066406,1.20703124 -0.621094,0 -1.148438,-0.60937504 -1.148438,-1.38281254 0,-0.8085937 0.574219,-1.40625 1.230469,-1.40625 0.539062,0 0.984375,0.46875 0.984375,0.9492188 z m 5.469726,-3.1523438 h 0.210938 c 0.128906,0 0.375,0 0.375,-0.28125 0,-0.2929687 -0.234375,-0.2929687 -0.375,-0.2929687 h -1.089844 c -0.152344,0 -0.386719,0 -0.386719,0.2929687 0,0.28125 0.246094,0.28125 0.386719,0.28125 h 0.210938 v 1.7578125 h -1.863282 v -1.7578125 h 0.210938 c 0.140625,0 0.375,0 0.375,-0.28125 0,-0.2929687 -0.234375,-0.2929687 -0.375,-0.2929687 h -1.089844 c -0.140625,0 -0.375,0 -0.375,0.28125 0,0.2929687 0.234375,0.2929687 0.375,0.2929687 h 0.210938 v 4.31250004 h -0.210938 c -0.140625,0 -0.375,0 -0.375,0.29296875 0,0.2929687475 0.234375,0.2929687475 0.375,0.2929687475 h 1.089844 c 0.140625,0 0.375,0 0.375,-0.2812499975 0,-0.3046875 -0.234375,-0.3046875 -0.375,-0.3046875 H 27.052359 V -2.5537891 h 1.863282 v 1.96875004 h -0.210938 c -0.152344,0 -0.386719,0 -0.386719,0.3046875 0,0.2812499975 0.246094,0.2812499975 0.386719,0.2812499975 h 1.089844 c 0.128906,0 0.375,0 0.375,-0.2812499975 0,-0.3046875 -0.234375,-0.3046875 -0.375,-0.3046875 h -0.210938 z m 4.965821,2.9648438 c 0,-1.1132813 -0.84375,-2.0039063 -1.863282,-2.0039063 -1.007812,0 -1.851562,0.890625 -1.851562,2.0039063 0,1.11328124 0.855469,1.98046874 1.851562,1.98046874 1.007813,0 1.863282,-0.8671875 1.863282,-1.98046874 z m -1.863282,1.39453124 c -0.644531,0 -1.183593,-0.65625004 -1.183593,-1.46484374 0,-0.796875 0.574218,-1.3476563 1.183593,-1.3476563 0.632813,0 1.195313,0.5507813 1.195313,1.3476563 0,0.8085937 -0.539063,1.46484374 -1.195313,1.46484374 z m 6.216797,-2.95312504 c 0,-0.2929687 -0.07031,-0.375 -0.375,-0.375 h -0.679687 c -0.128906,0 -0.375,0 -0.375,0.2929688 0,0.2929687 0.234375,0.2929687 0.375,0.2929687 h 0.386719 v 1.8867188 c 0,0.74999999 -0.691407,0.85546874 -0.996094,0.85546874 -0.679688,0 -0.679688,-0.2578125 -0.679688,-0.53906254 v -2.4140625 c 0,-0.2929687 -0.08203,-0.375 -0.386718,-0.375 h -0.679688 c -0.117187,0 -0.375,0 -0.375,0.2929688 0,0.2929687 0.246094,0.2929687 0.375,0.2929687 h 0.398438 v 2.25 c 0,0.84375004 0.597656,1.07812504 1.289062,1.07812504 0.316406,0 0.667969,-0.0468750025 1.054688,-0.31640625 0.03516,0.2695312475 0.222656,0.2695312475 0.375,0.2695312475 h 0.691406 c 0.117187,0 0.375,0 0.375,-0.2812499975 0,-0.3046875 -0.246094,-0.3046875 -0.375,-0.3046875 h -0.398438 z m 4.696289,-0.070312 c 0,-0.1289062 0,-0.375 -0.28125,-0.375 -0.210937,0 -0.257812,0.1054688 -0.28125,0.1757813 -0.339843,-0.1757813 -0.785156,-0.1757813 -0.9375,-0.1757813 -1.558593,0 -1.699218,0.8203125 -1.699218,1.0664063 0,0.4804687 0.363281,0.6914062 0.46875,0.7617187 0.304687,0.1875 0.550781,0.234375 1.476562,0.375 0.234375,0.035156 0.9375,0.1523438 0.9375,0.609375 0,0.26953129 -0.257812,0.58593754 -1.113281,0.58593754 -0.550781,0 -0.902344,-0.1875 -1.089844,-0.71484374 -0.05859,-0.1757813 -0.09375,-0.28125 -0.351562,-0.28125 -0.328125,0 -0.328125,0.2109375 -0.328125,0.3867187 v 0.82031254 c 0,0.12890625 0,0.375 0.292968,0.375 0.128907,0 0.257813,-0.0703125 0.328125,-0.31640625 0.445313,0.31640625 0.960938,0.31640625 1.148438,0.31640625 1.488281,0 1.699219,-0.83203125 1.699219,-1.17187504 0,-0.4453125 -0.28125,-0.7265625 -0.492188,-0.8554687 -0.363281,-0.2226563 -0.585937,-0.2695313 -1.429687,-0.3984375 -0.375,-0.058594 -0.960938,-0.1523438 -0.960938,-0.4921875 0,-0.234375 0.28125,-0.4804688 1.101563,-0.4804688 0.820312,0 0.84375,0.3046875 0.855468,0.5039063 0.01172,0.2460937 0.257813,0.2460937 0.328125,0.2460937 0.328125,0 0.328125,-0.1992187 0.328125,-0.375 z m 4.649414,1.8632813 c 0.175782,0 0.375,0 0.375,-0.3398438 0,-1.03125 -0.585937,-1.8984375 -1.734375,-1.8984375 -1.101562,0 -1.945312,0.9140625 -1.945312,1.9804688 0,1.11328124 0.925781,2.00390624 2.074219,2.00390624 1.207031,0 1.605468,-0.80859375 1.605468,-1.01953125 0,-0.18749999 -0.140625,-0.26953129 -0.328125,-0.26953129 -0.128906,0 -0.246093,0 -0.328125,0.1875 -0.210937,0.51562504 -0.785156,0.51562504 -0.890625,0.51562504 -0.515625,0 -1.265625,-0.3046875 -1.453125,-1.16015624 z m -2.613281,-0.5742188 c 0.175781,-0.7265625 0.738281,-1.078125 1.253906,-1.078125 0.621094,0 0.984375,0.4101563 1.054688,1.078125 z m 7.555664,-2.625 c 0.304688,0 0.515625,0 0.515625,-0.2929687 0,-0.28125 -0.257812,-0.28125 -0.386719,-0.28125 h -0.9375 c -0.140625,0 -0.386718,0 -0.386718,0.28125 0,0.2929687 0.210937,0.2929687 0.515625,0.2929687 l -0.632813,2.5546875 c -0.117187,0.4570313 -0.316406,1.2773438 -0.363281,1.64062504 -0.02344,-0.1875 -0.08203,-0.49218754 -0.140625,-0.72656254 l -0.84375,-3.46875 c 0.304687,0 0.515625,0 0.515625,-0.2929687 0,-0.28125 -0.257813,-0.28125 -0.386719,-0.28125 h -0.9375 c -0.128906,0 -0.386719,0 -0.386719,0.28125 0,0.2929687 0.210938,0.2929687 0.515625,0.2929687 l 1.148438,4.62890629 c 0.09375,0.3515625 0.269531,0.3515625 0.515625,0.3515625 0.234375,0 0.433594,0 0.515625,-0.328125 z m 4.508789,2.3671875 c 0,-0.703125 -0.539062,-1.40625 -1.792968,-1.40625 -0.410157,0 -1.324219,0 -1.324219,0.6796875 0,0.2578125 0.199219,0.4101563 0.421875,0.4101563 0.140625,0 0.421875,-0.046875 0.421875,-0.4804688 0.246094,-0.023437 0.410156,-0.023437 0.492187,-0.023437 0.703125,0 1.113282,0.2929688 1.113282,0.84375 -1.488282,0.011719 -2.671875,0.4335938 -2.671875,1.3125 0,0.67968754 0.609375,1.24218754 1.488281,1.24218754 0.105469,0 0.785156,0 1.265625,-0.3515625 0.222656,0.3046874975 0.703125,0.3046874975 0.996094,0.3046874975 0.246093,0 0.46875,0 0.46875,-0.2929687475 0,-0.29296875 -0.246094,-0.29296875 -0.386719,-0.29296875 -0.140625,0 -0.328125,0 -0.492188,-0.0585938 z m -0.667968,1.265625 c 0,0.2109375 0,0.39843754 -0.351563,0.57421879 -0.328125,0.15234375 -0.726562,0.15234375 -0.761719,0.15234375 -0.527343,0 -0.902343,-0.29296875 -0.902343,-0.65625004 0,-0.4335937 0.902343,-0.7382812 2.015625,-0.75 z m 4.236328,-3.8320312 c 0,-0.3046875 -0.07031,-0.375 -0.375,-0.375 h -1.453125 c -0.140625,0 -0.375,0 -0.375,0.28125 0,0.2929687 0.222656,0.2929687 0.375,0.2929687 h 1.160156 v 4.31250004 h -1.160156 c -0.140625,0 -0.375,0 -0.375,0.29296875 0,0.2929687475 0.222656,0.2929687475 0.375,0.2929687475 h 2.988281 c 0.140625,0 0.375,0 0.375,-0.2812499975 0,-0.3046875 -0.234375,-0.3046875 -0.375,-0.3046875 H 61.26818 Z m 0,0"
         style="fill:#c0392b;fill-opacity:1;fill-rule:nonzero;stroke:none" />
      <path
         id="path36"
         d="m 70.704703,-1.9092578 c 0,-1.171875 -0.925781,-2.109375 -2.027344,-2.109375 -1.148437,0 -2.050781,0.9609375 -2.050781,2.109375 0,1.12499999 0.9375,2.00390624 2.039063,2.00390624 1.136718,0 2.039062,-0.90234375 2.039062,-2.00390624 z m -2.027344,1.75781249 c -0.457031,0 -0.832031,-0.22265625 -1.03125,-0.57421875 -0.234375,-0.37500004 -0.246093,-0.85546874 -0.246093,-1.26562504 0,-0.328125 0,-0.84375 0.222656,-1.2070312 0.269531,-0.4570313 0.714844,-0.5976563 1.042969,-0.5976563 0.503906,0 0.878906,0.2929688 1.054687,0.5976563 0.210938,0.375 0.210938,0.8320312 0.210938,1.2070312 0,0.328125 0,0.8554688 -0.222657,1.25390629 -0.246093,0.41015625 -0.65625,0.5859375 -1.03125,0.5859375 z m 3.916993,-2.70703129 c 0,-0.1757812 0,-0.1757812 0.105468,-0.328125 0.304688,-0.4101562 0.738282,-0.5507812 1.078125,-0.5507812 0.386719,0 0.75,0.2109375 0.984375,0.5859375 0.234375,0.3867187 0.246094,0.9257812 0.246094,1.2070312 0,0.421875 -0.04687,0.890625 -0.28125,1.25390629 -0.199219,0.29296875 -0.5625,0.5625 -1.042969,0.5625 -0.398437,0 -0.738281,-0.2109375 -0.960937,-0.5390625 -0.128906,-0.1875 -0.128906,-0.19921875 -0.128906,-0.37499999 z m -0.07031,2.30859379 c 0.269531,0.3984375 0.726563,0.64453125 1.207031,0.64453125 1.066407,0 2.050782,-0.85546875 2.050782,-2.02734374 0,-1.125 -0.890625,-2.0273438 -1.957032,-2.0273438 -0.621093,0 -1.03125,0.3164063 -1.253906,0.5507813 v -2.8125 l -1.324219,0.1054687 v 0.2695313 c 0.609375,0 0.691407,0.070312 0.691407,0.5039062 V 8.984375e-4 h 0.246093 z m 6.65332,-3.23437499 c 0,-0.1523438 0,-0.234375 -0.105468,-0.234375 -0.04687,0 -0.05859,0 -0.175782,0.1054687 -0.02344,0.023437 -0.105468,0.1054688 -0.152343,0.1523438 -0.28125,-0.1992188 -0.5625,-0.2578125 -0.867188,-0.2578125 -1.183594,0 -1.476562,0.65625 -1.476562,1.1132812 0,0.2929688 0.128906,0.5273438 0.328125,0.7148438 0.304687,0.28125 0.644531,0.3398437 1.101562,0.421875 0.457031,0.09375 0.609375,0.1171875 0.808594,0.2695312 0.09375,0.070312 0.316406,0.2460938 0.316406,0.58593754 0,0.78515625 -0.902344,0.78515625 -1.03125,0.78515625 -0.914062,0 -1.148437,-0.76171875 -1.253906,-1.24218749 -0.02344,-0.09375 -0.03516,-0.140625 -0.140625,-0.140625 -0.128906,0 -0.128906,0.070312 -0.128906,0.234375 v 1.14843749 c 0,0.15234375 0,0.22265625 0.105468,0.22265625 0.05859,0 0.07031,0 0.222657,-0.17578125 0.03516,-0.046875 0.140625,-0.1640625 0.1875,-0.2109375 0.375,0.36328125 0.785156,0.38671875 1.007812,0.38671875 1.101563,0 1.488281,-0.64453125 1.488281,-1.24218754 0,-0.3984375 -0.175781,-0.6445312 -0.375,-0.8554687 -0.304687,-0.2929688 -0.632812,-0.3515625 -1.289062,-0.4804688 -0.234375,-0.046875 -0.890625,-0.1640625 -0.890625,-0.6679687 0,-0.2929688 0.210937,-0.6679688 1.019531,-0.6679688 0.972656,0 1.03125,0.75 1.054688,0.9726563 0.01172,0.1054687 0.01172,0.1640625 0.117187,0.1640625 0.128906,0 0.128906,-0.070312 0.128906,-0.234375 z m 4.139649,1.734375 c 0.199219,0 0.246094,0 0.246094,-0.1875 0,-0.9257813 -0.503907,-1.78125 -1.652344,-1.78125 -1.078125,0 -1.921875,0.9375 -1.921875,2.0507812 0,1.17187504 0.949219,2.06250004 2.039062,2.06250004 1.089844,0 1.535157,-0.94921875 1.535157,-1.16015624 0,-0.058594 -0.04687,-0.1171875 -0.128907,-0.1171875 -0.09375,0 -0.117187,0.058594 -0.128906,0.09375 -0.304687,0.91406249 -1.101562,0.93749999 -1.230469,0.93749999 -0.433593,0 -0.796875,-0.24609375 -1.007812,-0.55078125 C 80.774039,-1.1358203 80.76232,-1.6748828 80.76232,-2.0498828 Z m -2.542969,-0.2226563 c 0.08203,-1.3710937 0.878906,-1.5234375 1.136719,-1.5234375 0.492187,0 1.03125,0.3867188 1.042969,1.5234375 z m 4.649414,0.2226563 c 0,-0.375 0.105469,-1.6875 1.125,-1.6875 v 0.011719 c -0.02344,0.011719 -0.164062,0.1171875 -0.164062,0.328125 0,0.2460938 0.1875,0.3984375 0.398437,0.3984375 0.1875,0 0.386719,-0.140625 0.386719,-0.4101562 0,-0.28125 -0.269531,-0.5507813 -0.667969,-0.5507813 -0.539062,0 -0.914062,0.375 -1.125,0.9257813 v -0.9257813 l -1.277344,0.09375 v 0.28125 c 0.609375,0 0.691407,0.058594 0.691407,0.5039063 v 2.39062499 c 0,0.41015625 -0.105469,0.41015625 -0.691407,0.41015625 V 8.984375e-4 c 0.46875,-0.0234374975 0.585938,-0.0234374975 1.042969,-0.0234374975 0.363281,0 0.574219,0 1.148438,0.0234374975 V -0.28035156 h -0.1875 c -0.65625,0 -0.679688,-0.09375 -0.679688,-0.421875 z m 3.629883,-1.1367188 c -0.03516,-0.046875 -0.04687,-0.1054687 -0.04687,-0.1640625 0,-0.234375 0.316406,-0.234375 0.492187,-0.234375 v -0.28125 c -0.386718,0.023437 -0.597656,0.035156 -0.984375,0.035156 -0.316406,0 -0.574218,0 -0.902343,-0.035156 v 0.28125 c 0.421875,0 0.597656,0 0.726562,0.328125 l 1.3125,3.18750004 c 0.05859,0.140625 0.128906,0.1640625 0.210938,0.1640625 0.07031,0 0.152343,-0.01171875 0.210937,-0.1640625 l 1.21875,-2.94140624 c 0.1875,-0.4570313 0.503906,-0.5625 0.820313,-0.5742188 v -0.28125 c -0.269532,0.035156 -0.679688,0.035156 -0.691407,0.035156 -0.257812,0 -0.527343,-0.011719 -0.785156,-0.035156 v 0.28125 c 0.257813,0.023437 0.410156,0.1523438 0.410156,0.3867188 0,0.09375 0,0.1054687 -0.04687,0.1992187 l -0.925781,2.26171879 z m 5.803711,2.54296879 c 0.03516,0.375 0.304687,0.703125 0.691406,0.703125 0.222656,0 0.785156,-0.140625 0.785156,-0.85546875 V -1.2998828 H 96.0758 v 0.49218749 c 0,0.10546875 0,0.55078125 -0.316406,0.55078125 -0.328125,0 -0.328125,-0.43359375 -0.328125,-0.57421875 V -2.4014453 c 0,-0.515625 0,-0.8203125 -0.398438,-1.1835938 -0.328125,-0.2929687 -0.761719,-0.4335937 -1.207031,-0.4335937 -0.761719,0 -1.382813,0.375 -1.382813,0.9492187 0,0.28125 0.1875,0.4335938 0.421875,0.4335938 0.234375,0 0.410157,-0.1757813 0.410157,-0.4101563 0,-0.3867187 -0.398438,-0.4335937 -0.398438,-0.4335937 0.234375,-0.234375 0.667969,-0.3164063 0.925781,-0.3164063 0.457032,0 0.972657,0.3398438 0.972657,1.1367188 v 0.2929687 c -0.492188,0.023437 -1.160157,0.058594 -1.757813,0.3515625 -0.644531,0.3164063 -0.84375,0.7734375 -0.84375,1.13671879 0,0.73828125 0.867188,0.97265625 1.464844,0.97265625 0.75,0 1.089844,-0.4921875 1.21875,-0.73828125 z M 94.77502,-1.2647266 c 0,0.86718754 -0.679688,1.13671879 -1.066407,1.13671879 -0.421875,0 -0.820312,-0.3046875 -0.820312,-0.75 0,-0.58593749 0.515625,-1.21874999 1.886719,-1.27734379 z m 5.112304,0.1875 c 0,0.16406254 0,0.18750004 -0.140625,0.37500004 -0.28125,0.41015625 -0.691406,0.57421875 -1.042968,0.57421875 -0.386719,0 -0.75,-0.2109375 -0.984375,-0.5859375 -0.234375,-0.38671879 -0.246094,-0.91406249 -0.246094,-1.20703129 0,-0.421875 0.04687,-0.890625 0.28125,-1.2539062 0.199219,-0.28125 0.5625,-0.5625 1.042969,-0.5625 0.375,0 0.738281,0.1875 0.972656,0.5273437 0.117187,0.140625 0.117187,0.1523438 0.117187,0.328125 z m 0.02344,-2.3554687 c -0.04687,-0.058594 -0.445313,-0.5273438 -1.148438,-0.5273438 -1.101562,0 -2.0625,0.8789063 -2.0625,2.0390625 0,1.11328129 0.902344,2.01562504 1.96875,2.01562504 0.644532,0 1.054688,-0.375 1.21875,-0.57421875 V 0.09464844 L 101.23498,8.984375e-4 V -0.28035156 c -0.60938,0 -0.69141,-0.0585938 -0.69141,-0.50390625 V -6.2217578 l -1.324218,0.1054687 v 0.2695313 c 0.609375,0 0.691406,0.070312 0.691406,0.5039062 z m 5.941406,1.5234375 c 0,-1.171875 -0.92578,-2.109375 -2.02734,-2.109375 -1.14844,0 -2.05078,0.9609375 -2.05078,2.109375 0,1.12499999 0.9375,2.00390624 2.03906,2.00390624 1.13672,0 2.03906,-0.90234375 2.03906,-2.00390624 z m -2.02734,1.75781249 c -0.45703,0 -0.83203,-0.22265625 -1.03125,-0.57421875 -0.23437,-0.37500004 -0.24609,-0.85546874 -0.24609,-1.26562504 0,-0.328125 0,-0.84375 0.22265,-1.2070312 0.26953,-0.4570313 0.71485,-0.5976563 1.04297,-0.5976563 0.50391,0 0.87891,0.2929688 1.05469,0.5976563 0.21094,0.375 0.21094,0.8320312 0.21094,1.2070312 0,0.328125 0,0.8554688 -0.22266,1.25390629 -0.24609,0.41015625 -0.65625,0.5859375 -1.03125,0.5859375 z m 4.96875,-2.09765629 c 0,-0.7382812 -0.10547,-1.7226562 -0.57422,-2.71875 -0.52734,-1.1015625 -1.35937,-1.7578125 -1.46484,-1.7578125 -0.0937,0 -0.11719,0.070312 -0.11719,0.1054688 0,0.035156 0.0234,0.070312 0.082,0.1289062 0.52735,0.46875 1.51172,1.6875 1.51172,4.2421875 0,1.27734379 -0.23437,3.07031254 -1.53516,4.2773438 -0.0234,0.023437 -0.0586,0.058594 -0.0586,0.1054687 0,0.023437 0.0234,0.09375 0.11719,0.09375 0.10547,0 0.91406,-0.6445312 1.39453,-1.61718746 0.43359,-0.85546875 0.64453,-1.78125004 0.64453,-2.85937504 z m 0,0"
         style="fill:#c0392b;fill-opacity:1;fill-rule:nonzero;stroke:none" />
    </g>
    <path
       id="path37"
       d="m 85.03934,17.00804 17.00802,79.36971"
       style="fill:none;stroke:#5d6d7e;stroke-width:0.79703;stroke-linecap:butt;stroke-linejoin:miter;stroke-miterlimit:10;stroke-dasharray:2.9888, 2.9888;stroke-dashoffset:0;stroke-opacity:1"
       transform="matrix(1.3333333,0,0,-1.3333333,101.26,150.376)" />
    <g
       id="g37"
       aria-label="y−ˆy&#10;res´ıduo,⊥aS"
       transform="matrix(1.3333333,0,0,1.3333333,266.32667,59.129333)">
      <path
         id="path38"
         d="m 4.5010937,-3.4573516 c 0.011719,-0.035156 0.023437,-0.09375 0.023437,-0.1523437 0,-0.1054688 -0.082031,-0.2578125 -0.2695312,-0.2578125 -0.1171875,0 -0.28125,0.070312 -0.3515625,0.2460937 -0.011719,0.035156 -0.1054688,0.3984375 -0.1523438,0.5976563 l -0.4453125,1.7929687 c -0.082031,0.25781254 -0.082031,0.28125004 -0.09375,0.36328129 -0.011719,0.0351563 -0.3867187,0.73828125 -1.03125,0.73828125 -0.5625,0 -0.5625,-0.5625 -0.5625,-0.7265625 0,-0.41015624 0.1171875,-0.84375004 0.5039063,-1.85156254 0.070312,-0.2109375 0.1289062,-0.328125 0.1289062,-0.5039062 0,-0.4335938 -0.328125,-0.75 -0.7734375,-0.75 -0.8554687,0 -1.21874995,1.2773437 -1.21874995,1.3828125 0,0.082031 0.0703125,0.1054687 0.12890625,0.1054687 0.09375,0 0.10546875,-0.058594 0.140625,-0.1757812 0.1875,-0.65625 0.5507812,-1.0898438 0.9257812,-1.0898438 0.2109375,0 0.2109375,0.1757813 0.2109375,0.2929688 0,0.1523437 -0.035156,0.3164062 -0.1171875,0.5273437 -0.421875,1.1132813 -0.5390625,1.4882813 -0.5390625,1.92187504 0,0.9960937475 0.8085938,1.08984375 1.1484375,1.08984375 0.4335938,0 0.75,-0.22265625 0.9140625,-0.38671875 C 2.9542187,0.16374219 2.84875,0.56217969 2.4971875,1.0074922 2.2276562,1.3707734 1.8760937,1.6168672 1.4776562,1.6168672 c -0.2460937,0 -0.53906245,-0.09375 -0.6679687,-0.3398438 0.46875,0 0.5390625,-0.39843746 0.5390625,-0.49218746 0,-0.19921875 -0.140625,-0.31640625 -0.3398438,-0.31640625 -0.2226562,0 -0.5039062,0.1640625 -0.5039062,0.58593751 0,0.4570312 0.41015625,0.7851562 0.9726562,0.7851562 0.9140625,0 1.8984375,-0.7851562 2.15625,-1.82812496 z m 0,0"
         style="fill:#5d6d7e;fill-opacity:1;fill-rule:nonzero;stroke:none" />
      <path
         id="path39"
         d="m 12.953242,-2.0511016 c 0.164063,0 0.339844,0 0.339844,-0.1992187 0,-0.1875 -0.1875,-0.1875 -0.339844,-0.1875 H 8.0079297 c -0.1523438,0 -0.328125,0 -0.328125,0.1875 0,0.1992187 0.1640625,0.1992187 0.328125,0.1992187 z m 0,0"
         style="fill:#5d6d7e;fill-opacity:1;fill-rule:nonzero;stroke:none" />
      <path
         id="path40"
         d="m 19.073359,-6.2229766 -1.242187,1.2070313 0.164062,0.1875 1.078125,-0.9023438 1.066407,0.9023438 0.152343,-0.1875 z m 0,0"
         style="fill:#5d6d7e;fill-opacity:1;fill-rule:nonzero;stroke:none" />
      <path
         id="path41"
         d="m 20.626094,-3.4573516 c 0.01172,-0.035156 0.02344,-0.09375 0.02344,-0.1523437 0,-0.1054688 -0.08203,-0.2578125 -0.269531,-0.2578125 -0.117188,0 -0.28125,0.070312 -0.351563,0.2460937 -0.01172,0.035156 -0.105468,0.3984375 -0.152343,0.5976563 l -0.445313,1.7929687 c -0.08203,0.25781254 -0.08203,0.28125004 -0.09375,0.36328129 -0.01172,0.0351563 -0.386719,0.73828125 -1.03125,0.73828125 -0.5625,0 -0.5625,-0.5625 -0.5625,-0.7265625 0,-0.41015624 0.117188,-0.84375004 0.503906,-1.85156254 0.07031,-0.2109375 0.128907,-0.328125 0.128907,-0.5039062 0,-0.4335938 -0.328125,-0.75 -0.773438,-0.75 -0.855469,0 -1.21875,1.2773437 -1.21875,1.3828125 0,0.082031 0.07031,0.1054687 0.128906,0.1054687 0.09375,0 0.105469,-0.058594 0.140625,-0.1757812 0.1875,-0.65625 0.550782,-1.0898438 0.925782,-1.0898438 0.210937,0 0.210937,0.1757813 0.210937,0.2929688 0,0.1523437 -0.03516,0.3164062 -0.117187,0.5273437 -0.421875,1.1132813 -0.539063,1.4882813 -0.539063,1.92187504 0,0.9960937475 0.808594,1.08984375 1.148438,1.08984375 0.433593,0 0.75,-0.22265625 0.914062,-0.38671875 -0.117187,0.45703125 -0.222656,0.85546875 -0.574219,1.30078126 -0.269531,0.3632812 -0.621093,0.609375 -1.019531,0.609375 -0.246094,0 -0.539062,-0.09375 -0.667969,-0.3398438 0.46875,0 0.539063,-0.39843746 0.539063,-0.49218746 0,-0.19921875 -0.140625,-0.31640625 -0.339844,-0.31640625 -0.222656,0 -0.503906,0.1640625 -0.503906,0.58593751 0,0.4570312 0.410156,0.7851562 0.972656,0.7851562 0.914063,0 1.898438,-0.7851562 2.15625,-1.82812496 z m 0,0"
         style="fill:#5d6d7e;fill-opacity:1;fill-rule:nonzero;stroke:none" />
      <path
         id="path42"
         d="m 1.5948437,8.9088594 c 0,-0.375 0.1054688,-1.6875 1.125,-1.6875 v 0.011719 c -0.023437,0.011719 -0.1640625,0.1171875 -0.1640625,0.328125 0,0.2460938 0.1875,0.3984375 0.3984375,0.3984375 0.1875,0 0.3867188,-0.140625 0.3867188,-0.4101562 0,-0.28125 -0.2695313,-0.5507813 -0.6679688,-0.5507813 -0.5390625,0 -0.9140625,0.375 -1.125,0.9257813 V 6.9987031 l -1.2773437,0.09375 v 0.28125 c 0.609375,0 0.69140625,0.058594 0.69140625,0.5039063 v 2.3906246 c 0,0.410157 -0.10546875,0.410157 -0.69140625,0.410157 v 0.28125 c 0.46875,-0.02344 0.5859375,-0.02344 1.0429687,-0.02344 0.3632813,0 0.5742188,0 1.1484375,0.02344 v -0.28125 h -0.1875 c -0.65625,0 -0.6796875,-0.09375 -0.6796875,-0.421875 z m 5.5957032,0 c 0.1992187,0 0.2460937,0 0.2460937,-0.1875 0,-0.9257813 -0.5039062,-1.78125 -1.6523437,-1.78125 -1.078125,0 -1.921875,0.9375 -1.921875,2.0507812 0,1.1718754 0.9492187,2.0625004 2.0390625,2.0625004 1.0898437,0 1.5351562,-0.949219 1.5351562,-1.1601566 0,-0.058594 -0.046875,-0.1171875 -0.1289062,-0.1171875 -0.09375,0 -0.1171875,0.058594 -0.1289063,0.09375 -0.3046875,0.9140621 -1.1015625,0.9375001 -1.2304687,0.9375001 -0.4335938,0 -0.796875,-0.246094 -1.0078125,-0.550781 C 4.6475781,9.8229219 4.6358594,9.2838594 4.6358594,8.9088594 Z M 4.6475781,8.6862031 c 0.082031,-1.3710937 0.8789063,-1.5234375 1.1367188,-1.5234375 0.4921875,0 1.03125,0.3867188 1.0429687,1.5234375 z M 10.785273,7.1744844 c 0,-0.1523438 0,-0.234375 -0.105468,-0.234375 -0.04687,0 -0.05859,0 -0.175782,0.1054687 -0.02344,0.023437 -0.105468,0.1054688 -0.152343,0.1523438 C 10.07043,6.9987031 9.7891797,6.9401094 9.4844922,6.9401094 c -1.1835938,0 -1.4765625,0.65625 -1.4765625,1.1132812 0,0.2929688 0.1289062,0.5273438 0.328125,0.7148438 0.3046875,0.28125 0.6445312,0.3398437 1.1015625,0.421875 0.4570312,0.09375 0.6093748,0.1171875 0.8085938,0.2695312 0.09375,0.070312 0.316406,0.2460938 0.316406,0.5859374 0,0.785156 -0.9023436,0.785156 -1.0312498,0.785156 -0.9140625,0 -1.1484375,-0.761718 -1.2539063,-1.2421871 -0.023437,-0.09375 -0.035156,-0.140625 -0.140625,-0.140625 -0.1289062,0 -0.1289062,0.070312 -0.1289062,0.234375 v 1.1484371 c 0,0.152344 0,0.222657 0.1054687,0.222657 0.058594,0 0.070312,0 0.2226563,-0.175782 0.035156,-0.04687 0.140625,-0.164062 0.1875,-0.210937 0.375,0.363281 0.7851562,0.386719 1.0078125,0.386719 1.1015628,0 1.4882808,-0.644532 1.4882808,-1.2421879 0,-0.3984375 -0.175781,-0.6445312 -0.375,-0.8554687 C 10.339961,8.6627656 10.011836,8.6041719 9.3555859,8.4752656 9.1212109,8.4283906 8.4649609,8.3112031 8.4649609,7.8072969 c 0,-0.2929688 0.2109375,-0.6679688 1.0195313,-0.6679688 0.9726558,0 1.0312498,0.75 1.0546878,0.9726563 0.01172,0.1054687 0.01172,0.1640625 0.117187,0.1640625 0.128906,0 0.128906,-0.070312 0.128906,-0.234375 z m 2.953125,-1.828125 c 0.117188,-0.09375 0.1875,-0.1640625 0.1875,-0.2929688 0,-0.2109375 -0.175781,-0.3515625 -0.339843,-0.3515625 -0.152344,0 -0.199219,0.058594 -0.269532,0.1640625 l -1.101562,1.3476563 0.175781,0.1875 z m -2.036132,1.7460937 v 0.28125 c 0.574218,0 0.644531,0.058594 0.644531,0.4921875 v 2.4023434 c 0,0.410157 -0.09375,0.410157 -0.679688,0.410157 v 0.28125 c 0.398438,-0.02344 0.585938,-0.02344 0.984375,-0.02344 0.140625,0 0.515625,0 0.960938,0.02344 v -0.28125 c -0.585938,0 -0.621094,-0.04687 -0.621094,-0.386719 V 6.9987031 Z m 5.686523,2.7890625 c 0,0.1640624 0,0.1875004 -0.140625,0.3750004 -0.28125,0.410156 -0.691406,0.574218 -1.042969,0.574218 -0.386718,0 -0.75,-0.210937 -0.984375,-0.585937 -0.234375,-0.3867189 -0.246093,-0.9140626 -0.246093,-1.2070314 0,-0.421875 0.04687,-0.890625 0.28125,-1.2539062 0.199218,-0.28125 0.5625,-0.5625 1.042968,-0.5625 0.375,0 0.738282,0.1875 0.972657,0.5273437 0.117187,0.140625 0.117187,0.1523438 0.117187,0.328125 z m 0.02344,-2.3554687 c -0.04687,-0.058594 -0.445313,-0.5273438 -1.148438,-0.5273438 -1.101562,0 -2.0625,0.8789063 -2.0625,2.0390625 0,1.1132814 0.902344,2.0156254 1.96875,2.0156254 0.644531,0 1.054688,-0.375 1.21875,-0.574219 v 0.574219 l 1.347656,-0.09375 v -0.28125 c -0.609375,0 -0.691406,-0.05859 -0.691406,-0.503907 V 4.7369844 L 16.72082,4.8424531 v 0.2695313 c 0.609375,0 0.691407,0.070312 0.691407,0.5039062 z m 5.15625,1.9335937 c 0,0.7968754 -0.445313,1.3710934 -1.089844,1.3710934 -0.75,0 -0.796875,-0.386718 -0.796875,-0.8671871 V 6.9987031 l -1.347656,0.09375 v 0.28125 c 0.691406,0 0.691406,0.023437 0.691406,0.8203125 v 1.3476563 c 0,0.5859371 0,0.9609371 0.410156,1.2773441 0.257813,0.175781 0.621094,0.234375 0.984375,0.234375 0.46875,0 0.902344,-0.199219 1.160156,-0.738282 h 0.01172 v 0.738282 l 1.324219,-0.09375 v -0.28125 c -0.609375,0 -0.679688,-0.05859 -0.679688,-0.503907 V 6.9987031 l -1.359375,0.09375 v 0.28125 c 0.609375,0 0.691407,0.058594 0.691407,0.5039063 z m 5.90625,-0.4101562 c 0,-1.171875 -0.925782,-2.109375 -2.027344,-2.109375 -1.148438,0 -2.050781,0.9609375 -2.050781,2.109375 0,1.1249996 0.9375,2.0039066 2.039062,2.0039066 1.136719,0 2.039063,-0.902344 2.039063,-2.0039066 z m -2.027344,1.7578126 c -0.457031,0 -0.832031,-0.222656 -1.03125,-0.574219 -0.234375,-0.3749999 -0.246094,-0.8554686 -0.246094,-1.2656249 0,-0.328125 0,-0.84375 0.222656,-1.2070312 0.269532,-0.4570313 0.714844,-0.5976563 1.042969,-0.5976563 0.503906,0 0.878906,0.2929688 1.054688,0.5976563 0.210937,0.375 0.210937,0.8320312 0.210937,1.2070312 0,0.328125 0,0.8554688 -0.222656,1.2539059 -0.246094,0.410157 -0.65625,0.585938 -1.03125,0.585938 z m 3.925781,0.01172 c 0,0.292968 0,1.03125 -0.679687,1.675781 -0.03516,0.04687 -0.03516,0.08203 -0.03516,0.08203 0,0.04687 0.05859,0.117188 0.117188,0.117188 0.09375,0 0.820312,-0.691407 0.820312,-1.757813 0,-0.609375 -0.234375,-0.9492186 -0.574218,-0.9492186 -0.316407,0 -0.492188,0.2460936 -0.492188,0.4921876 0,0.234375 0.175781,0.480469 0.492188,0.480469 0.222656,0 0.351562,-0.128907 0.351562,-0.140625 z m 0,0"
         style="fill:#5d6d7e;fill-opacity:1;fill-rule:nonzero;stroke:none" />
      <path
         id="path43"
         d="m 38.154414,5.1471406 c 0,-0.1523437 0,-0.328125 -0.1875,-0.328125 -0.199219,0 -0.199219,0.1992188 -0.199219,0.328125 v 5.4257814 h -2.542968 c -0.128907,0 -0.328125,0 -0.328125,0.1875 0,0.199219 0.1875,0.199219 0.328125,0.199219 h 5.472656 c 0.164062,0 0.339844,0 0.339844,-0.199219 0,-0.1875 -0.1875,-0.1875 -0.339844,-0.1875 h -2.542969 z m 0,0"
         style="fill:#5d6d7e;fill-opacity:1;fill-rule:nonzero;stroke:none" />
      <path
         id="path44"
         d="m 47.684687,10.315109 c 0.03516,0.375 0.304688,0.703125 0.691407,0.703125 0.222656,0 0.785156,-0.140625 0.785156,-0.855468 V 9.6588594 h -0.257813 v 0.4921876 c 0,0.105469 0,0.550781 -0.316406,0.550781 -0.328125,0 -0.328125,-0.433594 -0.328125,-0.574219 V 8.5572969 c 0,-0.515625 0,-0.8203125 -0.398437,-1.1835938 -0.328125,-0.2929687 -0.761719,-0.4335937 -1.207032,-0.4335937 -0.761718,0 -1.382812,0.375 -1.382812,0.9492187 0,0.28125 0.1875,0.4335938 0.421875,0.4335938 0.234375,0 0.410156,-0.1757813 0.410156,-0.4101563 0,-0.3867187 -0.398437,-0.4335937 -0.398437,-0.4335937 0.234375,-0.234375 0.667968,-0.3164063 0.925781,-0.3164063 0.457031,0 0.972656,0.3398438 0.972656,1.1367188 v 0.2929687 c -0.492187,0.023437 -1.160156,0.058594 -1.757812,0.3515625 -0.644532,0.3164063 -0.84375,0.7734375 -0.84375,1.1367184 0,0.738282 0.867187,0.972657 1.464843,0.972657 0.75,0 1.089844,-0.492188 1.21875,-0.738282 z m -0.08203,-0.6210934 c 0,0.8671874 -0.679687,1.1367184 -1.066406,1.1367184 -0.421875,0 -0.820313,-0.304687 -0.820313,-0.75 0,-0.5859371 0.515625,-1.2187496 1.886719,-1.2773434 z m 0,0"
         style="fill:#5d6d7e;fill-opacity:1;fill-rule:nonzero;stroke:none" />
      <path
         id="path45"
         d="m 53.353633,8.9908906 c 0.398437,-0.1875 0.421875,-0.3398437 0.421875,-0.3632812 0,-0.046875 -0.04687,-0.058594 -0.09375,-0.058594 -0.339844,0 -1.207031,0.4101563 -1.207031,1.265625 0,0.6445316 0.761718,1.3242186 1.863281,1.3242186 1.523437,0 3.234375,-1.03125 3.234375,-2.2382811 0,-0.8671875 -0.925781,-1.265625 -1.628906,-1.5703125 -0.304688,-0.1289062 -1.136719,-0.4804687 -1.136719,-1.1835937 0,-0.3046875 0.164062,-0.6328125 0.386719,-0.796875 0.210937,-0.1523438 0.609375,-0.2226563 0.902343,-0.2226563 0.117188,0 0.480469,0.011719 0.84375,0.1640625 0.199219,0.082031 0.457032,0.1875 0.457032,0.5976563 0,0.1054687 -0.02344,0.2226562 -0.03516,0.2226562 -0.01172,0.035156 -0.01172,0.09375 -0.01172,0.1171875 0,0.035156 0.01172,0.070312 0.08203,0.070312 0.117187,0 0.410156,-0.140625 0.550781,-0.2578125 0.09375,-0.1054687 0.199219,-0.2109375 0.199219,-0.5507812 0,-0.4453125 -0.292969,-0.5859375 -0.515625,-0.6796875 -0.421875,-0.1875 -0.84375,-0.1875 -0.960938,-0.1875 -1.207031,0 -2.671875,0.890625 -2.671875,1.921875 0,0.7617187 0.855469,1.1367187 1.21875,1.2890625 0.667969,0.28125 1.535157,0.6679687 1.535157,1.453125 0,0.328125 -0.164063,0.7851558 -0.539063,1.0312498 -0.351562,0.234375 -0.949219,0.316406 -1.300781,0.316406 -0.925781,0 -1.699219,-0.597656 -1.699219,-1.2070308 0,-0.1640625 0.03516,-0.3164063 0.105469,-0.4570313 z m 0,0"
         style="fill:#5d6d7e;fill-opacity:1;fill-rule:nonzero;stroke:none" />
    </g>
  </g>
</svg>
